<svg width="454" height="319" viewBox="0 0 454 319" fill="none" xmlns="http://www.w3.org/2000/svg">
<g opacity="0.6">
<path fill-rule="evenodd" clip-rule="evenodd" d="M83.1611 20.9677C83.1611 20.6549 83.1254 20.3504 83.058 20.058C83.3504 20.1254 83.6549 20.1611 83.9678 20.1611C86.1947 20.1611 88 18.3558 88 16.1288C88 14.5328 87.0727 13.1533 85.7275 12.4998C87.0727 11.8463 88 10.4668 88 8.87081C88 6.64386 86.1947 4.83856 83.9678 4.83856C83.6549 4.83856 83.3504 4.87418 83.0581 4.94159C83.1255 4.64934 83.1611 4.34495 83.1611 4.03225C83.1611 1.8053 81.3558 0 79.1288 0C77.5328 0 76.1533 0.927274 75.4998 2.27247C74.8463 0.927274 73.4668 0 71.8708 0C69.6439 0 67.8386 1.8053 67.8386 4.03225C67.8386 4.34491 67.8741 4.64927 67.9415 4.94148C67.6493 4.87415 67.345 4.83856 67.0323 4.83856C64.8054 4.83856 63.0001 6.64386 63.0001 8.87081C63.0001 10.4668 63.9274 11.8463 65.2726 12.4998C63.9274 13.1533 63.0001 14.5328 63.0001 16.1288C63.0001 18.3558 64.8054 20.1611 67.0323 20.1611C67.345 20.1611 67.6494 20.1255 67.9416 20.0581C67.8742 20.3504 67.8386 20.6549 67.8386 20.9677C67.8386 23.1946 69.6439 24.9999 71.8708 24.9999C73.4668 24.9999 74.8463 24.0726 75.4998 22.7274C76.1533 24.0726 77.5328 24.9999 79.1288 24.9999C81.3558 24.9999 83.1611 23.1946 83.1611 20.9677Z" fill="#FCFCFC"/>
<circle cx="75.4999" cy="12.4999" r="3.57142" fill="#8040FF"/>
</g>
<g opacity="0.8">
<path fill-rule="evenodd" clip-rule="evenodd" d="M24.1936 314.161C24.1936 313.786 24.1509 313.421 24.0701 313.07C24.4208 313.151 24.7861 313.194 25.1613 313.194C27.8337 313.194 30.0001 311.027 30.0001 308.355C30.0001 306.44 28.8872 304.784 27.2729 304C28.8872 303.216 30.0001 301.561 30.0001 299.645C30.0001 296.973 27.8337 294.806 25.1613 294.806C24.786 294.806 24.4207 294.849 24.07 294.93C24.1509 294.579 24.1936 294.214 24.1936 293.839C24.1936 291.166 22.0272 289 19.3548 289C17.4396 289 15.7842 290.113 15 291.727C14.2157 290.113 12.5604 289 10.6451 289C7.97275 289 5.80636 291.166 5.80636 293.839C5.80636 294.214 5.84908 294.579 5.92991 294.93C5.57923 294.849 5.21398 294.806 4.83876 294.806C2.16638 294.806 -4.86307e-06 296.973 -4.97988e-06 299.645C-5.0636e-06 301.561 1.11283 303.216 2.72721 304C1.11283 304.784 -4.89616e-06 306.44 -4.97988e-06 308.355C-5.09669e-06 311.027 2.16638 313.194 4.83876 313.194C5.21397 313.194 5.57921 313.151 5.92987 313.07C5.84906 313.421 5.80636 313.786 5.80636 314.161C5.80636 316.834 7.97275 319 10.6451 319C12.5604 319 14.2157 317.887 15 316.273C15.7842 317.887 17.4396 319 19.3548 319C22.0272 319 24.1936 316.834 24.1936 314.161Z" fill="#FCFCFC"/>
<circle cx="15.0001" cy="304" r="4.80001" fill="#8040FF"/>
</g>
<path fill-rule="evenodd" clip-rule="evenodd" d="M447.226 104.354C447.226 103.917 447.176 103.491 447.082 103.082C447.491 103.177 447.917 103.226 448.354 103.226C451.472 103.226 454 100.699 454 97.5812C454 95.3467 452.701 93.4154 450.818 92.5005C452.701 91.5856 454 89.6543 454 87.4199C454 84.3021 451.472 81.7747 448.354 81.7747C447.917 81.7747 447.491 81.8245 447.082 81.9188C447.176 81.5095 447.226 81.0831 447.226 80.6452C447.226 77.5274 444.699 75 441.581 75C439.346 75 437.414 76.2989 436.499 78.1831C435.585 76.2989 433.653 75 431.418 75C428.3 75 425.773 77.5274 425.773 80.6452C425.773 81.0831 425.823 81.5093 425.917 81.9186C425.508 81.8244 425.083 81.7747 424.645 81.7747C421.527 81.7747 419 84.3021 419 87.4199C419 89.6543 420.298 91.5856 422.182 92.5005C420.298 93.4154 419 95.3467 419 97.5812C419 100.699 421.527 103.226 424.645 103.226C425.082 103.226 425.508 103.177 425.917 103.083C425.823 103.491 425.773 103.917 425.773 104.354C425.773 107.472 428.3 110 431.418 110C433.653 110 435.585 108.701 436.499 106.817C437.414 108.701 439.346 110 441.581 110C444.699 110 447.226 107.472 447.226 104.354Z" fill="#FCFCFC"/>
<circle cx="436.499" cy="92.4998" r="5.56818" fill="#8040FF"/>
</svg>
