<svg width="475" height="246" viewBox="0 0 475 246" fill="none" xmlns="http://www.w3.org/2000/svg">
<ellipse cx="418.973" cy="61.5" rx="4.49448" ry="4.5" fill="#FCFCFC"/>
<ellipse cx="407.487" cy="49" rx="2.99632" ry="3" fill="#8040FF"/>
<rect width="4.89289" height="29.4552" transform="matrix(0.994683 0.102983 -0.0994406 0.995043 129.76 10.8652)" fill="#8040FF"/>
<rect width="4.9167" height="18.3305" transform="matrix(0.386684 0.922212 -0.917199 0.398429 158.936 31.1621)" fill="#8040FF"/>
<rect width="5.18188" height="34.9996" transform="matrix(0.815082 0.579346 -0.565734 0.824588 157.565 0)" fill="#FCFCFC"/>
<rect width="4.80023" height="13.7012" transform="matrix(-0.459298 0.888462 -0.879171 -0.476167 389.428 191.005)" fill="#8040FF"/>
<rect width="5.13596" height="29.7142" transform="matrix(-0.0785125 0.996985 -0.996139 -0.0869383 413.031 178.19)" fill="#FCFCFC"/>
<circle r="4.49724" transform="matrix(-0.706673 -0.707541 0.706673 -0.707541 30.314 148.363)" fill="#FCFCFC"/>
<circle r="5.99632" transform="matrix(-0.706673 -0.707541 0.706673 -0.707541 12.9922 134.557)" fill="#8040FF"/>
<path d="M123.844 117.035C125.048 114.949 125.672 112.578 125.651 110.169C125.631 107.76 124.967 105.399 123.728 103.333C123.502 102.96 123.353 102.545 123.291 102.113C123.229 101.682 123.255 101.242 123.367 100.82C123.48 100.399 123.676 100.005 123.945 99.6617C124.214 99.3184 124.549 99.0333 124.931 98.8234C127.041 97.6514 128.798 95.9341 130.018 93.8506C131.239 91.767 131.879 89.3936 131.87 86.9777C131.862 84.5618 131.207 82.192 129.972 80.1154C128.737 78.0389 126.969 76.3315 124.851 75.1715C124.481 74.9639 124.157 74.6841 123.896 74.3489C123.636 74.0136 123.445 73.6296 123.336 73.2195C123.226 72.8094 123.2 72.3816 123.258 71.9612C123.317 71.5408 123.458 71.1365 123.675 70.7719C124.927 68.7085 125.603 66.3466 125.633 63.9322C125.663 61.5178 125.046 59.1391 123.846 57.0437C122.646 54.9484 120.907 53.2131 118.81 52.0184C116.713 50.8238 114.334 50.2135 111.922 50.2511C111.487 50.2613 111.054 50.1829 110.649 50.0207C110.245 49.8586 109.878 49.616 109.57 49.3077C109.262 48.9994 109.019 48.6318 108.857 48.2271C108.695 47.8224 108.617 47.3891 108.627 46.9533C108.665 44.5445 108.06 42.1688 106.873 40.0724C105.686 37.9759 103.96 36.235 101.876 35.0298C99.7909 33.8247 97.4224 33.1992 95.0155 33.2182C92.6086 33.2371 90.251 33.8999 88.1867 35.1377C87.8149 35.3644 87.4009 35.5131 86.9698 35.5749C86.5388 35.6368 86.0996 35.6104 85.6789 35.4975C85.2582 35.3845 84.8648 35.1873 84.5223 34.9178C84.1799 34.6483 83.8956 34.3121 83.6867 33.9295C82.5142 31.8171 80.7972 30.0578 78.7147 28.835C76.6322 27.6122 74.2605 26.9707 71.8467 26.9773C69.4329 26.9839 67.0655 27.6384 64.991 28.8726C62.9166 30.1067 61.2112 31.8754 60.0526 33.9942C59.8458 34.3646 59.5669 34.6898 59.2325 34.9506C58.898 35.2113 58.5148 35.4023 58.1053 35.5124C57.6958 35.6224 57.2683 35.6492 56.8482 35.5911C56.4281 35.5331 56.0238 35.3915 55.6592 35.1745C53.5969 33.9181 51.2359 33.2384 48.8224 33.2061C46.4089 33.1739 44.0314 33.7903 41.9377 34.9912C39.8439 36.192 38.1108 37.9333 36.9189 40.0335C35.727 42.1336 35.12 44.5156 35.1613 46.9312C35.1707 47.3673 35.0918 47.8007 34.9293 48.2053C34.7668 48.61 34.5241 48.9775 34.2158 49.2856C33.9075 49.5938 33.5401 49.8362 33.1356 49.9984C32.7311 50.1605 32.298 50.239 31.8623 50.229C29.4559 50.1885 27.0828 50.7928 24.9889 51.9794C22.8951 53.166 21.1567 54.8916 19.9539 56.9775C18.7511 59.0633 18.1277 61.4335 18.1483 63.8423C18.1688 66.2512 18.8327 68.611 20.0709 70.6773C20.2974 71.0501 20.4461 71.4649 20.5081 71.8967C20.5701 72.3285 20.5441 72.7683 20.4317 73.1897C20.3193 73.6111 20.1228 74.0053 19.854 74.3485C19.5853 74.6917 19.2498 74.9769 18.8679 75.1868C16.7581 76.3593 15.0014 78.0768 13.7808 80.1605C12.5603 82.2442 11.9207 84.6178 11.9286 87.0337C11.9366 89.4497 12.5917 91.8197 13.8259 93.8967C15.0601 95.9736 16.8281 97.6816 18.9456 98.8425C19.3161 99.0491 19.6414 99.328 19.9023 99.6628C20.1631 99.9976 20.3541 100.381 20.4639 100.791C20.5738 101.201 20.6003 101.629 20.5418 102.049C20.4833 102.47 20.3411 102.874 20.1235 103.238C18.8702 105.302 18.1931 107.665 18.1628 110.081C18.1325 112.497 18.7501 114.877 19.9513 116.973C21.1525 119.069 22.8932 120.805 24.9921 122C27.091 123.194 29.4712 123.803 31.8847 123.763C32.32 123.753 32.753 123.832 33.1573 123.994C33.5617 124.156 33.929 124.399 34.237 124.707C34.5451 125.015 34.7874 125.383 34.9495 125.787C35.1115 126.192 35.1899 126.626 35.1797 127.061C35.1412 129.47 35.7468 131.846 36.9338 133.942C38.1208 136.039 39.8461 137.78 41.9309 138.985C44.0157 140.19 46.3842 140.815 48.7911 140.796C51.1979 140.777 53.5556 140.115 55.6198 138.877C55.9917 138.65 56.4057 138.501 56.8368 138.44C57.2678 138.378 57.707 138.404 58.1277 138.517C58.5484 138.63 58.9418 138.827 59.2842 139.097C59.6267 139.366 59.9109 139.703 60.1199 140.085C61.2932 142.195 63.01 143.952 65.0915 145.173C67.1729 146.394 69.5431 147.035 71.9551 147.028C74.3672 147.021 76.733 146.368 78.8063 145.135C80.8797 143.903 82.5848 142.136 83.7442 140.02C83.9504 139.649 84.2289 139.324 84.5633 139.063C84.8976 138.802 85.2809 138.611 85.6904 138.501C86.1 138.391 86.5274 138.365 86.9474 138.424C87.3674 138.483 87.7713 138.625 88.1353 138.843C90.1982 140.099 92.5595 140.778 94.9731 140.81C97.3867 140.841 99.7642 140.224 101.858 139.023C103.952 137.822 105.685 136.081 106.877 133.981C108.069 131.881 108.676 129.498 108.635 127.083C108.626 126.647 108.705 126.213 108.867 125.809C109.03 125.404 109.273 125.037 109.581 124.728C109.889 124.42 110.257 124.178 110.661 124.016C111.066 123.853 111.499 123.775 111.934 123.785C114.341 123.826 116.715 123.222 118.809 122.035C120.904 120.848 122.642 119.122 123.844 117.035Z" fill="#8040FF"/>
<path d="M114.321 111.529L114.32 111.53C113.408 113.114 112.088 114.425 110.498 115.326C108.909 116.227 107.108 116.686 105.282 116.655C104.785 116.644 104.29 116.733 103.829 116.918C103.366 117.104 102.946 117.381 102.594 117.733C102.242 118.085 101.964 118.505 101.779 118.968C101.593 119.429 101.503 119.924 101.513 120.421C101.544 122.255 101.083 124.063 100.178 125.657C99.273 127.251 97.957 128.574 96.3674 129.485C94.7777 130.397 92.9725 130.866 91.14 130.842C89.3074 130.818 87.5145 130.302 85.9483 129.349L85.9421 129.345C85.5239 129.095 85.0597 128.931 84.5772 128.863C84.0946 128.796 83.6035 128.826 83.1329 128.952C82.6623 129.078 82.2219 129.298 81.8377 129.597C81.4536 129.897 81.1335 130.271 80.8966 130.697L80.8935 130.703C80.0132 132.31 78.7186 133.651 77.1443 134.587C75.5701 135.522 73.7738 136.019 71.9425 136.024C70.1111 136.029 68.3115 135.542 66.7311 134.615C65.1516 133.689 63.8487 132.356 62.9578 130.755C62.7191 130.319 62.3948 129.936 62.0043 129.628C61.6126 129.32 61.1625 129.095 60.6814 128.965C60.2002 128.836 59.6978 128.806 59.2048 128.877C58.713 128.947 58.2405 129.117 57.816 129.375C56.2494 130.314 54.4603 130.816 52.634 130.831C50.8065 130.845 49.0081 130.37 47.4251 129.455C45.8421 128.54 44.5322 127.218 43.6309 125.626C42.7301 124.036 42.2703 122.233 42.299 120.405C42.31 119.908 42.2204 119.414 42.0355 118.952C41.8501 118.489 41.5729 118.069 41.2206 117.716C40.8682 117.363 40.4481 117.086 39.9856 116.9C39.5243 116.715 39.0303 116.626 38.5335 116.637C36.7022 116.666 34.8962 116.204 33.3036 115.297C31.7099 114.391 30.3882 113.073 29.4762 111.481C28.5642 109.889 28.0953 108.082 28.1183 106.248C28.1413 104.414 28.6554 102.62 29.607 101.053L29.6107 101.046C29.8607 100.628 30.0241 100.164 30.0913 99.6806C30.1585 99.1976 30.1281 98.706 30.0019 98.2349C29.8756 97.7638 29.6561 97.3229 29.3565 96.9382C29.0568 96.5535 28.683 96.233 28.2573 95.9956L28.251 95.9921C26.6432 95.1107 25.3008 93.8139 24.3638 92.2369C23.4267 90.66 22.9292 88.8605 22.9232 87.0262C22.9172 85.1918 23.4028 83.3897 24.3295 81.8076C25.2559 80.2261 26.589 78.9224 28.1902 78.0322C28.6258 77.7924 29.0084 77.4669 29.315 77.0753C29.6222 76.683 29.8468 76.2324 29.9753 75.7508C30.1038 75.2692 30.1335 74.7665 30.0626 74.2729C29.9919 73.7805 29.8225 73.3074 29.5646 72.8819C28.6254 71.3136 28.1218 69.5227 28.1062 67.6947C28.0906 65.8658 28.5639 64.0662 29.4772 62.4825C30.3904 60.8988 31.7103 59.5886 33.3001 58.6876C34.8891 57.7872 36.6899 57.3283 38.516 57.3586C39.0129 57.3695 39.5069 57.2798 39.9682 57.0949C40.4305 56.9096 40.8505 56.6324 41.2028 56.2802C41.5552 55.928 41.8326 55.508 42.0183 55.0455C42.2037 54.5838 42.294 54.0894 42.2836 53.5919C42.2526 51.7585 42.7134 49.9505 43.618 48.3565C44.523 46.762 45.8389 45.44 47.4285 44.5282C49.0181 43.6165 50.8233 43.1485 52.6557 43.1729C54.4881 43.1974 56.2807 43.7135 57.8465 44.6674L57.8465 44.6675L57.8554 44.6728C58.274 44.9219 58.7382 45.0845 59.2206 45.1512C59.7029 45.2178 60.1936 45.187 60.6638 45.0607C61.134 44.9344 61.5741 44.7151 61.958 44.4157C62.342 44.1163 62.6622 43.7429 62.8996 43.3176L62.8996 43.3176L62.9038 43.31C63.7835 41.7013 65.0784 40.3584 66.6534 39.4214C68.2284 38.4843 70.026 37.9874 71.8587 37.9824C73.6914 37.9774 75.4921 38.4644 77.0733 39.3929C78.6535 40.3207 79.9565 41.6554 80.8468 43.258C81.0856 43.6943 81.4101 44.0778 81.8008 44.3853C82.1925 44.6936 82.6426 44.9192 83.1238 45.0483C83.605 45.1775 84.1073 45.2077 84.6003 45.1369C85.0921 45.0664 85.5645 44.8969 85.989 44.6388C87.5557 43.7 89.3448 43.1974 91.1711 43.1831C92.9986 43.1687 94.797 43.6436 96.38 44.5586C97.963 45.4737 99.273 46.7956 100.174 48.3874C101.075 49.9782 101.535 51.7808 101.506 53.6086C101.495 54.1058 101.585 54.6001 101.77 55.0618C101.955 55.5247 102.232 55.9452 102.585 56.2978C102.937 56.6505 103.357 56.9279 103.82 57.1134C104.281 57.2984 104.774 57.388 105.271 57.377C107.101 57.3491 108.906 57.8125 110.497 58.719C112.089 59.626 113.41 60.9436 114.321 62.5345C115.232 64.1254 115.701 65.9315 115.678 67.7647C115.655 69.5979 115.142 71.3912 114.192 72.9578L114.187 72.9649C113.938 73.3834 113.775 73.8477 113.708 74.3304C113.641 74.813 113.672 75.3043 113.797 75.7751C113.923 76.246 114.142 76.6869 114.441 77.0718C114.74 77.4567 115.112 77.7778 115.537 78.0163L115.546 78.0213C117.154 78.9021 118.497 80.1983 119.434 81.775C120.372 83.3516 120.869 85.1508 120.876 86.9851C120.882 88.8193 120.396 90.6213 119.47 92.2032C118.543 93.7846 117.21 95.0881 115.608 95.9779C115.173 96.2177 114.79 96.5432 114.484 96.9348C114.177 97.3271 113.952 97.7777 113.823 98.2593C113.695 98.7409 113.665 99.2436 113.736 99.7371C113.807 100.23 113.976 100.703 114.234 101.128C115.174 102.697 115.678 104.488 115.693 106.316C115.709 108.145 115.235 109.945 114.321 111.529Z" stroke="#FCFCFC" stroke-width="2"/>
<path d="M72.081 65.4596L69.3937 63.9061L71.3998 60.4271L74.0871 61.9806C75.0429 62.5331 75.3711 63.7577 74.8196 64.7141C74.2761 65.6566 73.0368 66.0121 72.081 65.4596ZM64.7741 68.0737L66.4364 69.0346L68.4266 65.5833L71.0862 67.1207C72.9839 68.2177 75.389 67.5381 76.468 65.6669C77.563 63.768 76.9403 61.3567 75.0425 60.2597L70.7207 57.7614L64.7741 68.0737ZM77.6781 73.5555C76.3622 72.7948 76.2445 71.5255 76.9399 70.3197C77.6352 69.1138 78.7999 68.5673 80.1159 69.328C81.1409 69.9206 81.5516 71.3223 80.8462 72.5777C80.121 73.8033 78.7032 74.1481 77.6781 73.5555ZM75.2776 69.3588C74.1347 71.3409 74.4121 73.7744 76.6284 75.0556C77.418 75.512 78.4293 75.616 79.4666 75.1623L78.8672 76.2018L80.5294 77.1627L84.7416 69.8582L83.0793 68.8973L82.3999 70.0754C82.2657 68.9629 81.6701 68.1381 80.8805 67.6817C78.6642 66.4005 76.4285 67.3628 75.2776 69.3588ZM87.4142 73.1218L88.1735 71.8051L86.5251 70.8522L82.297 78.1845L83.9454 79.1373L86.0714 75.4504C86.6229 74.494 88.1926 73.8859 89.5085 74.6466L90.4197 73.0665C89.7825 72.6982 88.4345 72.4734 87.4142 73.1218ZM92.1769 83.7293L92.8195 81.8461C92.5382 81.7574 91.9937 81.5166 91.6554 81.3026C91.3033 81.0805 91.1658 80.7423 91.4216 80.2988L93.3878 76.8891L95.3132 78.0021L96.2404 76.3943L94.3149 75.2812L95.8095 72.6893L94.0919 71.6964L92.5973 74.2883L91.3367 73.5597L90.4096 75.1675L91.6701 75.8962L89.7039 79.3059C88.9446 80.6226 89.5109 82.2991 90.6089 82.9893C91.0858 83.2834 91.8125 83.5926 92.1769 83.7293ZM55.4337 81.414C55.9345 81.6665 56.65 81.8029 57.1775 81.8491C58.0758 81.9248 58.8723 81.6645 59.4989 81.2505C60.7483 80.3649 61.01 78.9823 60.7479 78.0915C60.5524 77.4056 60.1214 76.5836 58.6404 74.9882L58.0677 74.3799C57.7459 74.0091 57.586 73.8058 57.4523 73.5252C57.3106 73.2585 57.2659 73.0478 57.2291 72.8233C57.1993 72.3625 57.3597 71.9563 57.7337 71.692C58.3326 71.262 58.9469 71.4138 59.4994 71.6408C60.1744 71.9755 60.8884 72.4991 61.3566 73.4166C61.4925 73.6615 61.5729 73.8743 61.6198 74.0492L63.4899 73.6888C63.4063 73.2893 63.2491 72.9212 63.0169 72.4913C62.3222 71.1657 61.1394 70.3341 60.2465 69.9288C59.2981 69.4915 57.7994 69.272 56.5857 70.1597C55.6127 70.854 55.2205 72.1427 55.3494 73.1043C55.3686 73.2632 55.4757 73.7502 55.7292 74.3034C55.9455 74.761 56.263 75.2033 56.7074 75.6819L57.2859 76.3121C58.4905 77.6183 58.8475 78.1203 58.9252 78.4979C59.0126 78.955 58.8101 79.4663 58.3567 79.7401C58.0524 79.9154 57.7328 79.9893 57.3044 79.9635C56.8979 79.9318 56.4978 79.7929 56.2463 79.6845C55.3651 79.3229 54.8829 78.8779 54.3811 77.9225C54.0092 77.1901 54.0178 76.5667 54.0924 76.2771L52.2212 75.9347C52.128 76.4168 52.0773 77.6257 52.7208 78.8478C53.3782 80.078 54.2317 80.904 55.4337 81.414ZM64.8332 86.4039L65.4758 84.5207C65.1945 84.432 64.65 84.1912 64.3117 83.9772C63.9595 83.7551 63.8221 83.4169 64.0779 82.9734L66.0441 79.5637L67.9695 80.6767L68.8967 79.0689L66.9712 77.9558L68.4658 75.3639L66.7482 74.371L65.2535 76.9629L63.993 76.2342L63.0658 77.8421L64.3264 78.5707L62.3602 81.9805C61.6009 83.2972 62.1672 84.9737 63.2652 85.6639C63.742 85.958 64.4688 86.2672 64.8332 86.4039ZM69.441 84.7615L71.7189 80.8112L70.0705 79.8583L67.7686 83.8502C66.4259 86.1787 67.396 88.0517 69.0859 89.0286C69.7647 89.4209 70.7578 89.5884 71.6028 89.1159L71.0114 90.1416L72.6598 91.0945L76.8879 83.7622L75.2395 82.8093L72.9776 86.7319C72.4239 87.724 71.2342 88.0897 70.1953 87.4891C68.9902 86.7925 68.8735 85.7456 69.441 84.7615ZM78.5139 92.3532C77.2533 91.6245 77.1751 90.415 77.8385 89.2645C78.4859 88.1418 79.5792 87.5911 80.8397 88.3197C81.8371 88.8963 82.2164 90.2244 81.537 91.4025C80.8416 92.6084 79.5112 92.9297 78.5139 92.3532ZM76.1762 88.3037C75.0572 90.2442 75.3113 92.5902 77.4583 93.8314C78.0678 94.1837 79.1457 94.4925 80.2113 93.9258L79.6278 94.9376L81.3039 95.9065L87.3304 85.4555L85.6543 84.4867L83.0487 89.0052C82.9581 87.881 82.2554 87.0497 81.5905 86.6654C79.4434 85.4243 77.2792 86.3909 76.1762 88.3037ZM84.0185 101.837L87.923 98.8456L94.4659 93.9049L92.6097 92.8319L88.003 96.3046L88.6896 90.5658L86.8057 89.4768L85.9315 97.8792L82.1623 100.764L84.0185 101.837Z" fill="#FCFCFC"/>
<path d="M40.5145 84.4976L39.878 85.6013L40.7559 86.1087L38.1194 90.681L36.9826 90.0239L36.473 91.2459C38.195 92.2414 40.5218 93.5413 42.7667 94.3585L43.2724 93.2994C42.8637 93.1232 42.4326 92.9341 42.0079 92.7336L44.5601 88.3078L45.4492 88.8217L46.0856 87.7181L40.5145 84.4976ZM39.4942 91.4457L42.1178 86.896L43.2095 87.5271L40.6119 92.0318L39.4942 91.4457ZM41.5891 97.3116L42.9959 98.1248L45.9377 93.0232L47.4121 93.8755L48.0745 92.7268L46.6001 91.8745L48.8146 88.0343L47.4077 87.221L41.5891 97.3116ZM51.0761 90.3326L47.8616 95.9072L54.9409 99.9995L55.5838 98.8845L49.9226 95.612L50.5915 94.4521L55.9376 97.5424L56.561 96.4613L51.2149 93.3709L51.8578 92.256L57.4403 95.483L58.0767 94.3793L51.0761 90.3326ZM45.2988 97.8793L54.4265 103.156L55.0759 102.03L45.9482 96.7532L45.2988 97.8793ZM65.6303 98.5206L65.2082 99.2526C64.3575 100.728 62.1073 101.559 59.6693 100.661L59.5969 102.165C61.5315 102.818 63.3973 102.575 64.8016 101.675C64.7076 103.348 65.4369 105.076 66.9689 106.427L68.2455 105.618C66.2266 103.941 65.8237 101.62 66.6939 100.111L67.116 99.3794L65.6303 98.5206ZM57.0998 104.596L66.2276 109.872L66.8834 108.735L57.7557 103.459L57.0998 104.596ZM78.7491 105.308L76.6775 108.901L74.9105 107.879L74.2611 109.005L76.0281 110.027L72.911 115.432L74.2953 116.233L80.1334 106.108L78.7491 105.308ZM67.6226 109.327L68.433 109.796C70.155 110.791 71.4753 111.494 73.0748 112.104L73.5761 110.922C72.2099 110.402 71.0762 109.792 69.6629 108.99L70.7798 107.053L73.7174 108.751L74.3473 107.659L71.4098 105.961L72.3774 104.283L75.6638 106.182L76.3132 105.056L71.6424 102.356L67.6226 109.327ZM88.1407 110.752L82.3025 120.876L83.6981 121.683L89.5363 111.559L88.1407 110.752ZM77.3623 114.792L78.2176 115.287C80.3673 116.529 81.6699 117.237 83.2166 117.756L83.7551 116.536C82.3517 116.055 81.2003 115.449 79.4042 114.426L82.0018 109.921L85.4796 111.932L86.129 110.805L81.2782 108.001L77.3623 114.792Z" fill="#FCFCFC"/>
<circle r="59" transform="matrix(0.813182 -0.58201 0.581065 0.813857 151.559 185.695)" fill="#181818" stroke="#FCFCFC" stroke-width="2" stroke-dasharray="6 6"/>
<path d="M132.464 169.17L130.941 170.259L129.627 172.164L131.172 173.281L132.141 171.939L137.654 179.661L139.176 178.571L132.464 169.17ZM142.023 174.606L140.422 175.751L142.207 179.353L143.352 178.533L142.023 174.606ZM143.956 172.612L145.071 174.175L151.134 169.835L150.019 168.273L146.363 170.89C147.057 168.366 147.89 165.566 146.514 163.639C145.221 161.829 142.712 161.756 141.255 162.799C140.409 163.404 139.184 164.91 139.623 167.095L141.519 166.722C141.27 165.464 141.811 164.762 142.37 164.362C143.177 163.784 144.274 163.806 144.952 164.756C146.059 166.306 144.554 169.43 143.969 172.603L143.956 172.612ZM135.264 186.625L128.641 191.365L135.558 201.053L142.181 196.313L141.074 194.763L136 198.395L134.103 195.739L138.761 192.405L137.655 190.855L132.997 194.189L131.286 191.793L136.361 188.161L135.264 186.625ZM145.372 183.64L143.668 184.86L145.217 191.05L139.869 187.579L138.164 188.799L145.952 193.594L147.318 192.616L145.372 183.64ZM152.773 182.652L149.182 185.222C148.6 184.104 149.033 183.085 149.996 182.396C151.024 181.661 152.059 181.844 152.773 182.652ZM148.144 186.851C149.482 188.726 151.814 189.458 153.934 187.94C156.224 186.301 155.761 184.33 155.761 184.33L153.958 184.696C153.958 184.696 154.241 185.615 152.953 186.537C151.886 187.301 150.884 187.192 150.084 186.485L155.145 182.862C155.145 182.862 154.353 181.56 153.184 180.803C153.08 180.74 151.165 179.435 148.979 180.999C146.858 182.517 146.796 184.963 148.144 186.851ZM160.574 177.521L163.223 181.233L164.772 180.124L162.094 176.374C160.532 174.187 158.584 174.184 156.841 175.432C156.151 175.925 155.632 176.769 155.72 177.69L155.032 176.726L153.484 177.834L158.383 184.697L159.932 183.589L157.319 179.929C156.633 179.024 156.835 177.738 157.772 177.067C158.904 176.257 159.904 176.584 160.574 177.521ZM170.445 175.887L168.999 174.521C168.802 174.741 168.358 175.138 168.023 175.357C167.676 175.587 167.311 175.572 167.014 175.155L164.727 171.952L166.535 170.657L165.457 169.147L163.648 170.441L161.91 168.006L160.296 169.161L162.035 171.596L160.851 172.443L161.929 173.954L163.113 173.107L165.4 176.31C166.284 177.547 168.042 177.725 169.124 177.009C169.589 176.697 170.17 176.162 170.445 175.887Z" fill="#FCFCFC"/>
<path d="M141.382 209.72L140.145 210.606L139.078 212.153L140.333 213.061L141.12 211.971L145.599 218.245L146.836 217.359L141.382 209.72ZM148.832 214.364L147.531 215.295L148.982 218.221L149.912 217.556L148.832 214.364ZM150.085 212.972L150.992 214.241L155.918 210.715L155.011 209.446L152.041 211.572C152.605 209.521 153.282 207.247 152.164 205.681C151.114 204.21 149.075 204.151 147.891 204.998C147.203 205.49 146.208 206.714 146.565 208.489L148.106 208.186C147.903 207.164 148.342 206.593 148.797 206.268C149.452 205.799 150.344 205.817 150.895 206.589C151.794 207.848 150.571 210.386 150.096 212.964L150.085 212.972ZM151.579 203.334L152.311 204.36L154.267 202.96L154.539 203.341C155.566 204.78 155.975 206.918 154.958 208.716L156.377 209.204C157.105 207.964 157.15 206.461 156.728 205.02C157.893 205.801 159.232 206.201 160.569 205.948L160.557 204.454C158.581 204.797 156.803 203.783 155.829 202.418L155.557 202.037L157.47 200.668L156.737 199.642L154.824 201.011L153.857 199.657L152.557 200.587L153.524 201.942L151.579 203.334ZM163.178 207.006L164.488 206.068L161.135 201.37L162.541 200.364L161.77 199.285L160.364 200.291L157.72 196.588L156.409 197.526L163.178 207.006ZM168.18 189.102L169.865 191.461L169.114 191.998L167.558 189.819L166.332 190.696L170.215 196.135L171.441 195.257L169.87 193.056L170.62 192.519L172.426 195.048L173.663 194.162L169.417 188.216L168.18 189.102ZM162.737 196.019L167.356 192.713L166.631 191.697L164.972 192.885L164.337 191.996L163.047 192.919L163.682 193.808L162.012 195.004L162.737 196.019ZM164.427 197.783C165.13 198.767 166.462 198.82 167.635 197.981C168.83 197.126 169.21 195.846 168.508 194.862C167.813 193.889 166.473 193.825 165.279 194.68C164.105 195.519 163.732 196.809 164.427 197.783ZM165.579 196.958C165.255 196.503 165.443 195.984 165.951 195.621C166.469 195.251 167.02 195.24 167.345 195.695C167.67 196.15 167.489 196.679 166.971 197.05C166.463 197.413 165.904 197.413 165.579 196.958ZM168.513 200.598C169.291 201.687 170.963 201.434 172.993 199.981C175.023 198.528 175.793 197.034 175.015 195.944C174.229 194.844 172.568 195.09 170.538 196.543C168.508 197.995 167.728 199.497 168.513 200.598ZM169.824 199.659C169.454 199.141 169.961 198.442 171.241 197.527C172.52 196.611 173.334 196.364 173.704 196.883C174.059 197.38 173.57 198.082 172.291 198.997C171.011 199.913 170.179 200.157 169.824 199.659ZM172.97 186.793L173.967 188.189C175.228 189.956 175.756 192.328 174.71 194.196L176.258 194.687C176.948 193.394 176.952 191.856 176.488 190.334C177.695 191.196 179.054 191.646 180.411 191.443L180.463 189.839C178.423 190.18 176.483 188.962 175.267 187.259L174.27 185.862L172.97 186.793ZM183.142 192.717L184.453 191.779L181.076 187.05L182.482 186.044L181.704 184.954L180.298 185.96L177.684 182.299L176.374 183.238L183.142 192.717Z" fill="#FCFCFC"/>
<ellipse rx="95" ry="52.5" transform="matrix(0.955867 -0.2938 0.293142 0.956069 190.617 97.5619)" fill="#FCFCFC"/>
<path d="M275.689 71.4138C279.372 83.4241 273.537 97.365 260.589 110.268C247.677 123.135 227.881 134.755 204.248 142.019C180.616 149.283 157.717 150.786 139.819 147.389C121.87 143.982 109.228 135.721 105.545 123.71C101.863 111.7 107.698 97.7589 120.646 84.8557C133.557 71.9887 153.354 60.3685 176.986 53.1048C200.619 45.841 223.517 44.3381 241.415 47.7353C259.364 51.142 272.007 59.4034 275.689 71.4138Z" stroke="#8040FF" stroke-width="2"/>
<path d="M145.096 86.2068L143.246 86.7756L144.667 91.4106L139.146 93.1076L137.724 88.4726L135.889 89.0367L139.379 100.418L141.214 99.8536L139.699 94.9127L145.22 93.2157L146.735 98.1566L148.586 97.5878L145.096 86.2068ZM153.762 94.1556C152.385 94.5787 151.204 93.837 150.791 92.4908C150.383 91.16 150.946 89.8824 152.322 89.4594C153.698 89.0363 154.88 89.778 155.288 91.1088C155.701 92.455 155.138 93.7325 153.762 94.1556ZM149.109 93.0079C149.784 95.2107 151.921 96.6128 154.292 95.8842C156.77 95.1226 157.646 92.7945 156.97 90.5917C156.295 88.3889 154.265 86.954 151.787 87.7155C149.417 88.4441 148.434 90.8052 149.109 93.0079ZM168.853 86.4539L170.223 90.9207L172.043 90.3613L170.659 85.8486C169.941 83.5082 168.011 82.7792 166.191 83.3386C164.891 83.7381 164.35 84.758 164.04 85.6568C163.214 84.8729 162.352 84.5185 161.083 84.9086C160.226 85.1719 159.602 85.8658 159.479 86.7741L159.095 85.5197L157.275 86.0791L159.746 94.1407L161.566 93.5813L160.211 89.1604C159.892 88.1202 160.453 87.1109 161.431 86.8101C162.578 86.4575 163.351 87.1743 163.623 88.0616L164.992 92.5283L166.797 91.9736L165.427 87.5069C165.061 86.3137 165.633 85.5021 166.627 85.1965C167.56 84.9098 168.581 85.5667 168.853 86.4539ZM178.101 83.3435L173.88 84.6409C173.683 83.396 174.416 82.568 175.548 82.2201C176.756 81.8487 177.68 82.3515 178.101 83.3435ZM172.378 85.8557C173.054 88.0585 175.033 89.4923 177.526 88.7261C180.218 87.8987 180.403 85.8833 180.403 85.8833L178.577 85.6579C178.577 85.6579 178.554 86.6192 177.039 87.0846C175.785 87.47 174.87 87.0485 174.335 86.1247L180.285 84.2961C180.285 84.2961 179.946 82.81 179.077 81.7213C178.998 81.6283 177.595 79.783 175.026 80.5727C172.533 81.3389 171.698 83.6377 172.378 85.8557ZM185.83 84.2153C184.255 84.6995 183.177 83.859 182.76 82.4976C182.342 81.1361 182.763 79.835 184.339 79.3508C184.981 79.1534 185.631 79.2548 186.191 79.5515L187.132 77.8728C186.148 77.3383 184.978 77.1791 183.846 77.5269C181.246 78.3261 180.318 80.7036 181.031 83.0287C181.744 85.3539 183.845 86.8007 186.445 86.0015C187.576 85.6537 188.456 84.8645 188.971 83.8693L187.251 83.0086C186.954 83.5686 186.472 84.0178 185.83 84.2153ZM193.505 81.9399C192.129 82.363 190.947 81.6213 190.535 80.2752C190.127 78.9443 190.689 77.6668 192.065 77.2437C193.442 76.8206 194.623 77.5623 195.031 78.8932C195.444 80.2393 194.882 81.5169 193.505 81.9399ZM188.852 80.7923C189.528 82.9951 191.665 84.3971 194.035 83.6685C196.513 82.907 197.389 80.5789 196.713 78.3761C196.038 76.1733 194.008 74.7383 191.53 75.4998C189.16 76.2285 188.177 78.5895 188.852 80.7923ZM208.596 74.2382L209.966 78.705L211.786 78.1456L210.402 73.633C209.685 71.2925 207.754 70.5635 205.934 71.1229C204.634 71.5225 204.093 72.5424 203.783 73.4412C202.957 72.6573 202.095 72.3028 200.826 72.693C199.969 72.9562 199.345 73.6502 199.222 74.5584L198.838 73.3041L197.018 73.8635L199.489 81.925L201.309 81.3657L199.954 76.9448C199.635 75.9046 200.196 74.8953 201.175 74.5944C202.322 74.2419 203.094 74.9587 203.366 75.8459L204.735 80.3127L206.54 79.758L205.17 75.2912C204.805 74.0981 205.376 73.2864 206.37 72.9809C207.303 72.6941 208.324 73.351 208.596 74.2382ZM211.323 69.3994L213.828 77.5681L215.617 77.0181L213.113 68.8494L211.323 69.3994ZM210.325 66.5259C210.499 67.0919 210.987 67.4274 211.629 67.2299C212.287 67.0278 212.502 66.4761 212.329 65.9101C212.16 65.3594 211.672 65.0239 211.014 65.226C210.372 65.4235 210.156 65.9752 210.325 66.5259ZM222.046 70.2215L223.383 74.5811L225.203 74.0218L223.852 69.6162C223.064 67.0463 221.217 66.4256 219.167 67.0555C218.357 67.3046 217.598 67.9397 217.389 68.8409L217.041 67.7089L215.221 68.2683L217.693 76.3298L219.513 75.7705L218.195 71.472C217.832 70.3953 218.431 69.2401 219.533 68.9016C220.863 68.4927 221.708 69.1201 222.046 70.2215ZM230.084 70.6467C228.646 71.0885 227.668 70.3011 227.26 68.9702C226.866 67.6853 227.234 66.4841 228.672 66.0422C229.804 65.6944 231.103 66.3831 231.497 67.6681C231.905 68.9989 231.216 70.2988 230.084 70.6467ZM225.399 69.559C226.117 71.8995 228.043 73.2156 230.49 72.4634C231.178 72.2519 232.079 71.6404 232.493 70.4252L232.802 71.4348C233.214 72.8315 231.931 73.7782 230.891 74.0978C230.325 74.2718 229.343 74.2891 228.559 73.6429L227.329 75.1425C228.425 76.0442 230.017 76.3248 231.44 75.8876C233.81 75.159 235.33 73.1852 234.567 70.6412L232.217 62.9774L230.382 63.5415L230.776 64.8264C229.829 64.0295 228.668 64.1185 227.995 64.3254C225.548 65.0775 224.691 67.2492 225.399 69.559ZM180.9 102.369L179.233 102.881L176.879 95.2021L178.546 94.6897C180.656 94.041 182.91 95.2231 183.562 97.3494C184.214 99.4757 183.011 101.72 180.9 102.369ZM177.95 105.301L181.498 104.21C184.618 103.251 186.389 99.9118 185.427 96.7759C184.466 93.64 181.129 91.8704 178.009 92.8294L174.46 93.9199L177.95 105.301ZM191.736 99.2725C190.283 99.7191 189.275 98.941 188.867 97.6102C188.459 96.2793 188.853 95.0535 190.306 94.6069C191.438 94.259 192.742 94.9125 193.18 96.2845C193.582 97.6507 192.868 98.9247 191.736 99.2725ZM187.032 98.1743C187.702 100.362 189.671 101.816 192.118 101.063C192.99 100.795 193.755 100.125 194.13 99.0557L194.482 100.203L196.317 99.6389L193.845 91.5773L192.01 92.1414L192.409 93.4417C191.504 92.7825 190.495 92.6574 189.623 92.9253C187.176 93.6775 186.356 95.9715 187.032 98.1743ZM202.138 101.633L202.611 96.7335L203.456 88.5731L201.407 89.203L200.807 94.9444L197.078 90.5333L194.998 91.1726L200.547 97.5352L200.089 102.262L202.138 101.633Z" fill="#8040FF"/>
<path d="M171.591 125.438L172.59 128.694L180.269 126.334L179.271 123.078L171.591 125.438ZM170.228 125.204L180.293 122.111L179.931 120.93L175.669 122.24L175.49 121.656C177.357 120.96 178.237 120.104 177.955 119.184C177.635 118.14 176.137 118.002 173.751 118.736C171.366 119.469 170.216 120.421 170.536 121.465C170.818 122.384 172.013 122.602 173.949 122.129L174.128 122.714L169.866 124.024L170.228 125.204ZM169.116 119.848L178.162 117.067L177.804 115.899L174.076 117.045L173.805 116.162L172.265 116.636L172.535 117.518L168.758 118.679L169.116 119.848ZM173.743 127.089L173.445 126.119L178.118 124.683L178.415 125.653L173.743 127.089ZM172.176 120.961C172.058 120.575 172.664 120.199 174.068 119.767C175.484 119.332 176.196 119.303 176.314 119.689C176.429 120.062 175.823 120.438 174.407 120.873C173.003 121.305 172.291 121.333 172.176 120.961ZM184.49 114.156L179.408 115.719L179.785 116.949L183.339 115.857C183.453 116.406 183.535 116.939 183.559 117.462L179.738 118.881L180.321 120.116L183.464 118.837C183.212 120.275 182.438 121.655 180.956 123.117L182.163 124.038C185.511 120.724 185.538 117.574 184.49 114.156ZM185.846 118.622L187.958 117.973L189.677 123.578L191.218 123.105L187.803 111.969L186.262 112.442L187.577 116.73L185.465 117.379L185.846 118.622ZM189.804 112.197L191.336 117.193L196.704 115.543L195.173 110.547L189.804 112.197ZM193.443 120.027C193.866 121.407 195.58 121.764 197.916 121.046C200.252 120.328 201.471 119.069 201.048 117.69C200.625 116.31 198.907 115.941 196.571 116.659C194.234 117.377 193.02 118.648 193.443 120.027ZM192.466 115.513L191.681 112.953L194.055 112.223L194.84 114.783L192.466 115.513ZM194.971 119.558C194.765 118.886 195.462 118.319 196.94 117.864C198.407 117.414 199.301 117.492 199.507 118.163C199.705 118.81 199.02 119.415 197.554 119.865C196.075 120.32 195.169 120.204 194.971 119.558ZM198.709 115.784L200.262 115.306L198.254 108.756L196.701 109.234L198.709 115.784ZM207.583 105.875L210.997 117.012L212.463 116.561L209.049 105.425L207.583 105.875ZM202.469 116.913L203.239 116.676C204.879 116.172 205.97 115.782 207.136 115.152L206.627 113.935C205.673 114.459 204.785 114.8 203.596 115.179L202.098 110.295L204.832 109.455L204.455 108.224L200.205 109.53L202.469 116.913ZM204.943 112.521L206.919 111.914L208.546 117.221L209.987 116.778L206.79 106.35L205.349 106.793L206.538 110.671L204.562 111.278L204.943 112.521ZM217.644 102.769L221.07 113.943L222.624 113.465L219.198 102.292L217.644 102.769ZM211.748 109.791C212.498 112.239 214.21 113.386 215.9 112.866C217.577 112.351 218.339 110.444 217.588 107.995C216.841 105.559 215.142 104.409 213.465 104.924C211.775 105.444 211.001 107.354 211.748 109.791ZM213.239 109.332C212.728 107.667 213.034 106.58 213.891 106.316C214.736 106.057 215.599 106.784 216.109 108.45C216.62 110.115 216.318 111.215 215.473 111.474C214.615 111.738 213.749 110.998 213.239 109.332Z" fill="#8040FF"/>
<path d="M428.262 125.442C422.878 138.329 408.462 146.232 389.101 148.342C369.78 150.447 345.778 146.736 321.706 136.657C297.634 126.577 278.141 112.075 266.069 96.8247C253.972 81.5431 249.467 65.7176 254.85 52.83C260.233 39.9424 274.649 32.0395 294.01 29.9302C313.332 27.8251 337.333 31.5353 361.405 41.6149C385.477 51.6944 404.971 66.1967 417.043 81.447C429.14 96.7287 433.645 112.554 428.262 125.442Z" fill="#181818" stroke="#FCFCFC" stroke-width="2"/>
<path d="M343.632 63.7393L336.267 60.6556L331.679 71.6399L333.45 72.3814L335.374 67.7751L340.156 69.7774L340.902 67.9909L336.121 65.9887L337.311 63.1393L342.904 65.4814L343.632 63.7393ZM344.835 69.6028L345.42 68.2002L343.664 67.4649L340.402 75.2749L342.158 76.0103L343.799 72.0831C344.224 71.0644 345.704 70.2617 347.106 70.8487L347.809 69.1657C347.13 68.8814 345.764 68.8299 344.835 69.6028ZM352.736 75.0968L348.662 73.3912C349.306 72.3076 350.398 72.1407 351.491 72.598C352.657 73.0862 353.046 74.0643 352.736 75.0968ZM346.732 73.3634C345.844 75.4894 346.449 77.8591 348.855 78.8664C351.452 79.9541 352.882 78.5233 352.882 78.5233L351.623 77.1805C351.623 77.1805 350.991 77.9047 349.53 77.2929C348.319 76.7861 347.885 75.8756 348.064 74.8233L353.805 77.2272C353.805 77.2272 354.494 75.8679 354.522 74.4743C354.521 74.3524 354.621 72.0355 352.142 70.9973C349.736 69.99 347.626 71.2227 346.732 73.3634ZM361.441 78.7418L357.368 77.0362C358.011 75.9526 359.104 75.7858 360.196 76.2431C361.362 76.7312 361.751 77.7094 361.441 78.7418ZM355.437 77.0085C354.549 79.1345 355.154 81.5042 357.56 82.5115C360.158 83.5991 361.588 82.1684 361.588 82.1684L360.328 80.8256C360.328 80.8256 359.696 81.5497 358.235 80.9379C357.025 80.4312 356.59 79.5207 356.769 78.4683L362.51 80.8722C362.51 80.8722 363.2 79.5129 363.227 78.1193C363.226 77.9974 363.326 75.6806 360.847 74.6424C358.441 73.6351 356.331 74.8677 355.437 77.0085ZM314.263 68.788L312.492 68.0464L308.971 76.4766L306.56 65.5622L304.316 64.6228L299.728 75.6071L301.529 76.361L305.056 67.9161L307.373 78.8082L309.675 79.7723L314.263 68.788ZM318.954 78.2977L314.881 76.5921C315.525 75.5085 316.617 75.3416 317.709 75.7989C318.875 76.2871 319.264 77.2653 318.954 78.2977ZM312.951 76.5644C312.063 78.6904 312.668 81.0601 315.074 82.0674C317.671 83.155 319.101 81.7243 319.101 81.7243L317.841 80.3815C317.841 80.3815 317.209 81.1056 315.748 80.4938C314.538 79.9871 314.103 79.0766 314.283 78.0242L320.024 80.4281C320.024 80.4281 320.713 79.0688 320.74 77.6752C320.739 77.5533 320.84 75.2365 318.361 74.1983C315.955 73.191 313.845 74.4236 312.951 76.5644ZM324.793 85.9291L325.192 83.9796C324.901 83.9274 324.33 83.7578 323.968 83.5886C323.59 83.4131 323.411 83.0952 323.608 82.6228L325.125 78.9909L327.177 79.8498L327.892 78.1372L325.841 77.2783L326.994 74.5174L325.164 73.7511L324.011 76.512L322.667 75.9496L321.952 77.6622L323.295 78.2246L321.778 81.8565C321.192 83.259 321.967 84.8497 323.144 85.3946C323.654 85.6256 324.415 85.8398 324.793 85.9291ZM340.218 83.4027L338.373 82.6302L334.928 87.1023L335.555 81.4499L333.739 80.6898L330.205 85.1248L330.935 79.5156L329.09 78.7431L328.172 87.5001L329.855 88.2046L333.6 83.5975L332.969 89.5085L334.651 90.213L340.218 83.4027ZM341.809 91.3192C340.48 90.763 340.046 89.4363 340.589 88.1371C341.125 86.8527 342.373 86.2305 343.702 86.7867C345.03 87.3429 345.464 88.6695 344.928 89.954C344.385 91.2532 343.137 91.8753 341.809 91.3192ZM338.965 87.4574C338.077 89.5833 338.824 92.0296 341.112 92.9875C343.503 93.9886 345.663 92.7597 346.551 90.6337C347.439 88.5077 346.796 86.1047 344.405 85.1036C342.117 84.1457 339.853 85.3314 338.965 87.4574ZM350.673 89.3937L351.259 87.9911L349.503 87.2557L346.241 95.0658L347.997 95.8012L349.637 91.874C350.063 90.8553 351.543 90.0525 352.945 90.6396L353.648 88.9565C352.969 88.6723 351.603 88.6208 350.673 89.3937ZM358.362 86.8888L356.605 86.1534L351.875 97.4772L353.632 98.2126L354.452 96.249L355.934 95.4819L356.701 99.498L358.723 100.345L357.582 94.7324L362.077 92.6073L359.863 91.6804L355.488 93.7687L358.362 86.8888ZM363.703 93.1669L360.41 101.051L362.136 101.774L365.43 93.8899L363.703 93.1669ZM364.771 90.3185C364.543 90.8647 364.704 91.435 365.324 91.6946C365.958 91.9603 366.476 91.6743 366.705 91.128C366.927 90.5965 366.766 90.0262 366.131 89.7605C365.512 89.501 364.993 89.787 364.771 90.3185ZM371.419 100.665L369.662 104.873L371.418 105.608L373.194 101.356C374.23 98.8759 373.207 97.2158 371.229 96.3878C370.447 96.0602 369.458 96.0623 368.722 96.6213L369.178 95.5288L367.422 94.7934L364.172 102.574L365.928 103.309L367.661 99.1607C368.069 98.1001 369.268 97.596 370.331 98.041C371.615 98.5786 371.863 99.6021 371.419 100.665ZM377.326 106.139C375.939 105.558 375.69 104.327 376.227 103.042C376.745 101.802 377.795 101.114 379.182 101.695C380.274 102.153 380.833 103.514 380.315 104.754C379.778 106.039 378.418 106.597 377.326 106.139ZM374.42 102.303C373.477 104.562 374.117 106.807 376.478 107.796C377.142 108.074 378.225 108.181 379.319 107.512L378.912 108.486C378.336 109.823 376.745 109.73 375.742 109.309C375.196 109.081 374.43 108.465 374.24 107.466L372.336 107.831C372.603 109.227 373.648 110.462 375.02 111.037C377.308 111.995 379.737 111.451 380.776 109.006L383.865 101.609L382.094 100.868L381.576 102.108C381.357 100.889 380.408 100.214 379.759 99.9419C377.397 98.9531 375.351 100.074 374.42 102.303Z" fill="#FCFCFC"/>
<path d="M305.326 89.2106L304.815 90.4342L307.069 91.3781L306.783 92.0619C306.047 93.8252 304.282 95.4539 302.197 95.5535L302.546 97.0806C304.026 97.0099 305.408 96.1649 306.479 94.9503C306.405 96.4416 306.8 97.8897 307.764 98.9556L309.071 98.1215C307.668 96.5897 307.589 94.3159 308.27 92.6845L308.556 92.0007L310.714 92.9045L311.225 91.681L305.326 89.2106ZM307.994 101.744L309.481 102.366L311.736 96.9685L313.319 97.6312L313.83 96.4077L312.247 95.7449L313.971 91.6184L312.484 90.9958L307.994 101.744ZM320.514 94.471C318.08 93.4518 316.358 93.492 315.862 94.6796C315.366 95.8671 316.546 97.1224 318.981 98.1417C321.427 99.166 323.136 99.1207 323.632 97.9332C324.129 96.7456 322.96 95.4953 320.514 94.471ZM313.453 97.7156L315.911 98.7449L315.585 99.5246L314.242 98.9623L313.781 100.066L319.729 102.556L319.484 103.144L313.56 100.664L312.382 103.483L320.057 106.696L320.523 105.581L314.299 102.975L314.575 102.315L320.511 104.8L321.653 102.065L320.406 101.543L320.732 100.763L323.166 101.783L323.652 100.619L313.939 96.552L313.453 97.7156ZM317.409 95.3273C317.619 94.8235 318.492 94.8929 320.063 95.5506C321.634 96.2084 322.296 96.7817 322.086 97.2855C321.87 97.8013 321.008 97.7079 319.437 97.0501C317.866 96.3923 317.194 95.8431 317.409 95.3273ZM317.048 100.137L317.374 99.3575L319.257 100.146L318.931 100.925L317.048 100.137ZM328.211 98.7933L325.235 105.919L325.99 106.235C327.345 106.802 328.528 107.241 329.939 107.508L330.263 106.192C329.171 105.974 328.229 105.665 327.229 105.26L329.674 99.4059L328.211 98.7933ZM329.704 103.618L331.85 104.517L329.49 110.167L330.869 110.744L335.078 100.668L333.699 100.091L332.351 103.317L330.205 102.419L329.704 103.618ZM331.568 111.601L332.983 112.193L337.473 101.445L336.058 100.853L331.568 111.601ZM339.164 103.098L336.683 109.035L344.226 112.194L344.722 111.006L338.69 108.48L339.206 107.245L344.902 109.63L345.383 108.478L339.687 106.093L340.184 104.906L346.131 107.396L346.622 106.221L339.164 103.098ZM334.392 111.317L344.117 115.389L344.618 114.19L334.893 110.118L334.392 111.317ZM356.048 109.223L353.021 116.468L350.839 115.555L350.368 116.682L352.55 117.596L351.553 119.983L353.04 120.606L357.534 109.846L356.048 109.223ZM346.143 111.517L345.81 112.787C346.578 113.108 347.417 113.459 348.319 113.795L346.736 117.585L348.223 118.208L349.836 114.346C350.809 114.682 351.825 114.981 352.83 115.205L353.197 114.09C350.777 113.443 348.134 112.35 346.143 111.517ZM348.057 108.992C347.511 110.299 348.279 111.664 349.874 112.332C351.457 112.995 352.967 112.584 353.513 111.277C354.054 109.981 353.286 108.616 351.703 107.954C350.108 107.286 348.598 107.696 348.057 108.992ZM349.46 109.579C349.741 108.908 350.463 108.731 351.242 109.057C352.034 109.389 352.403 110.022 352.122 110.694C351.837 111.378 351.137 111.536 350.345 111.204C349.566 110.878 349.175 110.263 349.46 109.579ZM364.058 113.352L359.034 111.249L358.543 112.424L361.996 113.87C361.84 114.143 361.665 114.394 361.459 114.618L357.602 113.158L357.32 114.407L360.389 115.424C359.465 115.883 358.217 116.037 356.495 115.809L356.568 117.22C360.584 117.69 362.821 116.315 364.058 113.352ZM356.608 119.619C356.052 120.951 357.129 122.318 359.384 123.262C361.638 124.206 363.379 124.019 363.935 122.687C364.491 121.356 363.407 119.971 361.152 119.027C358.898 118.084 357.164 118.288 356.608 119.619ZM358.083 120.237C358.354 119.589 359.239 119.594 360.666 120.191C362.093 120.789 362.73 121.422 362.46 122.07C362.194 122.705 361.287 122.72 359.86 122.122C358.433 121.525 357.817 120.873 358.083 120.237ZM363.345 119.748L364.844 120.376L367.494 114.03L365.995 113.403L363.345 119.748Z" fill="#FCFCFC"/>
<rect width="76.9161" height="26.9963" transform="matrix(0.942433 -0.334394 0.333666 0.942691 393.504 96.7207)" fill="white"/>
<path d="M420.289 107.934C420.778 107.697 421.315 107.236 421.697 106.877C422.381 106.157 422.669 105.307 422.708 104.608C422.808 103.093 421.939 102.032 421.012 101.661C420.382 101.407 419.468 101.254 417.332 101.423L416.527 101.486C416.029 101.519 415.859 101.532 415.654 101.493C415.455 101.468 415.277 101.372 415.133 101.28C414.797 101.049 414.715 100.728 414.707 100.524C414.682 99.9597 415.069 99.6154 415.525 99.3742C416.178 99.0627 416.981 98.8575 417.914 99.02C418.199 99.062 418.409 99.1149 418.562 99.1879L419.673 97.2021C419.28 96.9913 418.798 96.8439 418.261 96.764C416.786 96.5076 415.384 96.9093 414.506 97.3484C413.481 97.871 412.472 98.977 412.437 100.406C412.389 101.394 413.082 102.676 413.946 103.229C414.071 103.312 414.516 103.536 415.059 103.678C415.564 103.801 416.082 103.824 416.73 103.769L417.578 103.691C419.212 103.541 419.771 103.55 420.059 103.686C420.389 103.856 420.552 104.227 420.487 104.537C420.462 104.737 420.349 105 420.093 105.266C419.808 105.542 419.513 105.742 419.316 105.86C418.518 106.302 417.927 106.385 416.932 106.228C416.219 106.099 415.829 105.808 415.683 105.621L413.964 107.058C414.294 107.451 415.224 108.235 416.599 108.479C417.951 108.7 419.138 108.549 420.289 107.934ZM429.11 100.268L430.471 104.114L432.507 103.392L431.026 99.2062C430.43 97.5235 428.816 96.1545 426.328 97.0373C426.144 97.1025 425.194 97.5667 424.826 98.4137L423.324 94.1716L421.19 94.929L425.114 106.015L427.248 105.258L425.887 101.411C425.622 100.662 426.023 99.5487 427.055 99.1825C428.285 98.7461 428.845 99.5184 429.11 100.268ZM436.765 99.605C435.704 99.9812 434.633 99.4702 434.257 98.4097C433.882 97.3492 434.388 96.2623 435.448 95.8861C436.523 95.5049 437.586 96.035 437.961 97.0955C438.336 98.156 437.839 99.2238 436.765 99.605ZM432.335 99.0918C433.07 101.17 435.284 102.39 437.475 101.613C439.808 100.785 440.619 98.492 439.883 96.4133C439.143 94.3206 437.07 93.0505 434.738 93.8781C432.547 94.6556 431.594 96.9991 432.335 99.0918ZM443.386 95.2342L442.01 91.3456L439.889 92.098L441.266 95.9866C442.297 98.8995 444.43 99.0817 446.197 98.4548C446.635 98.2993 447.573 97.7119 447.69 96.8744L448.02 97.8077L450.141 97.0553L447.438 89.4195L445.318 90.1719L446.694 94.0605C447.102 95.0777 446.602 96.0031 445.725 96.3141C444.467 96.7605 443.751 96.2665 443.386 95.2342ZM457.052 94.444L455.8 92.4369C455.552 92.5888 454.927 92.8902 454.549 92.9924C454.275 93.0735 454.047 93.0115 453.916 92.6438L452.88 89.7168L455.057 88.9443L454.322 86.8657L452.145 87.6381L451.109 84.7111L448.875 85.5036L449.911 88.4306L448.554 88.9122L449.29 90.9908L450.647 90.5093L451.683 93.4363C452.228 94.9776 454.009 95.6032 455.198 95.2767C455.788 95.0993 456.686 94.6693 457.052 94.444Z" fill="#8040FF"/>
<path d="M319.384 218.877L346.575 221.533L346.638 194.194L367.737 176.83L348.463 157.445L351.101 130.236L323.783 130.151L306.417 109.032L287.057 128.308L259.865 125.652L259.797 152.988L238.706 170.349L257.977 189.74L255.34 216.949L282.66 217.028L300.018 238.15L319.384 218.877Z" fill="#8040FF"/>
<path d="M318.133 214.108L317.665 214.062L317.332 214.394L300.359 231.285L285.145 212.773L284.846 212.409L284.375 212.408L260.431 212.339L262.743 188.491L262.788 188.023L262.456 187.689L245.566 170.694L264.051 155.478L264.414 155.179L264.416 154.708L264.475 130.749L288.307 133.077L288.776 133.123L289.109 132.791L306.077 115.897L321.298 134.407L321.597 134.77L322.067 134.772L346.01 134.846L343.698 158.693L343.653 159.162L343.985 159.496L360.877 176.486L342.384 191.704L342.021 192.003L342.02 192.474L341.965 216.436L318.133 214.108Z" stroke="#FCFCFC" stroke-width="2"/>
<path d="M291.565 142.126L289.646 141.244L280.179 149.996L282.04 150.851L284.497 148.563L289.382 150.807L289.266 154.17L291.113 155.018L291.565 142.126ZM285.996 147.174L289.676 143.829L289.456 148.764L285.996 147.174ZM297.264 144.374L292.151 155.531L293.881 156.325L298.994 145.169L297.264 144.374ZM300.685 145.946L295.573 157.103L297.303 157.897L302.416 146.741L300.685 145.946ZM302.007 152.293L301.207 154.039L307.633 156.991L308.433 155.246L302.007 152.293ZM314.492 159.244L311.671 157.948L313.345 154.297L316.165 155.593C317.168 156.054 317.609 157.243 317.149 158.246C316.696 159.235 315.495 159.705 314.492 159.244ZM307.46 162.528L309.205 163.33L310.865 159.708L313.656 160.991C315.648 161.906 317.98 161.005 318.879 159.041C319.793 157.048 318.948 154.706 316.956 153.791L312.42 151.707L307.46 162.528ZM320.82 166.782C319.439 166.147 319.203 164.895 319.783 163.629C320.363 162.364 321.472 161.711 322.853 162.345C323.929 162.84 324.469 164.197 323.883 165.513C323.275 166.801 321.896 167.276 320.82 166.782ZM318.038 162.828C317.085 164.908 317.588 167.305 319.915 168.373C320.743 168.754 321.76 168.763 322.751 168.215L322.251 169.305L323.995 170.107L327.508 162.442L325.764 161.64L325.197 162.876C324.96 161.781 324.29 161.016 323.461 160.635C321.135 159.566 318.998 160.733 318.038 162.828ZM330.474 165.441L331.107 164.06L329.377 163.265L325.851 170.959L327.581 171.754L329.354 167.885C329.814 166.881 331.32 166.129 332.701 166.764L333.461 165.106C332.792 164.799 331.429 164.701 330.474 165.441ZM336.205 175.558L336.669 173.623C336.381 173.561 335.816 173.372 335.46 173.19C335.088 173.002 334.92 172.678 335.133 172.213L336.773 168.635L338.794 169.563L339.567 167.876L337.546 166.947L338.793 164.227L336.99 163.399L335.743 166.119L334.42 165.511L333.647 167.198L334.97 167.806L333.33 171.384C332.697 172.766 333.417 174.382 334.575 174.967C335.077 175.215 335.829 175.455 336.205 175.558ZM285.887 170.472C286.409 170.677 287.135 170.746 287.664 170.742C288.566 170.734 289.334 170.4 289.92 169.93C291.081 168.932 291.213 167.531 290.869 166.668C290.61 166.004 290.104 165.225 288.481 163.775L287.854 163.223C287.499 162.884 287.321 162.697 287.162 162.43C286.996 162.177 286.931 161.972 286.874 161.752C286.801 161.296 286.923 160.876 287.271 160.578C287.827 160.094 288.453 160.188 289.024 160.362C289.727 160.633 290.487 161.087 291.039 161.957C291.197 162.188 291.297 162.393 291.36 162.562L293.188 162.029C293.068 161.639 292.877 161.287 292.606 160.881C291.79 159.626 290.535 158.908 289.608 158.588C288.623 158.241 287.111 158.163 285.985 159.16C285.081 159.942 284.811 161.262 285.029 162.207C285.062 162.363 285.214 162.838 285.518 163.365C285.777 163.801 286.134 164.211 286.621 164.646L287.256 165.22C288.577 166.408 288.979 166.874 289.092 167.243C289.221 167.69 289.068 168.218 288.642 168.533C288.355 168.736 288.044 168.839 287.615 168.853C287.207 168.86 286.796 168.759 286.535 168.674C285.624 168.397 285.102 167.998 284.514 167.094C284.075 166.4 284.025 165.778 284.073 165.483L282.178 165.317C282.13 165.805 282.192 167.014 282.947 168.17C283.716 169.334 284.643 170.076 285.887 170.472ZM295.712 174.563L296.176 172.628C295.888 172.566 295.323 172.377 294.966 172.195C294.595 172.007 294.426 171.683 294.64 171.218L296.279 167.64L298.3 168.568L299.074 166.881L297.053 165.952L298.299 163.232L296.496 162.404L295.25 165.124L293.927 164.516L293.153 166.204L294.477 166.811L292.837 170.39C292.204 171.771 292.924 173.388 294.081 173.972C294.584 174.22 295.336 174.46 295.712 174.563ZM300.146 172.497L302.046 168.352L300.316 167.557L298.396 171.746C297.276 174.19 298.417 175.964 300.191 176.779C300.903 177.106 301.908 177.18 302.705 176.631L302.212 177.707L303.942 178.502L307.468 170.808L305.738 170.013L303.851 174.129C303.393 175.168 302.242 175.644 301.152 175.143C299.887 174.562 299.673 173.53 300.146 172.497ZM309.888 179.209C308.565 178.601 308.374 177.404 308.928 176.197C309.468 175.019 310.505 174.368 311.828 174.976C312.875 175.457 313.376 176.744 312.81 177.98C312.23 179.246 310.935 179.69 309.888 179.209ZM307.183 175.395C306.25 177.432 306.721 179.744 308.975 180.779C309.615 181.073 310.717 181.28 311.725 180.616L311.238 181.678L312.998 182.486L318.023 171.519L316.264 170.711L314.091 175.452C313.896 174.342 313.119 173.58 312.421 173.259C310.168 172.224 308.103 173.388 307.183 175.395ZM316.253 188.137L319.862 184.795L325.916 179.265L323.968 178.37L319.705 182.257L319.853 176.48L317.876 175.571L317.789 184.018L314.305 187.242L316.253 188.137Z" fill="#FCFCFC"/>
<path d="M276.03 179.229L275.494 180.399L277.206 181.186L275.468 184.98L276.933 185.653L280.469 177.936L279.005 177.263L277.743 180.016L276.03 179.229ZM269.11 179.226L269.323 180.727C270.753 180.883 271.987 180.405 272.936 179.553C272.958 180.722 273.392 181.866 274.382 182.793L275.623 181.99C274.224 180.674 274.062 178.998 274.636 177.745L274.712 177.58L276.803 178.54L277.339 177.37L271.645 174.755L271.109 175.925L273.236 176.901L273.154 177.079C272.537 178.426 271.095 179.452 269.11 179.226ZM268.739 185.122L275.957 188.438L276.493 187.268L270.74 184.625L271.726 182.474L270.261 181.801L268.739 185.122ZM284.057 184.462L283.515 185.644L284.756 186.214L282.519 191.095L283.877 191.719L288.421 181.803L287.063 181.179L285.297 185.032L284.057 184.462ZM277.975 185.845L278.298 187.324C279.509 187.209 280.586 186.544 281.467 185.59C281.362 186.786 281.592 187.937 282.31 188.867L283.611 188.149C282.491 186.661 282.66 184.765 283.391 183.169L283.505 182.921L285.17 183.686L285.712 182.504L284.046 181.739L284.707 180.297L283.313 179.657L282.652 181.099L280.975 180.328L280.433 181.51L282.111 182.281L281.997 182.529C281.25 184.16 279.881 185.648 277.975 185.845ZM284.435 192.561L285.829 193.202L290.682 182.613L289.288 181.972L284.435 192.561ZM297.635 186.551L297.283 187.319C296.574 188.868 294.411 189.905 291.9 189.238L291.968 190.743C293.955 191.212 295.79 190.797 297.104 189.769C297.167 191.443 298.054 193.096 299.705 194.298L300.901 193.373C298.734 191.892 298.117 189.619 298.843 188.036L299.195 187.268L297.635 186.551ZM289.708 193.396L299.289 197.797L299.836 196.604L290.255 192.202L289.708 193.396ZM311.331 192.085L309.603 195.855L307.748 195.003L307.207 196.184L309.061 197.036L306.462 202.709L307.915 203.377L312.784 192.752L311.331 192.085ZM300.627 197.124L301.477 197.515C303.285 198.345 304.665 198.922 306.314 199.38L306.703 198.156C305.295 197.767 304.109 197.265 302.627 196.598L303.558 194.566L306.642 195.982L307.167 194.836L304.084 193.419L304.891 191.658L308.34 193.243L308.882 192.061L303.979 189.809L300.627 197.124ZM321.189 196.628L316.32 207.252L317.785 207.925L322.654 197.301L321.189 196.628ZM310.834 201.656L311.732 202.069C313.988 203.105 315.351 203.688 316.939 204.06L317.362 202.795C315.92 202.448 314.717 201.952 312.833 201.101L314.999 196.374L318.65 198.051L319.191 196.869L314.1 194.53L310.834 201.656Z" fill="#FCFCFC"/>
<rect width="91.8932" height="27.9982" transform="matrix(0.972965 0.230955 -0.230418 0.973092 30.4761 168.194)" fill="#8040FF"/>
<path d="M48.0531 186.903L45.1264 186.209L45.9227 182.846L48.8494 183.54C49.7679 183.758 50.3381 184.683 50.1206 185.602C49.9031 186.52 48.9715 187.121 48.0531 186.903ZM41.36 191.629L43.7107 192.187L44.5513 188.638L47.4001 189.314C49.6885 189.857 51.9523 188.421 52.4869 186.163C53.0288 183.875 51.6425 181.605 49.3541 181.062L44.1545 179.828L41.36 191.629ZM56.0276 192.891C54.7044 192.577 54.3467 191.588 54.6232 190.42C54.8997 189.252 55.6666 188.513 56.9898 188.827C57.9862 189.064 58.6515 190.143 58.3905 191.314C58.1022 192.463 57.0239 193.128 56.0276 192.891ZM52.257 189.858C51.715 192.147 52.6983 194.452 55.2513 195.058C56.1075 195.262 57.0367 195.087 57.7868 194.558L57.5729 195.461L59.9429 196.008L61.9263 187.631L59.5601 187.069L59.302 188.159C58.8726 187.334 58.1205 186.761 57.2643 186.557C54.7112 185.951 52.7989 187.569 52.257 189.858ZM65.1273 197.468C65.5705 197.541 66.1064 197.569 66.5554 197.479C67.1629 197.343 67.6651 197.166 68.1293 196.734C68.9916 195.87 69.0043 194.705 68.6417 193.945C68.4381 193.485 68.0522 193.032 66.7105 192.171L66.1706 191.812C65.9711 191.683 65.8183 191.564 65.6609 191.395C65.5667 191.307 65.5073 191.211 65.5102 191.129C65.5094 191.063 65.5434 190.989 65.6204 190.942C65.7359 190.871 65.8834 190.873 66.1636 190.939C66.5335 191.043 67.0214 191.274 67.368 191.686L67.443 191.786L69.6474 190.878C69.5315 190.604 69.3651 190.334 69.164 190.073C68.447 189.212 67.429 188.789 66.7404 188.642C65.8768 188.47 64.608 188.482 63.8317 189.399C63.1701 190.179 63.0411 191.349 63.3926 192.156C63.4885 192.376 63.6868 192.719 63.9584 193.03C64.1907 193.299 64.2693 193.384 64.7507 193.712L65.2906 194.07C66.2177 194.669 66.2251 194.637 66.4328 194.802C66.5856 194.92 66.5524 195.06 66.4058 195.124C66.3325 195.156 66.228 195.181 66.1776 195.185C66.0072 195.211 65.9257 195.208 65.704 195.172C65.1903 195.05 64.9515 194.878 64.5106 194.378C64.3021 194.148 64.2218 193.932 64.1571 193.719L61.9769 194.385C62.1182 194.83 62.38 195.599 62.754 196.034C63.4116 196.798 64.174 197.259 65.1273 197.468ZM72.8958 199.312C73.339 199.385 73.8749 199.413 74.3239 199.323C74.9314 199.187 75.4337 199.01 75.8978 198.578C76.7601 197.714 76.7728 196.549 76.4102 195.789C76.2066 195.329 75.8207 194.876 74.479 194.015L73.9391 193.656C73.7396 193.527 73.5868 193.408 73.4294 193.24C73.3352 193.151 73.2758 193.055 73.2787 192.973C73.2779 192.908 73.3119 192.833 73.3889 192.786C73.5044 192.715 73.6519 192.717 73.9321 192.783C74.302 192.888 74.79 193.118 75.1365 193.53L75.2115 193.63L77.4159 192.722C77.3 192.448 77.1336 192.178 76.9325 191.917C76.2156 191.056 75.1975 190.633 74.5089 190.486C73.6453 190.314 72.3765 190.326 71.6002 191.243C70.9386 192.023 70.8096 193.193 71.1611 194C71.257 194.22 71.4553 194.563 71.7269 194.874C71.9592 195.143 72.0378 195.228 72.5192 195.556L73.0592 195.914C73.9863 196.513 73.9936 196.481 74.2013 196.646C74.3541 196.764 74.321 196.904 74.1743 196.968C74.101 197 73.9965 197.025 73.9461 197.029C73.7757 197.055 73.6942 197.052 73.4725 197.016C72.9588 196.894 72.72 196.722 72.2792 196.222C72.0706 195.992 71.9903 195.776 71.9256 195.563L69.7454 196.229C69.8867 196.674 70.1485 197.443 70.5225 197.878C71.1801 198.642 71.9425 199.103 72.8958 199.312ZM79.6855 191.732L77.6541 200.31L79.9581 200.857L81.9895 192.278L79.6855 191.732ZM80.3192 188.708C80.157 189.393 80.4638 190.042 81.2578 190.23C82.0517 190.419 82.6166 189.977 82.7788 189.292C82.9411 188.607 82.6342 187.959 81.8403 187.77C81.0463 187.582 80.4814 188.023 80.3192 188.708ZM86.4301 200.042C85.2626 199.765 84.5972 198.686 84.8737 197.518C85.1502 196.351 86.2322 195.67 87.3997 195.947C88.5828 196.228 89.2289 197.319 88.9524 198.486C88.6759 199.654 87.6132 200.323 86.4301 200.042ZM82.7566 197.016C82.2146 199.304 83.4936 201.68 85.9066 202.253C88.4752 202.863 90.5276 201.278 91.0696 198.989C91.6152 196.685 90.4918 194.346 87.9232 193.736C85.5103 193.164 83.3022 194.711 82.7566 197.016ZM98.4019 200.631L97.3881 204.912L99.7232 205.467L100.737 201.185C101.497 197.978 100.002 196.653 97.7443 196.117C97.1061 195.965 96.0819 195.985 95.4928 196.668L95.7361 195.64L93.401 195.086L91.4102 203.493L93.7453 204.048L94.7592 199.766C94.9816 198.618 95.9644 198.079 96.9295 198.308C98.315 198.637 98.6711 199.494 98.4019 200.631Z" fill="white"/>
</svg>
