<svg width="280" height="300" viewBox="0 0 280 300" fill="none" xmlns="http://www.w3.org/2000/svg">
<path d="M242.5 162C221.789 162 205 178.789 205 199.5C205 220.211 221.789 237 242.5 237C263.211 237 280 220.211 280 199.5C280 178.789 263.211 162 242.5 162Z" fill="#333333"/>
<path d="M242.5 139C263.211 139 280 122.211 280 101.5C280 80.7893 263.211 64 242.5 64C221.789 64 205 80.7893 205 101.5C205 122.211 221.789 139 242.5 139Z" fill="#333333"/>
<path d="M37.5 162C16.7893 162 5.08894e-06 178.789 3.27835e-06 199.5C1.46777e-06 220.211 16.7893 237 37.5 237C58.2107 237 75 220.211 75 199.5C75 178.789 58.2107 162 37.5 162Z" fill="#333333"/>
<path d="M37.5 139C58.2107 139 75 122.211 75 101.5C75 80.7893 58.2107 64 37.5 64C16.7893 64 0 80.7893 0 101.5C0 122.211 16.7893 139 37.5 139Z" fill="#333333"/>
<path d="M189 150C189 177.062 167.062 199 140 199C112.938 199 91 177.062 91 150C91 122.938 112.938 101 140 101C167.062 101 189 122.938 189 150Z" stroke="#FCFCFC" stroke-width="2"/>
<path d="M114.69 157.54C113.934 157.648 113.208 157.624 112.512 157.468C111.828 157.312 111.138 157.03 110.442 156.622C109.83 156.25 109.332 155.818 108.948 155.326C108.564 154.834 108.306 154.396 108.174 154.012L110.442 153.184C110.502 153.376 110.628 153.592 110.82 153.832C111.024 154.072 111.294 154.294 111.63 154.498C112.158 154.798 112.626 154.996 113.034 155.092C113.442 155.176 113.916 155.182 114.456 155.11C114.624 155.074 114.81 155.032 115.014 154.984C115.218 154.924 115.416 154.852 115.608 154.768C115.812 154.66 115.98 154.546 116.112 154.426C116.244 154.306 116.346 154.174 116.418 154.03C116.538 153.814 116.586 153.58 116.562 153.328C116.538 153.076 116.442 152.866 116.274 152.698C116.142 152.542 115.872 152.386 115.464 152.23C115.068 152.074 114.402 151.864 113.466 151.6L112.512 151.33C111.78 151.114 111.18 150.85 110.712 150.538C110.472 150.37 110.256 150.196 110.064 150.016C109.872 149.824 109.74 149.68 109.668 149.584C109.296 149.104 109.05 148.516 108.93 147.82C108.822 147.112 108.894 146.47 109.146 145.894C109.446 145.162 109.92 144.592 110.568 144.184C111.228 143.776 111.924 143.53 112.656 143.446C113.316 143.374 114.024 143.404 114.78 143.536C115.548 143.656 116.274 143.926 116.958 144.346C117.498 144.646 117.924 144.97 118.236 145.318L116.4 146.92C116.268 146.764 116.052 146.608 115.752 146.452C115.296 146.176 114.828 145.996 114.348 145.912C113.88 145.828 113.412 145.804 112.944 145.84C112.56 145.888 112.236 145.99 111.972 146.146C111.708 146.29 111.516 146.524 111.396 146.848C111.312 147.04 111.282 147.238 111.306 147.442C111.33 147.646 111.414 147.85 111.558 148.054C111.738 148.282 111.924 148.45 112.116 148.558C112.236 148.63 112.368 148.696 112.512 148.756C112.668 148.816 112.866 148.882 113.106 148.954C113.118 148.966 113.13 148.972 113.142 148.972L114.06 149.242C115.188 149.566 116.04 149.866 116.616 150.142C117.204 150.418 117.666 150.712 118.002 151.024C118.29 151.288 118.524 151.624 118.704 152.032C118.896 152.44 118.992 152.896 118.992 153.4C118.992 153.904 118.878 154.408 118.65 154.912C118.458 155.32 118.194 155.704 117.858 156.064C117.534 156.424 117.138 156.718 116.67 156.946C116.322 157.102 115.974 157.234 115.626 157.342C115.278 157.45 114.966 157.516 114.69 157.54ZM127.28 151.582C127.22 151.198 127.088 150.868 126.884 150.592C126.692 150.316 126.434 150.106 126.11 149.962C125.786 149.806 125.42 149.728 125.012 149.728C124.364 149.728 123.818 149.89 123.374 150.214C122.93 150.526 122.66 150.982 122.564 151.582H127.262H127.28ZM129.062 150.196C129.242 150.664 129.368 151.198 129.44 151.798C129.524 152.386 129.554 152.95 129.53 153.49H122.564C122.744 154.006 123.032 154.414 123.428 154.714C123.836 155.002 124.364 155.146 125.012 155.146C125.54 155.146 125.966 155.056 126.29 154.876C126.614 154.696 126.83 154.48 126.938 154.228L129.08 155.146C128.792 155.758 128.3 156.274 127.604 156.694C126.908 157.102 126.038 157.306 124.994 157.306C124.034 157.306 123.2 157.09 122.492 156.658C121.784 156.214 121.244 155.626 120.872 154.894C120.5 154.15 120.314 153.34 120.314 152.464C120.314 151.564 120.5 150.748 120.872 150.016C121.244 149.272 121.784 148.684 122.492 148.252C123.2 147.808 124.034 147.586 124.994 147.586C125.894 147.586 126.644 147.772 127.244 148.144C127.844 148.504 128.276 148.888 128.54 149.296C128.816 149.692 128.984 149.992 129.044 150.196H129.062ZM133.578 149.224C133.878 148.684 134.304 148.276 134.856 148C135.42 147.712 135.918 147.568 136.35 147.568V149.872C135.798 149.872 135.312 150.004 134.892 150.268C134.472 150.52 134.148 150.844 133.92 151.24C133.692 151.624 133.578 152.02 133.578 152.428V157.252H131.148V147.586H133.578V149.224ZM143.675 157.252H141.587L137.519 147.64H140.201L142.685 154.03L145.169 147.64H147.869L143.675 157.252ZM151.919 147.55V157.324H149.525V147.55H151.919ZM150.713 142.798C151.121 142.798 151.439 142.924 151.667 143.176C151.895 143.416 152.009 143.728 152.009 144.112C152.009 144.484 151.895 144.796 151.667 145.048C151.439 145.288 151.121 145.408 150.713 145.408C150.305 145.408 149.987 145.288 149.759 145.048C149.531 144.796 149.417 144.484 149.417 144.112C149.417 143.728 149.531 143.416 149.759 143.176C149.987 142.924 150.305 142.798 150.713 142.798ZM158.457 154.912C158.793 154.912 159.111 154.846 159.411 154.714C159.711 154.582 159.987 154.39 160.239 154.138L161.985 155.83C161.529 156.298 161.001 156.664 160.401 156.928C159.813 157.18 159.189 157.306 158.529 157.306C157.533 157.306 156.663 157.084 155.919 156.64C155.175 156.184 154.605 155.572 154.209 154.804C153.825 154.036 153.633 153.19 153.633 152.266C153.633 151.33 153.825 150.478 154.209 149.71C154.605 148.942 155.175 148.336 155.919 147.892C156.663 147.436 157.533 147.208 158.529 147.208C159.189 147.208 159.813 147.34 160.401 147.604C161.001 147.868 161.529 148.228 161.985 148.684L160.239 150.376C159.987 150.136 159.711 149.95 159.411 149.818C159.111 149.674 158.793 149.602 158.457 149.602C157.905 149.602 157.437 149.722 157.053 149.962C156.681 150.19 156.399 150.508 156.207 150.916C156.027 151.312 155.937 151.762 155.937 152.266C155.937 152.77 156.027 153.226 156.207 153.634C156.399 154.03 156.681 154.342 157.053 154.57C157.437 154.798 157.905 154.912 158.457 154.912ZM169.766 151.582C169.706 151.198 169.574 150.868 169.37 150.592C169.178 150.316 168.92 150.106 168.596 149.962C168.272 149.806 167.906 149.728 167.498 149.728C166.85 149.728 166.304 149.89 165.86 150.214C165.416 150.526 165.146 150.982 165.05 151.582H169.748H169.766ZM171.548 150.196C171.728 150.664 171.854 151.198 171.926 151.798C172.01 152.386 172.04 152.95 172.016 153.49H165.05C165.23 154.006 165.518 154.414 165.914 154.714C166.322 155.002 166.85 155.146 167.498 155.146C168.026 155.146 168.452 155.056 168.776 154.876C169.1 154.696 169.316 154.48 169.424 154.228L171.566 155.146C171.278 155.758 170.786 156.274 170.09 156.694C169.394 157.102 168.524 157.306 167.48 157.306C166.52 157.306 165.686 157.09 164.978 156.658C164.27 156.214 163.73 155.626 163.358 154.894C162.986 154.15 162.8 153.34 162.8 152.464C162.8 151.564 162.986 150.748 163.358 150.016C163.73 149.272 164.27 148.684 164.978 148.252C165.686 147.808 166.52 147.586 167.48 147.586C168.38 147.586 169.13 147.772 169.73 148.144C170.33 148.504 170.762 148.888 171.026 149.296C171.302 149.692 171.47 149.992 171.53 150.196H171.548Z" fill="#FCFCFC"/>
<path d="M140.5 225C119.789 225 103 241.789 103 262.5C103 283.211 119.789 300 140.5 300C161.211 300 178 283.211 178 262.5C178 241.789 161.211 225 140.5 225Z" fill="#333333"/>
<path d="M130.287 260.65V268.252H128.425V260.65H130.287ZM129.349 256.954C129.666 256.954 129.913 257.052 130.091 257.248C130.268 257.435 130.357 257.677 130.357 257.976C130.357 258.265 130.268 258.508 130.091 258.704C129.913 258.891 129.666 258.984 129.349 258.984C129.031 258.984 128.784 258.891 128.607 258.704C128.429 258.508 128.341 258.265 128.341 257.976C128.341 257.677 128.429 257.435 128.607 257.248C128.784 257.052 129.031 256.954 129.349 256.954ZM137.43 266.404C138.102 266.404 138.695 266.255 139.208 265.956C139.731 265.648 140.132 265.233 140.412 264.71C140.692 264.178 140.832 263.59 140.832 262.946C140.832 262.311 140.692 261.733 140.412 261.21C140.132 260.678 139.736 260.263 139.222 259.964C138.709 259.656 138.112 259.502 137.43 259.502C136.758 259.502 136.161 259.656 135.638 259.964C135.125 260.263 134.728 260.678 134.448 261.21C134.168 261.733 134.028 262.311 134.028 262.946C134.028 263.59 134.168 264.178 134.448 264.71C134.728 265.233 135.125 265.648 135.638 265.956C136.161 266.255 136.758 266.404 137.43 266.404ZM137.43 257.584C138.448 257.584 139.358 257.827 140.16 258.312C140.972 258.788 141.602 259.437 142.05 260.258C142.498 261.07 142.722 261.966 142.722 262.946C142.722 263.926 142.498 264.827 142.05 265.648C141.602 266.46 140.972 267.109 140.16 267.594C139.358 268.07 138.448 268.308 137.43 268.308C136.413 268.308 135.503 268.07 134.7 267.594C133.898 267.109 133.268 266.46 132.81 265.648C132.362 264.827 132.138 263.926 132.138 262.946C132.138 261.966 132.362 261.07 132.81 260.258C133.268 259.437 133.898 258.788 134.7 258.312C135.503 257.827 136.413 257.584 137.43 257.584ZM148.773 268.42C148.185 268.504 147.62 268.485 147.079 268.364C146.547 268.243 146.01 268.023 145.469 267.706C144.993 267.417 144.605 267.081 144.307 266.698C144.008 266.315 143.807 265.975 143.705 265.676L145.469 265.032C145.515 265.181 145.613 265.349 145.763 265.536C145.921 265.723 146.131 265.895 146.393 266.054C146.803 266.287 147.167 266.441 147.485 266.516C147.802 266.581 148.171 266.586 148.591 266.53C148.721 266.502 148.866 266.469 149.025 266.432C149.183 266.385 149.337 266.329 149.487 266.264C149.645 266.18 149.776 266.091 149.879 265.998C149.981 265.905 150.061 265.802 150.117 265.69C150.21 265.522 150.247 265.34 150.229 265.144C150.21 264.948 150.135 264.785 150.005 264.654C149.902 264.533 149.692 264.411 149.375 264.29C149.067 264.169 148.549 264.005 147.821 263.8L147.079 263.59C146.509 263.422 146.043 263.217 145.679 262.974C145.492 262.843 145.324 262.708 145.175 262.568C145.025 262.419 144.923 262.307 144.867 262.232C144.577 261.859 144.386 261.401 144.293 260.86C144.209 260.309 144.265 259.81 144.461 259.362C144.694 258.793 145.063 258.349 145.567 258.032C146.08 257.715 146.621 257.523 147.191 257.458C147.704 257.402 148.255 257.425 148.843 257.528C149.44 257.621 150.005 257.831 150.537 258.158C150.957 258.391 151.288 258.643 151.531 258.914L150.103 260.16C150 260.039 149.832 259.917 149.599 259.796C149.244 259.581 148.88 259.441 148.507 259.376C148.143 259.311 147.779 259.292 147.415 259.32C147.116 259.357 146.864 259.437 146.659 259.558C146.453 259.67 146.304 259.852 146.211 260.104C146.145 260.253 146.122 260.407 146.141 260.566C146.159 260.725 146.225 260.883 146.337 261.042C146.477 261.219 146.621 261.35 146.771 261.434C146.864 261.49 146.967 261.541 147.079 261.588C147.2 261.635 147.354 261.686 147.541 261.742C147.55 261.751 147.559 261.756 147.569 261.756L148.283 261.966C149.16 262.218 149.823 262.451 150.271 262.666C150.728 262.881 151.087 263.109 151.349 263.352C151.573 263.557 151.755 263.819 151.895 264.136C152.044 264.453 152.119 264.808 152.119 265.2C152.119 265.592 152.03 265.984 151.853 266.376C151.703 266.693 151.498 266.992 151.237 267.272C150.985 267.552 150.677 267.781 150.313 267.958C150.042 268.079 149.771 268.182 149.501 268.266C149.23 268.35 148.987 268.401 148.773 268.42Z" fill="#FCFCFC"/>
<path d="M18.3787 105.278C18.9854 105.278 19.5407 105.129 20.0447 104.83C20.5581 104.531 20.9641 104.13 21.2627 103.626C21.5707 103.113 21.7247 102.553 21.7247 101.946C21.7247 101.339 21.5707 100.784 21.2627 100.28C20.9641 99.7667 20.5581 99.3607 20.0447 99.062C19.5407 98.7633 18.9854 98.614 18.3787 98.614H16.9227V105.278H18.3787ZM18.4207 96.696C19.3634 96.696 20.2361 96.9293 21.0387 97.396C21.8414 97.8627 22.4761 98.502 22.9427 99.314C23.4187 100.117 23.6567 100.994 23.6567 101.946C23.6567 102.898 23.4187 103.775 22.9427 104.578C22.4761 105.381 21.8414 106.02 21.0387 106.496C20.2361 106.963 19.3634 107.196 18.4207 107.196H15.0047V96.696H18.4207ZM29.9718 102.786C29.9252 102.487 29.8225 102.231 29.6638 102.016C29.5145 101.801 29.3138 101.638 29.0618 101.526C28.8098 101.405 28.5252 101.344 28.2078 101.344C27.7038 101.344 27.2792 101.47 26.9338 101.722C26.5885 101.965 26.3785 102.319 26.3038 102.786H29.9578H29.9718ZM31.3578 101.708C31.4978 102.072 31.5958 102.487 31.6518 102.954C31.7172 103.411 31.7405 103.85 31.7218 104.27H26.3038C26.4438 104.671 26.6678 104.989 26.9758 105.222C27.2932 105.446 27.7038 105.558 28.2078 105.558C28.6185 105.558 28.9498 105.488 29.2018 105.348C29.4538 105.208 29.6218 105.04 29.7058 104.844L31.3718 105.558C31.1478 106.034 30.7652 106.435 30.2238 106.762C29.6825 107.079 29.0058 107.238 28.1938 107.238C27.4472 107.238 26.7985 107.07 26.2478 106.734C25.6972 106.389 25.2772 105.931 24.9878 105.362C24.6985 104.783 24.5538 104.153 24.5538 103.472C24.5538 102.772 24.6985 102.137 24.9878 101.568C25.2772 100.989 25.6972 100.532 26.2478 100.196C26.7985 99.8507 27.4472 99.678 28.1938 99.678C28.8938 99.678 29.4772 99.8227 29.9438 100.112C30.4105 100.392 30.7465 100.691 30.9518 101.008C31.1665 101.316 31.2972 101.549 31.3438 101.708H31.3578ZM36.1023 107.35C35.673 107.359 35.2716 107.303 34.8983 107.182C34.5343 107.07 34.175 106.888 33.8203 106.636C33.6243 106.487 33.4423 106.3 33.2743 106.076C33.1063 105.843 32.957 105.609 32.8263 105.376L34.3803 104.494C34.5016 104.737 34.6603 104.928 34.8563 105.068C35.1083 105.236 35.3183 105.353 35.4863 105.418C35.6636 105.474 35.8736 105.502 36.1163 105.502C36.2936 105.493 36.4476 105.46 36.5783 105.404C36.6343 105.376 36.681 105.348 36.7183 105.32C36.765 105.292 36.807 105.259 36.8443 105.222C36.9096 105.157 36.9376 105.091 36.9283 105.026C36.919 104.961 36.8723 104.9 36.7883 104.844C36.7136 104.788 36.6016 104.737 36.4523 104.69C36.219 104.606 35.9296 104.503 35.5843 104.382L35.0663 104.186C34.8516 104.111 34.693 104.046 34.5903 103.99C34.4876 103.934 34.3663 103.859 34.2263 103.766C33.965 103.589 33.755 103.388 33.5963 103.164C33.363 102.856 33.223 102.487 33.1763 102.058C33.139 101.619 33.2136 101.204 33.4003 100.812C33.615 100.411 33.9323 100.117 34.3523 99.93C34.7723 99.7433 35.2016 99.6407 35.6403 99.622C36.0043 99.6127 36.3916 99.664 36.8023 99.776C37.2223 99.8787 37.6096 100.065 37.9643 100.336C38.1883 100.523 38.375 100.709 38.5243 100.896L37.0123 101.988C36.975 101.941 36.933 101.904 36.8863 101.876C36.6996 101.736 36.4943 101.638 36.2703 101.582C36.0556 101.517 35.841 101.479 35.6263 101.47C35.477 101.47 35.3556 101.489 35.2623 101.526C35.169 101.554 35.0943 101.601 35.0383 101.666C35.001 101.731 34.9776 101.792 34.9683 101.848C34.9683 101.895 34.9823 101.941 35.0103 101.988C35.0383 102.063 35.113 102.137 35.2343 102.212C35.393 102.324 35.575 102.413 35.7803 102.478L36.2983 102.674C36.9143 102.879 37.3623 103.066 37.6423 103.234C37.9316 103.402 38.151 103.584 38.3003 103.78C38.543 104.079 38.6876 104.443 38.7343 104.872C38.7903 105.301 38.6923 105.726 38.4403 106.146C38.3003 106.351 38.137 106.529 37.9503 106.678C37.7636 106.818 37.5443 106.949 37.2923 107.07C37.1243 107.145 36.933 107.205 36.7183 107.252C36.5036 107.299 36.2983 107.331 36.1023 107.35ZM42.1216 99.65V107.252H40.2596V99.65H42.1216ZM41.1836 95.954C41.501 95.954 41.7483 96.052 41.9256 96.248C42.103 96.4347 42.1916 96.6773 42.1916 96.976C42.1916 97.2653 42.103 97.508 41.9256 97.704C41.7483 97.8907 41.501 97.984 41.1836 97.984C40.8663 97.984 40.619 97.8907 40.4416 97.704C40.2643 97.508 40.1756 97.2653 40.1756 96.976C40.1756 96.6773 40.2643 96.4347 40.4416 96.248C40.619 96.052 40.8663 95.954 41.1836 95.954ZM47.4591 105.39C47.7765 105.39 48.0751 105.306 48.3551 105.138C48.6351 104.961 48.8545 104.723 49.0131 104.424C49.1811 104.125 49.2651 103.794 49.2651 103.43C49.2651 103.075 49.1811 102.753 49.0131 102.464C48.8545 102.165 48.6351 101.932 48.3551 101.764C48.0751 101.596 47.7765 101.512 47.4591 101.512C47.0671 101.512 46.7358 101.596 46.4651 101.764C46.2038 101.932 46.0078 102.161 45.8771 102.45C45.7465 102.73 45.6811 103.057 45.6811 103.43C45.6811 104.018 45.8305 104.494 46.1291 104.858C46.4278 105.213 46.8711 105.39 47.4591 105.39ZM51.3511 106.748C51.3418 107.504 51.1505 108.153 50.7771 108.694C50.4038 109.235 49.9045 109.641 49.2791 109.912C48.6538 110.192 47.9818 110.332 47.2631 110.332C46.5911 110.332 45.9425 110.183 45.3171 109.884C44.7011 109.585 44.2205 109.179 43.8751 108.666L45.4851 107.588C45.7091 107.924 45.9845 108.157 46.3111 108.288C46.6471 108.428 46.9645 108.498 47.2631 108.498C47.5431 108.498 47.8511 108.447 48.1871 108.344C48.5231 108.251 48.8125 108.097 49.0551 107.882C49.3071 107.667 49.4331 107.383 49.4331 107.028V106.16C49.2185 106.431 48.9851 106.645 48.7331 106.804C48.4811 106.963 48.2338 107.07 47.9911 107.126C47.7578 107.191 47.5291 107.224 47.3051 107.224C46.5678 107.224 45.9285 107.065 45.3871 106.748C44.8551 106.421 44.4491 105.973 44.1691 105.404C43.8891 104.835 43.7491 104.181 43.7491 103.444C43.7491 102.716 43.8891 102.067 44.1691 101.498C44.4491 100.929 44.8551 100.485 45.3871 100.168C45.9285 99.8413 46.5678 99.678 47.3051 99.678C47.5198 99.678 47.7531 99.7107 48.0051 99.776C48.2571 99.832 48.5091 99.9393 48.7611 100.098C49.0225 100.257 49.2465 100.462 49.4331 100.714V99.65H51.3511V106.748ZM58.3032 103.276C58.3032 102.744 58.1586 102.324 57.8692 102.016C57.5892 101.708 57.1506 101.554 56.5532 101.554C56.2452 101.554 55.9606 101.633 55.6992 101.792C55.4472 101.941 55.2466 102.151 55.0972 102.422C54.9572 102.683 54.8919 102.977 54.9012 103.304V107.196H53.0112V99.72H54.9012V100.7C55.0226 100.476 55.1859 100.294 55.3912 100.154C55.5966 100.005 55.8159 99.8973 56.0492 99.832C56.2919 99.7573 56.5299 99.72 56.7632 99.72C57.4539 99.72 58.0512 99.8367 58.5552 100.07C59.0592 100.303 59.4559 100.681 59.7452 101.204C60.0439 101.727 60.1932 102.408 60.1932 103.248V107.196H58.3032V103.276Z" fill="#FCFCFC"/>
<path d="M238.97 205.196H237.122L234.868 197.902L232.208 205.196H230.416L227.028 194.696H228.988L231.41 202.284L233.818 194.696H235.862L238.116 202.284L240.356 194.696H242.302L238.97 205.196ZM247.755 200.786C247.708 200.487 247.606 200.231 247.447 200.016C247.298 199.801 247.097 199.638 246.845 199.526C246.593 199.405 246.308 199.344 245.991 199.344C245.487 199.344 245.062 199.47 244.717 199.722C244.372 199.965 244.162 200.319 244.087 200.786H247.741H247.755ZM249.141 199.708C249.281 200.072 249.379 200.487 249.435 200.954C249.5 201.411 249.524 201.85 249.505 202.27H244.087C244.227 202.671 244.451 202.989 244.759 203.222C245.076 203.446 245.487 203.558 245.991 203.558C246.402 203.558 246.733 203.488 246.985 203.348C247.237 203.208 247.405 203.04 247.489 202.844L249.155 203.558C248.931 204.034 248.548 204.435 248.007 204.762C247.466 205.079 246.789 205.238 245.977 205.238C245.23 205.238 244.582 205.07 244.031 204.734C243.48 204.389 243.06 203.931 242.771 203.362C242.482 202.783 242.337 202.153 242.337 201.472C242.337 200.772 242.482 200.137 242.771 199.568C243.06 198.989 243.48 198.532 244.031 198.196C244.582 197.851 245.23 197.678 245.977 197.678C246.677 197.678 247.26 197.823 247.727 198.112C248.194 198.392 248.53 198.691 248.735 199.008C248.95 199.316 249.08 199.549 249.127 199.708H249.141ZM254.558 203.334C255.118 203.334 255.538 203.166 255.818 202.83C256.098 202.494 256.238 202.046 256.238 201.486C256.238 201.131 256.177 200.819 256.056 200.548C255.934 200.268 255.748 200.053 255.496 199.904C255.253 199.745 254.94 199.666 254.558 199.666C254.25 199.666 253.965 199.745 253.704 199.904C253.452 200.063 253.251 200.282 253.102 200.562C252.952 200.842 252.878 201.15 252.878 201.486C252.878 201.831 252.952 202.144 253.102 202.424C253.251 202.704 253.452 202.928 253.704 203.096C253.965 203.255 254.25 203.334 254.558 203.334ZM254.74 197.888C255.44 197.888 256.046 198.051 256.56 198.378C257.082 198.705 257.474 199.143 257.736 199.694C258.006 200.235 258.142 200.833 258.142 201.486C258.142 202.149 258.006 202.755 257.736 203.306C257.474 203.857 257.082 204.295 256.56 204.622C256.046 204.949 255.44 205.112 254.74 205.112C254.497 205.112 254.264 205.084 254.04 205.028C253.816 204.981 253.587 204.883 253.354 204.734C253.12 204.585 252.91 204.375 252.724 204.104V205.014L250.848 205V194.388H252.724V198.882C252.994 198.546 253.316 198.299 253.69 198.14C254.063 197.972 254.413 197.888 254.74 197.888Z" fill="#FCFCFC"/>
<path d="M225.973 107.42C225.385 107.504 224.82 107.485 224.279 107.364C223.747 107.243 223.21 107.023 222.669 106.706C222.193 106.417 221.805 106.081 221.507 105.698C221.208 105.315 221.007 104.975 220.905 104.676L222.669 104.032C222.715 104.181 222.813 104.349 222.963 104.536C223.121 104.723 223.331 104.895 223.593 105.054C224.003 105.287 224.367 105.441 224.685 105.516C225.002 105.581 225.371 105.586 225.791 105.53C225.921 105.502 226.066 105.469 226.225 105.432C226.383 105.385 226.537 105.329 226.687 105.264C226.845 105.18 226.976 105.091 227.079 104.998C227.181 104.905 227.261 104.802 227.317 104.69C227.41 104.522 227.447 104.34 227.429 104.144C227.41 103.948 227.335 103.785 227.205 103.654C227.102 103.533 226.892 103.411 226.575 103.29C226.267 103.169 225.749 103.005 225.021 102.8L224.279 102.59C223.709 102.422 223.243 102.217 222.879 101.974C222.692 101.843 222.524 101.708 222.375 101.568C222.225 101.419 222.123 101.307 222.067 101.232C221.777 100.859 221.586 100.401 221.493 99.86C221.409 99.3093 221.465 98.81 221.661 98.362C221.894 97.7927 222.263 97.3493 222.767 97.032C223.28 96.7147 223.821 96.5233 224.391 96.458C224.904 96.402 225.455 96.4253 226.043 96.528C226.64 96.6213 227.205 96.8313 227.737 97.158C228.157 97.3913 228.488 97.6433 228.731 97.914L227.303 99.16C227.2 99.0387 227.032 98.9173 226.799 98.796C226.444 98.5813 226.08 98.4413 225.707 98.376C225.343 98.3107 224.979 98.292 224.615 98.32C224.316 98.3573 224.064 98.4367 223.859 98.558C223.653 98.67 223.504 98.852 223.411 99.104C223.345 99.2533 223.322 99.4073 223.341 99.566C223.359 99.7247 223.425 99.8833 223.537 100.042C223.677 100.219 223.821 100.35 223.971 100.434C224.064 100.49 224.167 100.541 224.279 100.588C224.4 100.635 224.554 100.686 224.741 100.742C224.75 100.751 224.759 100.756 224.769 100.756L225.483 100.966C226.36 101.218 227.023 101.451 227.471 101.666C227.928 101.881 228.287 102.109 228.549 102.352C228.773 102.557 228.955 102.819 229.095 103.136C229.244 103.453 229.319 103.808 229.319 104.2C229.319 104.592 229.23 104.984 229.053 105.376C228.903 105.693 228.698 105.992 228.437 106.272C228.185 106.552 227.877 106.781 227.513 106.958C227.242 107.079 226.971 107.182 226.701 107.266C226.43 107.35 226.187 107.401 225.973 107.42ZM235.765 102.786C235.718 102.487 235.615 102.231 235.457 102.016C235.307 101.801 235.107 101.638 234.855 101.526C234.603 101.405 234.318 101.344 234.001 101.344C233.497 101.344 233.072 101.47 232.727 101.722C232.381 101.965 232.171 102.319 232.097 102.786H235.751H235.765ZM237.151 101.708C237.291 102.072 237.389 102.487 237.445 102.954C237.51 103.411 237.533 103.85 237.515 104.27H232.097C232.237 104.671 232.461 104.989 232.769 105.222C233.086 105.446 233.497 105.558 234.001 105.558C234.411 105.558 234.743 105.488 234.995 105.348C235.247 105.208 235.415 105.04 235.499 104.844L237.165 105.558C236.941 106.034 236.558 106.435 236.017 106.762C235.475 107.079 234.799 107.238 233.987 107.238C233.24 107.238 232.591 107.07 232.041 106.734C231.49 106.389 231.07 105.931 230.781 105.362C230.491 104.783 230.347 104.153 230.347 103.472C230.347 102.772 230.491 102.137 230.781 101.568C231.07 100.989 231.49 100.532 232.041 100.196C232.591 99.8507 233.24 99.678 233.987 99.678C234.687 99.678 235.27 99.8227 235.737 100.112C236.203 100.392 236.539 100.691 236.745 101.008C236.959 101.316 237.09 101.549 237.137 101.708H237.151ZM240.663 100.952C240.897 100.532 241.228 100.215 241.657 100C242.096 99.776 242.483 99.664 242.819 99.664V101.456C242.39 101.456 242.012 101.559 241.685 101.764C241.359 101.96 241.107 102.212 240.929 102.52C240.752 102.819 240.663 103.127 240.663 103.444V107.196H238.773V99.678H240.663V100.952ZM248.516 107.196H246.892L243.728 99.72H245.814L247.746 104.69L249.678 99.72H251.778L248.516 107.196ZM257.476 102.786C257.429 102.487 257.326 102.231 257.168 102.016C257.018 101.801 256.818 101.638 256.566 101.526C256.314 101.405 256.029 101.344 255.712 101.344C255.208 101.344 254.783 101.47 254.438 101.722C254.092 101.965 253.882 102.319 253.808 102.786H257.462H257.476ZM258.862 101.708C259.002 102.072 259.1 102.487 259.156 102.954C259.221 103.411 259.244 103.85 259.226 104.27H253.808C253.948 104.671 254.172 104.989 254.48 105.222C254.797 105.446 255.208 105.558 255.712 105.558C256.122 105.558 256.454 105.488 256.706 105.348C256.958 105.208 257.126 105.04 257.21 104.844L258.876 105.558C258.652 106.034 258.269 106.435 257.728 106.762C257.186 107.079 256.51 107.238 255.698 107.238C254.951 107.238 254.302 107.07 253.752 106.734C253.201 106.389 252.781 105.931 252.492 105.362C252.202 104.783 252.058 104.153 252.058 103.472C252.058 102.772 252.202 102.137 252.492 101.568C252.781 100.989 253.201 100.532 253.752 100.196C254.302 99.8507 254.951 99.678 255.698 99.678C256.398 99.678 256.981 99.8227 257.448 100.112C257.914 100.392 258.25 100.691 258.456 101.008C258.67 101.316 258.801 101.549 258.848 101.708H258.862ZM262.374 100.952C262.608 100.532 262.939 100.215 263.368 100C263.807 99.776 264.194 99.664 264.53 99.664V101.456C264.101 101.456 263.723 101.559 263.396 101.764C263.07 101.96 262.818 102.212 262.64 102.52C262.463 102.819 262.374 103.127 262.374 103.444V107.196H260.484V99.678H262.374V100.952Z" fill="#FCFCFC"/>
<path d="M20.8648 205.196H18.8628L17.7708 202.55H13.1088L12.0168 205.196H10.0008L14.3828 194.696H16.4828L20.8648 205.196ZM16.9868 200.674L15.4888 196.992L13.9068 200.674H16.9868ZM27.479 201.276C27.479 200.744 27.3343 200.324 27.045 200.016C26.765 199.708 26.3263 199.554 25.729 199.554C25.421 199.554 25.1363 199.633 24.875 199.792C24.623 199.941 24.4223 200.151 24.273 200.422C24.133 200.683 24.0677 200.977 24.077 201.304V205.196H22.187V197.72H24.077V198.7C24.1983 198.476 24.3617 198.294 24.567 198.154C24.7723 198.005 24.9917 197.897 25.225 197.832C25.4677 197.757 25.7057 197.72 25.939 197.72C26.6297 197.72 27.227 197.837 27.731 198.07C28.235 198.303 28.6317 198.681 28.921 199.204C29.2197 199.727 29.369 200.408 29.369 201.248V205.196H27.479V201.276ZM34.2003 203.334C34.499 203.334 34.779 203.259 35.0403 203.11C35.3017 202.951 35.507 202.732 35.6563 202.452C35.8057 202.163 35.8803 201.841 35.8803 201.486C35.8803 201.131 35.8057 200.819 35.6563 200.548C35.507 200.268 35.3017 200.053 35.0403 199.904C34.779 199.745 34.499 199.666 34.2003 199.666C33.8177 199.666 33.5003 199.745 33.2483 199.904C32.9963 200.053 32.8097 200.268 32.6883 200.548C32.5763 200.819 32.5203 201.131 32.5203 201.486C32.5203 201.85 32.5763 202.172 32.6883 202.452C32.8097 202.723 32.9963 202.937 33.2483 203.096C33.5003 203.255 33.8177 203.334 34.2003 203.334ZM37.9383 205H36.0203V204.104C35.7777 204.477 35.4697 204.739 35.0963 204.888C34.723 205.037 34.359 205.112 34.0043 205.112C33.3043 205.112 32.6977 204.949 32.1843 204.622C31.671 204.295 31.279 203.857 31.0083 203.306C30.747 202.755 30.6163 202.149 30.6163 201.486C30.6163 200.833 30.747 200.235 31.0083 199.694C31.279 199.143 31.671 198.705 32.1843 198.378C32.6977 198.051 33.3043 197.888 34.0043 197.888C34.219 197.888 34.4477 197.925 34.6903 198C34.933 198.065 35.171 198.173 35.4043 198.322C35.647 198.462 35.8523 198.649 36.0203 198.882V194.388H37.9383V205ZM41.5617 198.952C41.795 198.532 42.1264 198.215 42.5557 198C42.9944 197.776 43.3817 197.664 43.7177 197.664V199.456C43.2884 199.456 42.9104 199.559 42.5837 199.764C42.257 199.96 42.005 200.212 41.8277 200.52C41.6504 200.819 41.5617 201.127 41.5617 201.444V205.196H39.6717V197.678H41.5617V198.952ZM47.8742 203.46C48.2475 203.46 48.5835 203.376 48.8822 203.208C49.1808 203.031 49.4095 202.793 49.5682 202.494C49.7362 202.186 49.8202 201.845 49.8202 201.472C49.8202 201.089 49.7362 200.749 49.5682 200.45C49.4095 200.142 49.1808 199.904 48.8822 199.736C48.5928 199.559 48.2568 199.47 47.8742 199.47C47.4915 199.47 47.1508 199.559 46.8522 199.736C46.5628 199.904 46.3342 200.142 46.1662 200.45C46.0075 200.749 45.9282 201.089 45.9282 201.472C45.9282 201.845 46.0075 202.186 46.1662 202.494C46.3342 202.793 46.5628 203.031 46.8522 203.208C47.1508 203.376 47.4915 203.46 47.8742 203.46ZM47.8742 197.678C48.6115 197.678 49.2555 197.851 49.8062 198.196C50.3662 198.532 50.7955 198.989 51.0942 199.568C51.3928 200.137 51.5422 200.772 51.5422 201.472C51.5422 202.153 51.3928 202.783 51.0942 203.362C50.7955 203.931 50.3662 204.389 49.8062 204.734C49.2555 205.079 48.6115 205.252 47.8742 205.252C47.1648 205.252 46.5302 205.079 45.9702 204.734C45.4195 204.389 44.9855 203.927 44.6682 203.348C44.3602 202.769 44.2062 202.144 44.2062 201.472C44.2062 200.781 44.3602 200.151 44.6682 199.582C44.9855 199.003 45.4195 198.541 45.9702 198.196C46.5302 197.851 47.1648 197.678 47.8742 197.678ZM54.8423 197.65V205.252H52.9803V197.65H54.8423ZM53.9043 193.954C54.2217 193.954 54.469 194.052 54.6463 194.248C54.8237 194.435 54.9123 194.677 54.9123 194.976C54.9123 195.265 54.8237 195.508 54.6463 195.704C54.469 195.891 54.2217 195.984 53.9043 195.984C53.587 195.984 53.3397 195.891 53.1623 195.704C52.985 195.508 52.8963 195.265 52.8963 194.976C52.8963 194.677 52.985 194.435 53.1623 194.248C53.3397 194.052 53.587 193.954 53.9043 193.954ZM60.0538 203.334C60.3525 203.334 60.6325 203.259 60.8938 203.11C61.1552 202.951 61.3605 202.732 61.5098 202.452C61.6592 202.163 61.7338 201.841 61.7338 201.486C61.7338 201.131 61.6592 200.819 61.5098 200.548C61.3605 200.268 61.1552 200.053 60.8938 199.904C60.6325 199.745 60.3525 199.666 60.0538 199.666C59.6712 199.666 59.3538 199.745 59.1018 199.904C58.8498 200.053 58.6632 200.268 58.5418 200.548C58.4298 200.819 58.3738 201.131 58.3738 201.486C58.3738 201.85 58.4298 202.172 58.5418 202.452C58.6632 202.723 58.8498 202.937 59.1018 203.096C59.3538 203.255 59.6712 203.334 60.0538 203.334ZM63.7918 205H61.8738V204.104C61.6312 204.477 61.3232 204.739 60.9498 204.888C60.5765 205.037 60.2125 205.112 59.8578 205.112C59.1578 205.112 58.5512 204.949 58.0378 204.622C57.5245 204.295 57.1325 203.857 56.8618 203.306C56.6005 202.755 56.4698 202.149 56.4698 201.486C56.4698 200.833 56.6005 200.235 56.8618 199.694C57.1325 199.143 57.5245 198.705 58.0378 198.378C58.5512 198.051 59.1578 197.888 59.8578 197.888C60.0725 197.888 60.3012 197.925 60.5438 198C60.7865 198.065 61.0245 198.173 61.2578 198.322C61.5005 198.462 61.7058 198.649 61.8738 198.882V194.388H63.7918V205Z" fill="#FCFCFC"/>
<path d="M140.5 75C161.211 75 178 58.2107 178 37.5C178 16.7893 161.211 0 140.5 0C119.789 0 103 16.7893 103 37.5C103 58.2107 119.789 75 140.5 75Z" fill="#333333"/>
<path d="M130.901 37.918C131.2 37.918 131.471 37.8433 131.713 37.694C131.965 37.5447 132.166 37.344 132.315 37.092C132.465 36.84 132.539 36.5693 132.539 36.28C132.539 35.9813 132.465 35.7107 132.315 35.468C132.166 35.216 131.965 35.02 131.713 34.88C131.471 34.7307 131.2 34.656 130.901 34.656H128.241V37.918H130.901ZM130.859 32.696C131.503 32.696 132.096 32.8547 132.637 33.172C133.188 33.4893 133.622 33.9233 133.939 34.474C134.266 35.0247 134.429 35.6267 134.429 36.28C134.429 36.924 134.266 37.5213 133.939 38.072C133.622 38.6133 133.188 39.0473 132.637 39.374C132.096 39.7007 131.503 39.864 130.859 39.864H128.241V43.196H126.337V32.696H130.859ZM137.138 32.388V43.252H135.262V32.388H137.138ZM142.017 41.502C142.344 41.502 142.643 41.418 142.913 41.25C143.193 41.082 143.417 40.8487 143.585 40.55C143.763 40.242 143.851 39.9013 143.851 39.528C143.851 39.1547 143.763 38.8187 143.585 38.52C143.417 38.212 143.193 37.974 142.913 37.806C142.643 37.638 142.344 37.554 142.017 37.554C141.607 37.554 141.266 37.638 140.995 37.806C140.725 37.974 140.519 38.2073 140.379 38.506C140.249 38.8047 140.183 39.1453 140.183 39.528C140.183 39.92 140.249 40.2653 140.379 40.564C140.519 40.8533 140.725 41.082 140.995 41.25C141.266 41.418 141.607 41.502 142.017 41.502ZM145.867 43.182L143.963 43.196V42.258C143.777 42.4913 143.567 42.6873 143.333 42.846C143.109 42.9953 142.867 43.1073 142.605 43.182C142.353 43.266 142.097 43.308 141.835 43.308C141.107 43.308 140.473 43.14 139.931 42.804C139.39 42.4587 138.979 42.0013 138.699 41.432C138.419 40.8533 138.279 40.2187 138.279 39.528C138.279 38.8373 138.419 38.2073 138.699 37.638C138.979 37.0687 139.39 36.616 139.931 36.28C140.473 35.9347 141.107 35.762 141.835 35.762C142.237 35.762 142.624 35.8507 142.997 36.028C143.371 36.2053 143.693 36.4667 143.963 36.812V35.734H145.867V43.182ZM152.957 39.276C152.957 38.744 152.812 38.324 152.523 38.016C152.243 37.708 151.804 37.554 151.207 37.554C150.899 37.554 150.614 37.6333 150.353 37.792C150.101 37.9413 149.9 38.1513 149.751 38.422C149.611 38.6833 149.545 38.9773 149.555 39.304V43.196H147.665V35.72H149.555V36.7C149.676 36.476 149.839 36.294 150.045 36.154C150.25 36.0047 150.469 35.8973 150.703 35.832C150.945 35.7573 151.183 35.72 151.417 35.72C152.107 35.72 152.705 35.8367 153.209 36.07C153.713 36.3033 154.109 36.6813 154.399 37.204C154.697 37.7267 154.847 38.408 154.847 39.248V43.196H152.957V39.276Z" fill="#FCFCFC"/>
<circle cx="140.5" cy="218.5" r="1.5" transform="rotate(-180 140.5 218.5)" fill="#4877AF"/>
<circle opacity="0.6" cx="140.5" cy="212.5" r="1.5" transform="rotate(-180 140.5 212.5)" fill="#4877AF"/>
<circle opacity="0.3" cx="140.5" cy="206.5" r="1.5" transform="rotate(-180 140.5 206.5)" fill="#4877AF"/>
<circle cx="140.5" cy="81.5" r="1.5" fill="#4877AF"/>
<circle opacity="0.6" cx="140.5" cy="87.5" r="1.5" fill="#4877AF"/>
<circle opacity="0.3" cx="140.5" cy="93.5" r="1.5" fill="#4877AF"/>
<circle cx="202.582" cy="178.949" r="1.5" transform="rotate(115 202.582 178.949)" fill="#4877AF"/>
<circle opacity="0.6" cx="197.144" cy="176.414" r="1.5" transform="rotate(115 197.144 176.414)" fill="#4877AF"/>
<circle opacity="0.3" cx="191.706" cy="173.878" r="1.5" transform="rotate(115 191.706 173.878)" fill="#4877AF"/>
<circle cx="78.4177" cy="121.051" r="1.5" transform="rotate(-65 78.4177 121.051)" fill="#4877AF"/>
<circle opacity="0.6" cx="83.8557" cy="123.586" r="1.5" transform="rotate(-65 83.8557 123.586)" fill="#4877AF"/>
<circle opacity="0.3" cx="89.2932" cy="126.122" r="1.5" transform="rotate(-65 89.2932 126.122)" fill="#4877AF"/>
<circle cx="78.4174" cy="178.949" r="1.5" transform="rotate(-115 78.4174 178.949)" fill="#4877AF"/>
<circle opacity="0.6" cx="83.8554" cy="176.414" r="1.5" transform="rotate(-115 83.8554 176.414)" fill="#4877AF"/>
<circle opacity="0.3" cx="89.2929" cy="173.878" r="1.5" transform="rotate(-115 89.2929 173.878)" fill="#4877AF"/>
<circle cx="202.582" cy="121.051" r="1.5" transform="rotate(65 202.582 121.051)" fill="#4877AF"/>
<circle opacity="0.6" cx="197.144" cy="123.586" r="1.5" transform="rotate(65 197.144 123.586)" fill="#4877AF"/>
<circle opacity="0.3" cx="191.706" cy="126.122" r="1.5" transform="rotate(65 191.706 126.122)" fill="#4877AF"/>
</svg>
