<svg width="98" height="36" viewBox="0 0 98 36" fill="none" xmlns="http://www.w3.org/2000/svg">
<path d="M28.3234 11.9885L24.8296 7.28109C24.8029 7.24533 24.7684 7.2163 24.7288 7.19629C24.6891 7.17628 24.6454 7.16583 24.6011 7.16577H13.5091C11.9012 7.17709 10.8262 8.15997 10.8262 9.5657V12.4135H28.2934C28.3255 12.4135 28.357 12.4045 28.3843 12.3875C28.4116 12.3705 28.4337 12.3461 28.4481 12.3171C28.4624 12.288 28.4685 12.2556 28.4656 12.2233C28.4628 12.1909 28.451 12.1601 28.4318 12.1341L28.3234 11.9885Z" fill="white"/>
<path d="M88.2104 7.16578H80.6953V12.4135H84.5311C84.8513 12.4135 85.0068 12.3316 85.1865 12.0767L88.3154 7.49489L88.3524 7.44065C88.3707 7.41448 88.3815 7.38372 88.3836 7.35174C88.3857 7.31977 88.3791 7.28782 88.3644 7.25941C88.3497 7.231 88.3276 7.20723 88.3004 7.19071C88.2733 7.17419 88.2421 7.16556 88.2104 7.16578Z" fill="white"/>
<path d="M67.2294 14.1319V9.47158C67.2294 9.47158 67.2213 8.58033 66.5214 7.88418C66.0726 7.43658 65.3396 7.07166 64.1419 7.07166H49.9421C49.8855 7.07168 49.8302 7.08855 49.7831 7.12016C49.7359 7.15177 49.699 7.19671 49.677 7.24938C49.6695 7.26691 49.6639 7.28517 49.6603 7.30388C49.6563 7.32319 49.6543 7.34287 49.6543 7.3626V7.54453V7.77728V11.6103V11.8473V12.3212H61.2123C61.2312 12.3212 61.2499 12.3244 61.2678 12.3307C61.281 12.3351 61.2936 12.3412 61.3053 12.3489L61.3108 12.3526C61.3424 12.3747 61.3658 12.4068 61.3772 12.4439C61.3806 12.455 61.3829 12.4664 61.3842 12.4779C61.3842 12.4839 61.3842 12.4897 61.3842 12.4958V13.1445V16.046V16.4894C61.3842 16.5357 61.366 16.5801 61.3336 16.6129C61.3012 16.6456 61.2573 16.664 61.2115 16.664H55.4471C55.4013 16.664 55.3574 16.6456 55.325 16.6129C55.2926 16.5801 55.2744 16.5357 55.2744 16.4894V16.1814V14.3578V13.6493C55.2739 13.5726 55.2435 13.4993 55.1899 13.4451C55.1363 13.3909 55.0637 13.3602 54.9879 13.3597H49.6543V27.4957V28.1421V28.2311C49.6543 28.2508 49.6563 28.2705 49.6603 28.2898C49.6639 28.3085 49.6695 28.3267 49.677 28.3443C49.6991 28.3969 49.736 28.4418 49.7832 28.4734C49.8303 28.5049 49.8856 28.5219 49.9421 28.522H54.9868C55.0434 28.5218 55.0987 28.5049 55.1459 28.4733C55.193 28.4417 55.23 28.3969 55.2523 28.3443C55.2595 28.3267 55.265 28.3084 55.2689 28.2898C55.2728 28.2704 55.2747 28.2508 55.2747 28.2311V28.1421V27.3177V21.8077H64.3352C64.3573 21.8077 64.3792 21.8077 64.4013 21.8077C64.9525 21.8009 65.5154 21.5863 65.9921 21.2432C66.0301 21.2169 66.0679 21.1877 66.1049 21.1584C66.1419 21.1292 66.1781 21.0997 66.214 21.0692C66.2661 21.0234 66.3198 20.9757 66.3703 20.9267C66.8913 20.4204 67.2403 19.7511 67.2281 19.071L67.2294 14.1319Z" fill="white"/>
<path d="M47.5509 9.63618C47.5203 9.25599 47.4082 8.88708 47.2223 8.55514C47.0364 8.2232 46.7811 7.93621 46.4743 7.71414L46.4274 7.68043C46.404 7.66411 46.3803 7.64805 46.3563 7.63225L46.3394 7.62146C46.2841 7.58635 46.2276 7.55265 46.1698 7.52035C45.7278 7.28127 45.234 7.15695 44.7327 7.15859H32.6321C31.9434 7.16069 31.3159 7.38212 30.8275 7.76179C30.8038 7.77996 30.7804 7.79865 30.7575 7.81787C30.7241 7.8442 30.6916 7.87422 30.6598 7.90344C30.628 7.93267 30.6022 7.9561 30.5743 7.98533L30.5728 7.98665C30.1328 8.42722 29.8636 9.01249 29.8137 9.63645C29.8137 9.65304 29.8119 9.66962 29.8119 9.68647V9.68832V12.4142H42.2709C42.294 12.4142 42.3168 12.4189 42.3381 12.4279L42.3532 12.4353C42.3609 12.4395 42.3682 12.4444 42.3751 12.4497C42.3964 12.466 42.4137 12.487 42.4256 12.5111C42.4375 12.5352 42.4437 12.5618 42.4436 12.5888V23.2503C42.4437 23.2733 42.4392 23.296 42.4305 23.3172C42.4219 23.3384 42.4092 23.3576 42.3931 23.3739C42.3771 23.3901 42.358 23.4029 42.3371 23.4117C42.3161 23.4205 42.2936 23.4249 42.2709 23.4249H35.0791C35.0503 23.4249 35.022 23.4177 34.9968 23.4039L34.9918 23.4007C34.9791 23.3935 34.9673 23.3847 34.9569 23.3744C34.9247 23.3415 34.9065 23.2971 34.9064 23.2509V13.7436C34.9065 13.7017 34.8976 13.6603 34.8803 13.6222C34.8662 13.5909 34.8467 13.5624 34.8228 13.5379C34.8162 13.5314 34.8094 13.5251 34.8022 13.5193C34.7509 13.4763 34.6864 13.4528 34.6198 13.4526H29.801V25.655C29.7987 25.8566 29.8169 26.0578 29.8554 26.2556C29.8572 26.2656 29.8593 26.2756 29.8614 26.2856C29.8692 26.3235 29.8778 26.3612 29.8875 26.3983C29.8906 26.4107 29.8937 26.4246 29.8971 26.4357C29.9062 26.4699 29.9156 26.5041 29.926 26.5378C29.9304 26.5526 29.9351 26.5676 29.9398 26.5823C29.957 26.635 29.9755 26.6877 29.9958 26.7403C30.0298 26.8288 30.0682 26.9154 30.1109 26.9999C30.1211 27.0205 30.1318 27.0407 30.1425 27.061C30.1531 27.0813 30.1685 27.1081 30.1815 27.1316L30.2112 27.1824C30.265 27.2721 30.3235 27.3587 30.3865 27.442C30.4068 27.4683 30.4274 27.4947 30.4488 27.521C30.73 27.8662 31.0843 28.1432 31.4855 28.3316C31.8868 28.5199 32.3247 28.6149 32.7671 28.6094H44.5895C46.1784 28.6305 47.5722 27.3493 47.5542 25.654V16.6324V11.5898V9.68832C47.5529 9.67094 47.5524 9.65462 47.5509 9.63618Z" fill="white"/>
<path d="M79.6693 7.16577H68.8183C68.7709 7.16645 68.7242 7.17826 68.6821 7.20026V7.20026C68.6364 7.22511 68.5982 7.26205 68.5716 7.30712C68.5451 7.3522 68.5311 7.40372 68.5313 7.45619V12.1226C68.5313 12.1995 68.5614 12.2733 68.6151 12.3278C68.6688 12.3823 68.7417 12.4131 68.8178 12.4135H73.875C73.9118 12.4136 73.9476 12.4256 73.9772 12.4476C74.0069 12.4697 74.0288 12.5007 74.0399 12.5362C74.0433 12.5473 74.0456 12.5586 74.0469 12.5702C74.0469 12.5762 74.0469 12.582 74.0469 12.5881V27.5808V28.1617V28.3231C74.0469 28.3428 74.0489 28.3625 74.0529 28.3818C74.0565 28.4005 74.0621 28.4187 74.0696 28.4363C74.0917 28.4889 74.1286 28.5338 74.1758 28.5654C74.2229 28.597 74.2782 28.6139 74.3347 28.614H79.3802C79.4563 28.614 79.5293 28.5835 79.5833 28.5292C79.6372 28.475 79.6677 28.4013 79.668 28.3244V7.16577H79.6693Z" fill="white"/>
<path d="M28.4503 24.6044C28.4503 24.5433 28.4503 24.483 28.4482 24.4235C28.4454 24.3327 28.4396 24.2437 28.4318 24.1576C28.4277 24.1128 28.4224 24.068 28.417 24.0238C28.4157 24.0146 28.4146 24.0056 28.4136 23.9975C28.4079 23.9554 28.4019 23.9135 28.3948 23.8716C28.3933 23.8614 28.3912 23.8508 28.3896 23.8403C28.3831 23.8026 28.3761 23.7647 28.3685 23.7271C28.3667 23.7179 28.3646 23.7086 28.3628 23.6992C28.3552 23.6626 28.3469 23.626 28.3383 23.5894C28.3349 23.5759 28.3318 23.563 28.3284 23.5488C28.3201 23.5149 28.3115 23.4809 28.3024 23.4472C28.3024 23.444 28.3005 23.4409 28.2995 23.4375C28.2951 23.4209 28.2901 23.4045 28.2854 23.388C28.2776 23.3616 28.2698 23.3353 28.2617 23.309L28.2461 23.2589C28.2336 23.221 28.22 23.1831 28.2075 23.1455L28.1924 23.1044C28.182 23.0765 28.1716 23.0488 28.1609 23.0215L28.1422 22.9741C28.1291 22.9422 28.1161 22.9106 28.1023 22.8793C28.0971 22.8666 28.0916 22.8529 28.0862 22.8419C28.0711 22.8079 28.0554 22.7742 28.0395 22.7405L28.0195 22.6989C28.0052 22.6697 27.9906 22.6405 27.9755 22.6115C27.9702 22.601 27.965 22.5907 27.9596 22.5804C27.9398 22.5428 27.9192 22.5054 27.8984 22.4683L27.8796 22.4354C27.8627 22.4059 27.8455 22.3769 27.8275 22.3479L27.8085 22.3166C27.7856 22.2795 27.7624 22.2429 27.7384 22.2063L27.7244 22.1852C27.7038 22.1544 27.6829 22.1241 27.6616 22.0939L27.6405 22.0639C27.6146 22.0275 27.5886 21.9915 27.5623 21.9559C27.5347 21.9198 27.5069 21.8843 27.4792 21.8487L27.4256 21.7805C27.3764 21.7188 27.3266 21.6573 27.2761 21.5962C27.2333 21.5436 27.1901 21.4941 27.1458 21.4435C27.1081 21.3995 27.0701 21.3556 27.0317 21.3119C26.989 21.2633 26.9456 21.215 26.9015 21.1671C26.8405 21.0997 26.779 21.0326 26.7168 20.9659C26.675 20.9208 26.6328 20.876 26.5902 20.8314C26.5064 20.7436 26.4219 20.6558 26.3368 20.5681C26.2928 20.5223 26.2482 20.4764 26.2037 20.4306L25.9432 20.1615C25.8119 20.0262 25.6802 19.8889 25.548 19.7495C25.1313 19.3082 24.5171 18.6789 23.8315 17.9854C23.6413 17.7932 23.4457 17.596 23.2472 17.3967L23.0094 17.1579L22.8872 17.0352L22.6481 16.7956C21.1991 15.3451 19.7531 13.9165 19.34 13.5076C19.3185 13.4867 19.2947 13.4682 19.2692 13.4525C19.2059 13.4129 19.1329 13.3919 19.0584 13.3917H11.5149C11.5036 13.3917 11.4925 13.3951 11.483 13.4014C11.4735 13.4078 11.4661 13.4168 11.4617 13.4274C11.4573 13.438 11.4561 13.4496 11.4583 13.4609C11.4604 13.4722 11.4658 13.4825 11.4738 13.4907L12.0023 14.0344L12.1325 14.169L15.0171 17.135L20.7844 23.067C20.8083 23.0914 20.8246 23.1225 20.8311 23.1563C20.8377 23.19 20.8342 23.225 20.8211 23.2567C20.808 23.2885 20.7859 23.3156 20.7576 23.3347C20.7293 23.3538 20.696 23.364 20.662 23.364H9.28913C9.24335 23.3637 9.19817 23.3746 9.15738 23.3956C9.11659 23.4166 9.08138 23.4472 9.0547 23.4849C9.03633 23.5102 9.02224 23.5385 9.01302 23.5686C9.01016 23.5775 9.00781 23.587 9.00573 23.5965C9.00197 23.6157 9.00005 23.6353 9 23.6549V23.6549V27.8492V28.2613C8.99999 28.2712 9.00051 28.2811 9.00156 28.291C9.00772 28.3531 9.03368 28.4114 9.07554 28.4572C9.08159 28.4642 9.08812 28.4708 9.09508 28.4769C9.14786 28.5253 9.21654 28.5523 9.28783 28.5525H24.4478C25.5298 28.5525 26.585 28.1341 27.33 27.3413C28.1875 26.429 28.4404 25.4395 28.448 24.6031L28.4503 24.6044Z" fill="white"/>
</svg>
