<svg width="475" height="250" viewBox="0 0 475 250" fill="none" xmlns="http://www.w3.org/2000/svg">
<g clip-path="url(#clip0_896_12538)">
<ellipse cx="418.973" cy="65.5" rx="4.49448" ry="4.5" fill="#FCFCFC"/>
<ellipse cx="407.487" cy="53" rx="2.99632" ry="3" fill="#8040FF"/>
<rect width="4.89289" height="29.4552" transform="matrix(0.994683 0.102983 -0.0994406 0.995043 129.76 14.8652)" fill="#8040FF"/>
<rect width="4.9167" height="18.3305" transform="matrix(0.386684 0.922212 -0.917199 0.398429 158.936 35.1621)" fill="#8040FF"/>
<rect width="5.18188" height="34.9996" transform="matrix(0.815082 0.579346 -0.565734 0.824588 157.565 4)" fill="#FCFCFC"/>
<rect width="4.80023" height="13.7012" transform="matrix(-0.459298 0.888462 -0.879171 -0.476167 389.428 195.005)" fill="#8040FF"/>
<rect width="5.13596" height="29.7142" transform="matrix(-0.0785125 0.996985 -0.996139 -0.0869383 413.031 182.19)" fill="#FCFCFC"/>
<circle r="4.49724" transform="matrix(-0.706673 -0.707541 0.706673 -0.707541 30.314 152.363)" fill="#FCFCFC"/>
<circle r="5.99632" transform="matrix(-0.706673 -0.707541 0.706673 -0.707541 12.9922 138.557)" fill="#8040FF"/>
<path d="M123.844 121.035C125.048 118.949 125.672 116.578 125.651 114.169C125.631 111.76 124.967 109.399 123.728 107.333C123.502 106.96 123.353 106.545 123.291 106.113C123.229 105.682 123.255 105.242 123.367 104.82C123.48 104.399 123.676 104.005 123.945 103.662C124.214 103.318 124.549 103.033 124.931 102.823C127.041 101.651 128.798 99.9341 130.018 97.8506C131.239 95.767 131.879 93.3936 131.87 90.9777C131.862 88.5618 131.207 86.192 129.972 84.1154C128.737 82.0389 126.969 80.3315 124.851 79.1715C124.481 78.9639 124.156 78.6841 123.896 78.3489C123.636 78.0136 123.445 77.6296 123.336 77.2195C123.226 76.8094 123.2 76.3816 123.258 75.9612C123.317 75.5408 123.458 75.1365 123.675 74.7719C124.927 72.7085 125.603 70.3466 125.633 67.9322C125.663 65.5178 125.046 63.1391 123.846 61.0437C122.646 58.9484 120.907 57.2131 118.81 56.0184C116.713 54.8238 114.334 54.2135 111.922 54.2511C111.487 54.2613 111.054 54.1829 110.649 54.0207C110.245 53.8586 109.878 53.616 109.57 53.3077C109.262 52.9994 109.019 52.6318 108.857 52.2271C108.695 51.8224 108.617 51.3891 108.627 50.9533C108.665 48.5445 108.06 46.1688 106.873 44.0724C105.686 41.9759 103.96 40.235 101.876 39.0298C99.7909 37.8247 97.4224 37.1992 95.0155 37.2182C92.6086 37.2371 90.251 37.8999 88.1867 39.1377C87.8149 39.3644 87.4009 39.5131 86.9698 39.5749C86.5388 39.6368 86.0996 39.6104 85.6789 39.4975C85.2582 39.3845 84.8648 39.1873 84.5223 38.9178C84.1799 38.6483 83.8956 38.3121 83.6867 37.9295C82.5142 35.8171 80.7972 34.0578 78.7147 32.835C76.6322 31.6122 74.2605 30.9707 71.8467 30.9773C69.4329 30.9839 67.0655 31.6384 64.991 32.8726C62.9166 34.1067 61.2112 35.8754 60.0526 37.9942C59.8458 38.3646 59.5669 38.6898 59.2325 38.9506C58.898 39.2113 58.5148 39.4023 58.1053 39.5124C57.6958 39.6224 57.2683 39.6492 56.8482 39.5911C56.4281 39.5331 56.0238 39.3915 55.6592 39.1745C53.5969 37.9181 51.2359 37.2384 48.8224 37.2061C46.4089 37.1739 44.0314 37.7903 41.9377 38.9912C39.8439 40.192 38.1108 41.9333 36.9189 44.0335C35.727 46.1336 35.12 48.5156 35.1613 50.9312C35.1707 51.3673 35.0918 51.8007 34.9293 52.2053C34.7668 52.61 34.5241 52.9775 34.2158 53.2856C33.9075 53.5938 33.5401 53.8362 33.1356 53.9984C32.7311 54.1605 32.298 54.239 31.8623 54.229C29.4559 54.1885 27.0828 54.7928 24.9889 55.9794C22.8951 57.166 21.1567 58.8916 19.9539 60.9775C18.7511 63.0633 18.1277 65.4335 18.1483 67.8423C18.1688 70.2512 18.8327 72.611 20.0709 74.6773C20.2974 75.0501 20.4461 75.4649 20.5081 75.8967C20.5701 76.3285 20.5441 76.7683 20.4317 77.1897C20.3193 77.6111 20.1228 78.0053 19.854 78.3485C19.5853 78.6917 19.2498 78.9769 18.8679 79.1868C16.7581 80.3593 15.0014 82.0768 13.7808 84.1605C12.5603 86.2442 11.9207 88.6178 11.9286 91.0337C11.9366 93.4497 12.5917 95.8197 13.8259 97.8967C15.0601 99.9736 16.8281 101.682 18.9456 102.842C19.3161 103.049 19.6414 103.328 19.9023 103.663C20.1631 103.998 20.3541 104.381 20.4639 104.791C20.5738 105.201 20.6003 105.629 20.5418 106.049C20.4833 106.47 20.3411 106.874 20.1235 107.238C18.8702 109.302 18.1931 111.665 18.1628 114.081C18.1325 116.497 18.7501 118.877 19.9513 120.973C21.1525 123.069 22.8932 124.805 24.9921 126C27.091 127.194 29.4712 127.803 31.8847 127.763C32.32 127.753 32.753 127.832 33.1573 127.994C33.5617 128.156 33.929 128.399 34.237 128.707C34.5451 129.015 34.7874 129.383 34.9495 129.787C35.1115 130.192 35.1898 130.626 35.1797 131.061C35.1412 133.47 35.7468 135.846 36.9338 137.942C38.1208 140.039 39.8461 141.78 41.9309 142.985C44.0157 144.19 46.3842 144.815 48.7911 144.796C51.1979 144.777 53.5556 144.115 55.6198 142.877C55.9917 142.65 56.4057 142.501 56.8368 142.44C57.2678 142.378 57.707 142.404 58.1277 142.517C58.5484 142.63 58.9418 142.827 59.2842 143.097C59.6267 143.366 59.9109 143.703 60.1199 144.085C61.2932 146.195 63.01 147.952 65.0915 149.173C67.173 150.394 69.5431 151.035 71.9551 151.028C74.3671 151.021 76.733 150.368 78.8063 149.135C80.8797 147.903 82.5848 146.136 83.7442 144.02C83.9504 143.649 84.2289 143.324 84.5633 143.063C84.8976 142.802 85.2809 142.611 85.6904 142.501C86.1 142.391 86.5274 142.365 86.9474 142.424C87.3674 142.483 87.7713 142.625 88.1353 142.843C90.1982 144.099 92.5595 144.778 94.9731 144.81C97.3867 144.841 99.7642 144.224 101.858 143.023C103.952 141.822 105.685 140.081 106.877 137.981C108.069 135.881 108.676 133.498 108.635 131.083C108.626 130.647 108.705 130.213 108.867 129.809C109.03 129.404 109.273 129.037 109.581 128.728C109.889 128.42 110.257 128.178 110.661 128.016C111.066 127.854 111.499 127.775 111.934 127.785C114.341 127.826 116.715 127.222 118.809 126.035C120.904 124.848 122.642 123.122 123.844 121.035Z" fill="#8040FF"/>
<path d="M102.513 124.403L101.513 124.42C101.544 126.254 101.083 128.062 100.178 129.657C99.273 131.251 97.957 132.574 96.3674 133.485C94.7777 134.397 92.9725 134.866 91.1399 134.842C89.3074 134.818 87.5145 134.302 85.9483 133.349L85.9421 133.345C85.5239 133.095 85.0597 132.931 84.5772 132.863C84.0946 132.796 83.6035 132.826 83.1329 132.952C82.6623 133.078 82.2219 133.298 81.8377 133.597C81.4536 133.897 81.1335 134.271 80.8966 134.697L80.8935 134.703C80.0132 136.31 78.7186 137.651 77.1443 138.587C75.5701 139.522 73.7738 140.019 71.9425 140.024C70.1111 140.029 68.3115 139.542 66.7311 138.615C65.1517 137.689 63.8489 136.356 62.958 134.755C62.7193 134.319 62.3949 133.936 62.0043 133.628C61.6126 133.32 61.1625 133.095 60.6814 132.965C60.2002 132.836 59.6978 132.806 59.2048 132.877C58.7129 132.947 58.2405 133.117 57.8159 133.375C56.2493 134.314 54.4603 134.816 52.634 134.831C50.8065 134.845 49.0081 134.37 47.4251 133.455C45.8421 132.54 44.5322 131.218 43.6309 129.626C42.7301 128.036 42.2703 126.233 42.299 124.405C42.31 123.908 42.2204 123.414 42.0355 122.952C41.8501 122.489 41.5729 122.069 41.2206 121.716C40.8682 121.363 40.4481 121.086 39.9856 120.9C39.5241 120.715 39.03 120.626 38.5332 120.637C36.702 120.666 34.8961 120.204 33.3036 119.297C31.7099 118.391 30.3882 117.073 29.4762 115.481C28.5642 113.889 28.0953 112.082 28.1183 110.248C28.1412 108.414 28.6554 106.62 29.607 105.053L29.6107 105.046C29.8607 104.628 30.0241 104.164 30.0913 103.681C30.1585 103.198 30.1281 102.706 30.0018 102.235C29.8756 101.764 29.6561 101.323 29.3565 100.938C29.0568 100.554 28.683 100.233 28.2573 99.9956L28.251 99.9921C26.6432 99.1107 25.3008 97.8139 24.3638 96.2369C23.4267 94.66 22.9292 92.8605 22.9232 91.0262C22.9172 89.1918 23.4028 87.3897 24.3295 85.8076C25.2558 84.2262 26.589 82.9225 28.19 82.0323C28.6257 81.7925 29.0083 81.4669 29.315 81.0753C29.6222 80.683 29.8468 80.2324 29.9753 79.7508C30.1038 79.2692 30.1335 78.7665 30.0626 78.2729C29.9919 77.7804 29.8225 77.3072 29.5645 76.8818C28.6253 75.3135 28.1218 73.5227 28.1062 71.6947C28.0906 69.8658 28.5639 68.0662 29.4772 66.4825C30.3904 64.8988 31.7103 63.5886 33.3001 62.6876C34.889 61.7872 36.6897 61.3284 38.5158 61.3586C39.0128 61.3695 39.5068 61.2798 39.9682 61.0949C40.4305 60.9096 40.8505 60.6324 41.2028 60.2802C41.5552 59.928 41.8326 59.508 42.0183 59.0455C42.2037 58.5838 42.294 58.0893 42.2836 57.5917C42.2526 55.7583 42.7134 53.9505 43.618 52.3565C44.523 50.762 45.8389 49.44 47.4285 48.5282C49.0181 47.6165 50.8233 47.1485 52.6557 47.1729C54.4881 47.1974 56.2807 47.7135 57.8465 48.6674L57.8465 48.6675L57.8554 48.6728C58.274 48.9219 58.7382 49.0845 59.2206 49.1512C59.7029 49.2178 60.1936 49.187 60.6638 49.0607C61.134 48.9344 61.5741 48.7151 61.958 48.4157C62.342 48.1163 62.6622 47.7429 62.8996 47.3176L62.8996 47.3176L62.9038 47.31C63.7835 45.7013 65.0784 44.3584 66.6534 43.4214C68.2284 42.4843 70.026 41.9874 71.8587 41.9824C73.6914 41.9774 75.4921 42.4644 77.0733 43.3929C78.6535 44.3207 79.9566 45.6555 80.8468 47.2581C81.0856 47.6944 81.4101 48.0778 81.8008 48.3853C82.1925 48.6936 82.6426 48.9192 83.1238 49.0483C83.605 49.1775 84.1073 49.2077 84.6003 49.1369C85.092 49.0664 85.5643 48.897 85.9888 48.6389C87.5555 47.7001 89.3447 47.1974 91.1711 47.1831C92.9986 47.1687 94.797 47.6436 96.38 48.5586C97.963 49.4737 99.273 50.7956 100.174 52.3874C101.075 53.9783 101.535 55.781 101.506 57.6089C101.495 58.106 101.585 58.6002 101.77 59.0618C101.955 59.5247 102.232 59.9452 102.585 60.2978C102.937 60.6505 103.357 60.9279 103.82 61.1134C104.281 61.2984 104.774 61.388 105.271 61.377C107.101 61.3491 108.906 61.8125 110.497 62.719C112.089 63.626 113.41 64.9436 114.321 66.5345C115.232 68.1254 115.701 69.9315 115.678 71.7647C115.655 73.5979 115.142 75.3912 114.192 76.9578L114.187 76.9649C113.938 77.3834 113.775 77.8477 113.708 78.3304C113.641 78.813 113.672 79.3043 113.797 79.7751C113.923 80.246 114.142 80.6868 114.441 81.0718C114.74 81.4567 115.112 81.7778 115.537 82.0163L115.546 82.0213C117.154 82.9021 118.497 84.1983 119.434 85.775C120.372 87.3516 120.869 89.1509 120.876 90.9851C120.882 92.8193 120.396 94.6213 119.47 96.2032C118.543 97.7848 117.21 99.0884 115.608 99.9782C115.173 100.218 114.79 100.543 114.484 100.935C114.177 101.327 113.952 101.778 113.823 102.259C113.695 102.741 113.665 103.244 113.736 103.737C113.807 104.229 113.976 104.702 114.234 105.127C115.174 106.696 115.678 108.488 115.693 110.316C115.709 112.145 115.235 113.945 114.321 115.529L114.32 115.53C113.408 117.114 112.088 118.425 110.498 119.326C108.909 120.227 107.107 120.686 105.281 120.655C104.784 120.644 104.29 120.734 103.829 120.918C103.366 121.104 102.946 121.381 102.594 121.733C102.242 122.085 101.964 122.505 101.779 122.968C101.593 123.43 101.503 123.926 101.513 124.424L102.513 124.403ZM102.513 124.403C102.505 124.04 102.571 123.679 102.706 123.341C102.841 123.004 103.044 122.698 103.301 122.441C103.557 122.184 103.864 121.982 104.201 121.847C104.538 121.712 104.899 121.647 105.262 121.655L41.2996 124.385C41.2675 126.393 41.7721 128.372 42.7613 130.119C43.7505 131.866 45.1882 133.317 46.9256 134.321C48.6629 135.326 50.6367 135.847 52.6424 135.831C54.6481 135.815 56.6128 135.263 58.333 134.232C58.6429 134.043 58.9879 133.919 59.3471 133.867C59.7063 133.816 60.0723 133.838 60.4229 133.932C60.7735 134.026 61.1013 134.19 61.3867 134.415C61.6721 134.639 61.9089 134.92 62.083 135.238C63.0608 136.997 64.4915 138.461 66.226 139.478C67.9606 140.496 69.9357 141.03 71.9457 141.024C73.9558 141.019 75.9273 140.474 77.6551 139.447C79.3829 138.42 80.8038 136.948 81.77 135.184C81.9418 134.875 82.1739 134.604 82.4525 134.386C82.7311 134.169 83.0506 134.01 83.3918 133.918C83.7331 133.827 84.0893 133.805 84.4393 133.854C84.7893 133.903 85.1259 134.022 85.4292 134.204C87.1483 135.25 89.116 135.816 91.1274 135.842C93.1387 135.869 95.12 135.354 96.8647 134.354C98.6095 133.353 100.054 131.901 101.047 130.151C102.041 128.401 102.547 126.416 102.513 124.403Z" stroke="#FCFCFC" stroke-width="2"/>
<path d="M72.081 69.4596L69.3937 67.9061L71.3998 64.4271L74.0871 65.9806C75.0429 66.5331 75.3711 67.7577 74.8196 68.7141C74.2761 69.6566 73.0368 70.0121 72.081 69.4596ZM64.7741 72.0737L66.4364 73.0346L68.4266 69.5833L71.0862 71.1207C72.9839 72.2177 75.389 71.5381 76.468 69.6669C77.563 67.768 76.9403 65.3567 75.0425 64.2597L70.7207 61.7614L64.7741 72.0737ZM77.6781 77.5555C76.3622 76.7948 76.2445 75.5255 76.9399 74.3197C77.6352 73.1138 78.7999 72.5673 80.1159 73.328C81.1409 73.9206 81.5516 75.3223 80.8462 76.5777C80.121 77.8033 78.7032 78.1481 77.6781 77.5555ZM75.2776 73.3588C74.1347 75.3409 74.4121 77.7744 76.6284 79.0556C77.418 79.512 78.4293 79.616 79.4666 79.1623L78.8672 80.2018L80.5294 81.1627L84.7416 73.8582L83.0793 72.8973L82.3999 74.0754C82.2657 72.9629 81.6701 72.1381 80.8805 71.6817C78.6642 70.4005 76.4285 71.3628 75.2776 73.3588ZM87.4142 77.1218L88.1735 75.8051L86.5251 74.8522L82.297 82.1845L83.9454 83.1373L86.0714 79.4504C86.6229 78.494 88.1926 77.8859 89.5085 78.6466L90.4197 77.0665C89.7825 76.6982 88.4345 76.4734 87.4142 77.1218ZM92.1769 87.7293L92.8195 85.8461C92.5382 85.7574 91.9937 85.5166 91.6554 85.3026C91.3033 85.0805 91.1658 84.7423 91.4216 84.2988L93.3878 80.8891L95.3132 82.0021L96.2404 80.3943L94.3149 79.2812L95.8095 76.6893L94.0919 75.6964L92.5973 78.2883L91.3367 77.5597L90.4096 79.1675L91.6701 79.8962L89.7039 83.3059C88.9446 84.6226 89.5109 86.2991 90.6089 86.9893C91.0858 87.2834 91.8125 87.5926 92.1769 87.7293ZM55.4337 85.414C55.9345 85.6665 56.65 85.8029 57.1775 85.8491C58.0758 85.9248 58.8723 85.6645 59.4989 85.2505C60.7483 84.3649 61.01 82.9823 60.7479 82.0915C60.5524 81.4056 60.1214 80.5836 58.6404 78.9882L58.0677 78.3799C57.7459 78.0091 57.586 77.8058 57.4523 77.5252C57.3106 77.2585 57.2659 77.0478 57.2291 76.8233C57.1993 76.3625 57.3597 75.9563 57.7337 75.692C58.3326 75.262 58.9469 75.4138 59.4994 75.6408C60.1744 75.9755 60.8884 76.4991 61.3566 77.4166C61.4925 77.6615 61.5729 77.8743 61.6198 78.0492L63.4899 77.6888C63.4063 77.2893 63.2491 76.9212 63.0169 76.4913C62.3222 75.1657 61.1394 74.3341 60.2465 73.9288C59.2981 73.4915 57.7994 73.272 56.5857 74.1597C55.6127 74.854 55.2205 76.1427 55.3494 77.1043C55.3686 77.2632 55.4757 77.7502 55.7292 78.3034C55.9455 78.761 56.263 79.2033 56.7074 79.6819L57.2859 80.3121C58.4905 81.6183 58.8475 82.1203 58.9252 82.4979C59.0126 82.955 58.8101 83.4663 58.3567 83.7401C58.0524 83.9154 57.7328 83.9893 57.3044 83.9635C56.8979 83.9318 56.4978 83.7929 56.2463 83.6845C55.3651 83.3229 54.8829 82.8779 54.3811 81.9225C54.0092 81.1901 54.0178 80.5667 54.0924 80.2771L52.2212 79.9347C52.128 80.4168 52.0773 81.6257 52.7208 82.8478C53.3782 84.078 54.2317 84.904 55.4337 85.414ZM64.8332 90.4039L65.4758 88.5207C65.1945 88.432 64.65 88.1912 64.3117 87.9772C63.9595 87.7551 63.8221 87.4169 64.0779 86.9734L66.0441 83.5637L67.9695 84.6767L68.8967 83.0689L66.9712 81.9558L68.4658 79.3639L66.7482 78.371L65.2535 80.9629L63.993 80.2342L63.0658 81.8421L64.3264 82.5707L62.3602 85.9805C61.6009 87.2972 62.1672 88.9737 63.2652 89.6639C63.742 89.958 64.4688 90.2672 64.8332 90.4039ZM69.441 88.7615L71.7189 84.8112L70.0705 83.8583L67.7686 87.8502C66.4259 90.1787 67.396 92.0517 69.0859 93.0286C69.7647 93.4209 70.7578 93.5884 71.6028 93.1159L71.0114 94.1416L72.6598 95.0945L76.8879 87.7622L75.2395 86.8093L72.9776 90.7319C72.4239 91.724 71.2342 92.0897 70.1953 91.4891C68.9902 90.7925 68.8735 89.7456 69.441 88.7615ZM78.5139 96.3532C77.2533 95.6245 77.1751 94.415 77.8385 93.2645C78.4859 92.1418 79.5792 91.5911 80.8397 92.3197C81.8371 92.8963 82.2164 94.2244 81.537 95.4025C80.8416 96.6084 79.5112 96.9297 78.5139 96.3532ZM76.1762 92.3037C75.0572 94.2442 75.3113 96.5902 77.4583 97.8314C78.0678 98.1837 79.1457 98.4925 80.2113 97.9258L79.6278 98.9376L81.3039 99.9065L87.3304 89.4555L85.6543 88.4867L83.0487 93.0052C82.9581 91.881 82.2554 91.0497 81.5905 90.6654C79.4434 89.4243 77.2792 90.3909 76.1762 92.3037ZM84.0185 105.837L87.923 102.846L94.4659 97.9049L92.6097 96.8319L88.003 100.305L88.6896 94.5658L86.8057 93.4768L85.9315 101.879L82.1623 104.764L84.0185 105.837Z" fill="#FCFCFC"/>
<path d="M40.5145 88.4976L39.878 89.6013L40.7559 90.1087L38.1194 94.681L36.9826 94.0239L36.473 95.2459C38.195 96.2414 40.5218 97.5413 42.7667 98.3585L43.2724 97.2994C42.8637 97.1232 42.4326 96.9341 42.0079 96.7336L44.5601 92.3078L45.4492 92.8217L46.0856 91.7181L40.5145 88.4976ZM39.4942 95.4457L42.1178 90.896L43.2095 91.5271L40.6119 96.0318L39.4942 95.4457ZM41.5891 101.312L42.9959 102.125L45.9377 97.0232L47.4121 97.8755L48.0745 96.7268L46.6001 95.8745L48.8146 92.0343L47.4077 91.221L41.5891 101.312ZM51.0761 94.3326L47.8616 99.9072L54.9409 103.999L55.5838 102.885L49.9226 99.612L50.5915 98.4521L55.9376 101.542L56.561 100.461L51.2149 97.3709L51.8578 96.256L57.4403 99.483L58.0767 98.3793L51.0761 94.3326ZM45.2988 101.879L54.4265 107.156L55.0759 106.03L45.9482 100.753L45.2988 101.879ZM65.6303 102.521L65.2082 103.253C64.3575 104.728 62.1073 105.559 59.6693 104.661L59.5969 106.165C61.5315 106.818 63.3973 106.575 64.8016 105.675C64.7076 107.348 65.4369 109.076 66.9689 110.427L68.2455 109.618C66.2266 107.941 65.8237 105.62 66.6939 104.111L67.116 103.379L65.6303 102.521ZM57.0998 108.596L66.2276 113.872L66.8834 112.735L57.7557 107.459L57.0998 108.596ZM78.7491 109.308L76.6775 112.901L74.9105 111.879L74.2611 113.005L76.0281 114.027L72.911 119.432L74.2953 120.233L80.1334 110.108L78.7491 109.308ZM67.6226 113.327L68.433 113.796C70.155 114.791 71.4753 115.494 73.0748 116.104L73.5761 114.922C72.2099 114.402 71.0762 113.792 69.6629 112.99L70.7798 111.053L73.7174 112.751L74.3473 111.659L71.4098 109.961L72.3774 108.283L75.6638 110.182L76.3132 109.056L71.6424 106.356L67.6226 113.327ZM88.1407 114.752L82.3025 124.876L83.6981 125.683L89.5363 115.559L88.1407 114.752ZM77.3623 118.792L78.2176 119.287C80.3673 120.529 81.6699 121.237 83.2166 121.756L83.7551 120.536C82.3517 120.055 81.2003 119.449 79.4042 118.426L82.0018 113.921L85.4796 115.932L86.129 114.805L81.2782 112.001L77.3623 118.792Z" fill="#FCFCFC"/>
<circle r="59" transform="matrix(0.813182 -0.58201 0.581065 0.813857 151.559 189.695)" fill="#181818" stroke="#FCFCFC" stroke-width="2" stroke-dasharray="6 6"/>
<path d="M132.464 173.17L130.941 174.259L129.627 176.164L131.172 177.281L132.141 175.939L137.654 183.661L139.176 182.571L132.464 173.17ZM142.023 178.606L140.422 179.751L142.207 183.353L143.352 182.533L142.023 178.606ZM143.956 176.612L145.071 178.175L151.134 173.835L150.019 172.273L146.363 174.89C147.057 172.366 147.89 169.566 146.514 167.639C145.221 165.829 142.712 165.756 141.255 166.799C140.409 167.404 139.184 168.91 139.623 171.095L141.519 170.722C141.27 169.464 141.811 168.762 142.37 168.362C143.177 167.784 144.274 167.806 144.952 168.756C146.059 170.306 144.554 173.43 143.969 176.603L143.956 176.612ZM135.264 190.625L128.641 195.365L135.558 205.053L142.181 200.313L141.074 198.763L136 202.395L134.103 199.739L138.761 196.405L137.655 194.855L132.997 198.189L131.286 195.793L136.361 192.161L135.264 190.625ZM145.372 187.64L143.668 188.86L145.217 195.05L139.869 191.579L138.164 192.799L145.952 197.594L147.318 196.616L145.372 187.64ZM152.773 186.652L149.182 189.222C148.6 188.104 149.033 187.085 149.996 186.396C151.024 185.661 152.059 185.844 152.773 186.652ZM148.144 190.851C149.482 192.726 151.814 193.458 153.934 191.94C156.224 190.301 155.761 188.33 155.761 188.33L153.958 188.696C153.958 188.696 154.241 189.615 152.953 190.537C151.886 191.301 150.884 191.192 150.084 190.485L155.145 186.862C155.145 186.862 154.353 185.56 153.184 184.803C153.08 184.74 151.165 183.435 148.979 184.999C146.858 186.517 146.796 188.963 148.144 190.851ZM160.574 181.521L163.223 185.233L164.772 184.124L162.094 180.374C160.532 178.187 158.584 178.184 156.841 179.432C156.151 179.925 155.632 180.769 155.72 181.69L155.032 180.726L153.484 181.834L158.383 188.697L159.932 187.589L157.319 183.929C156.633 183.024 156.835 181.738 157.772 181.067C158.904 180.257 159.904 180.584 160.574 181.521ZM170.445 179.887L168.999 178.521C168.802 178.741 168.358 179.138 168.023 179.357C167.676 179.587 167.311 179.572 167.014 179.155L164.727 175.952L166.535 174.657L165.457 173.147L163.648 174.441L161.91 172.006L160.296 173.161L162.035 175.596L160.851 176.443L161.929 177.954L163.113 177.107L165.4 180.31C166.284 181.547 168.042 181.725 169.124 181.009C169.589 180.697 170.17 180.162 170.445 179.887Z" fill="#FCFCFC"/>
<path d="M141.382 213.72L140.145 214.606L139.078 216.153L140.333 217.061L141.12 215.971L145.599 222.245L146.836 221.359L141.382 213.72ZM148.832 218.364L147.531 219.295L148.982 222.221L149.912 221.556L148.832 218.364ZM150.085 216.972L150.992 218.241L155.918 214.715L155.011 213.446L152.041 215.572C152.605 213.521 153.282 211.247 152.164 209.681C151.114 208.21 149.075 208.151 147.891 208.998C147.203 209.49 146.208 210.714 146.565 212.489L148.106 212.186C147.903 211.164 148.342 210.593 148.797 210.268C149.452 209.799 150.344 209.817 150.895 210.589C151.794 211.848 150.571 214.386 150.096 216.964L150.085 216.972ZM151.579 207.334L152.311 208.36L154.267 206.96L154.539 207.341C155.566 208.78 155.975 210.918 154.958 212.716L156.377 213.204C157.105 211.964 157.15 210.461 156.728 209.02C157.893 209.801 159.232 210.201 160.569 209.948L160.557 208.454C158.581 208.797 156.803 207.783 155.829 206.418L155.557 206.037L157.47 204.668L156.737 203.642L154.824 205.011L153.857 203.657L152.557 204.587L153.524 205.942L151.579 207.334ZM163.178 211.006L164.488 210.068L161.135 205.37L162.541 204.364L161.77 203.285L160.364 204.291L157.72 200.588L156.409 201.526L163.178 211.006ZM168.18 193.102L169.865 195.461L169.114 195.998L167.558 193.819L166.332 194.696L170.215 200.135L171.441 199.257L169.87 197.056L170.62 196.519L172.426 199.048L173.663 198.162L169.417 192.216L168.18 193.102ZM162.737 200.019L167.356 196.713L166.631 195.697L164.972 196.885L164.337 195.996L163.047 196.919L163.682 197.808L162.012 199.004L162.737 200.019ZM164.427 201.783C165.13 202.767 166.462 202.82 167.635 201.981C168.83 201.126 169.21 199.846 168.508 198.862C167.813 197.889 166.473 197.825 165.279 198.68C164.105 199.519 163.732 200.809 164.427 201.783ZM165.579 200.958C165.255 200.503 165.443 199.984 165.951 199.621C166.469 199.251 167.02 199.24 167.345 199.695C167.67 200.15 167.489 200.679 166.971 201.05C166.463 201.413 165.904 201.413 165.579 200.958ZM168.513 204.598C169.291 205.687 170.963 205.434 172.993 203.981C175.023 202.528 175.793 201.034 175.015 199.944C174.229 198.844 172.568 199.09 170.538 200.543C168.508 201.995 167.728 203.497 168.513 204.598ZM169.824 203.659C169.454 203.141 169.961 202.442 171.241 201.527C172.52 200.611 173.334 200.364 173.704 200.883C174.059 201.38 173.57 202.082 172.291 202.997C171.011 203.913 170.179 204.157 169.824 203.659ZM172.97 190.793L173.967 192.189C175.228 193.956 175.756 196.328 174.71 198.196L176.258 198.687C176.948 197.394 176.952 195.856 176.488 194.334C177.695 195.196 179.054 195.646 180.411 195.443L180.463 193.839C178.423 194.18 176.483 192.962 175.267 191.259L174.27 189.862L172.97 190.793ZM183.142 196.717L184.453 195.779L181.076 191.05L182.482 190.044L181.704 188.954L180.298 189.96L177.684 186.299L176.374 187.238L183.142 196.717Z" fill="#FCFCFC"/>
<ellipse rx="95" ry="52.5" transform="matrix(0.955867 -0.2938 0.293142 0.956069 190.617 101.562)" fill="#FCFCFC"/>
<path d="M275.689 75.4138C279.372 87.4241 273.537 101.365 260.589 114.268C247.677 127.135 227.881 138.755 204.248 146.019C180.616 153.283 157.717 154.786 139.819 151.389C121.87 147.982 109.228 139.721 105.545 127.71C101.863 115.7 107.698 101.759 120.646 88.8557C133.557 75.9887 153.354 64.3685 176.986 57.1048C200.619 49.841 223.517 48.3381 241.415 51.7353C259.364 55.142 272.007 63.4034 275.689 75.4138Z" stroke="#8040FF" stroke-width="2"/>
<path d="M145.096 90.2068L143.246 90.7756L144.667 95.4106L139.146 97.1076L137.724 92.4726L135.889 93.0367L139.379 104.418L141.214 103.854L139.699 98.9127L145.22 97.2157L146.735 102.157L148.586 101.588L145.096 90.2068ZM153.762 98.1556C152.385 98.5787 151.204 97.837 150.791 96.4908C150.383 95.16 150.946 93.8824 152.322 93.4594C153.698 93.0363 154.88 93.778 155.288 95.1088C155.701 96.455 155.138 97.7325 153.762 98.1556ZM149.109 97.0079C149.784 99.2107 151.921 100.613 154.292 99.8842C156.77 99.1226 157.646 96.7945 156.97 94.5917C156.295 92.3889 154.265 90.954 151.787 91.7155C149.417 92.4441 148.434 94.8052 149.109 97.0079ZM168.853 90.4539L170.223 94.9207L172.043 94.3613L170.659 89.8486C169.941 87.5082 168.011 86.7792 166.191 87.3386C164.891 87.7381 164.35 88.758 164.04 89.6568C163.214 88.8729 162.352 88.5185 161.083 88.9086C160.226 89.1719 159.602 89.8658 159.479 90.7741L159.095 89.5197L157.275 90.0791L159.746 98.1407L161.566 97.5813L160.211 93.1604C159.892 92.1202 160.453 91.1109 161.431 90.8101C162.578 90.4575 163.351 91.1743 163.623 92.0616L164.992 96.5283L166.797 95.9736L165.427 91.5069C165.061 90.3137 165.633 89.5021 166.627 89.1965C167.56 88.9098 168.581 89.5667 168.853 90.4539ZM178.101 87.3435L173.88 88.6409C173.683 87.396 174.416 86.568 175.548 86.2201C176.756 85.8487 177.68 86.3515 178.101 87.3435ZM172.378 89.8557C173.054 92.0585 175.033 93.4923 177.526 92.7261C180.218 91.8987 180.403 89.8833 180.403 89.8833L178.577 89.6579C178.577 89.6579 178.554 90.6192 177.039 91.0846C175.785 91.47 174.87 91.0485 174.335 90.1247L180.285 88.2961C180.285 88.2961 179.946 86.81 179.077 85.7213C178.998 85.6283 177.595 83.783 175.026 84.5727C172.533 85.3389 171.698 87.6377 172.378 89.8557ZM185.83 88.2153C184.255 88.6995 183.177 87.859 182.76 86.4976C182.342 85.1361 182.763 83.835 184.339 83.3508C184.981 83.1534 185.631 83.2548 186.191 83.5515L187.132 81.8728C186.148 81.3383 184.978 81.1791 183.846 81.5269C181.246 82.3261 180.318 84.7036 181.031 87.0287C181.744 89.3539 183.845 90.8007 186.445 90.0015C187.576 89.6537 188.456 88.8645 188.971 87.8693L187.251 87.0086C186.954 87.5686 186.472 88.0178 185.83 88.2153ZM193.505 85.9399C192.129 86.363 190.947 85.6213 190.535 84.2752C190.127 82.9443 190.689 81.6668 192.065 81.2437C193.442 80.8206 194.623 81.5623 195.031 82.8932C195.444 84.2393 194.882 85.5169 193.505 85.9399ZM188.852 84.7923C189.528 86.9951 191.665 88.3971 194.035 87.6685C196.513 86.907 197.389 84.5789 196.713 82.3761C196.038 80.1733 194.008 78.7383 191.53 79.4998C189.16 80.2285 188.177 82.5895 188.852 84.7923ZM208.596 78.2382L209.966 82.705L211.786 82.1456L210.402 77.633C209.685 75.2925 207.754 74.5635 205.934 75.1229C204.634 75.5225 204.093 76.5424 203.783 77.4412C202.957 76.6573 202.095 76.3028 200.826 76.693C199.969 76.9562 199.345 77.6502 199.222 78.5584L198.838 77.3041L197.018 77.8635L199.489 85.925L201.309 85.3657L199.954 80.9448C199.635 79.9046 200.196 78.8953 201.175 78.5944C202.322 78.2419 203.094 78.9587 203.366 79.8459L204.735 84.3127L206.54 83.758L205.17 79.2912C204.805 78.0981 205.376 77.2864 206.37 76.9809C207.303 76.6941 208.324 77.351 208.596 78.2382ZM211.323 73.3994L213.828 81.5681L215.617 81.0181L213.113 72.8494L211.323 73.3994ZM210.325 70.5259C210.499 71.0919 210.987 71.4274 211.629 71.2299C212.287 71.0278 212.502 70.4761 212.329 69.9101C212.16 69.3594 211.672 69.0239 211.014 69.226C210.372 69.4235 210.156 69.9752 210.325 70.5259ZM222.046 74.2215L223.383 78.5811L225.203 78.0218L223.852 73.6162C223.064 71.0463 221.217 70.4256 219.167 71.0555C218.357 71.3046 217.598 71.9397 217.389 72.8409L217.041 71.7089L215.221 72.2683L217.693 80.3298L219.513 79.7705L218.195 75.472C217.832 74.3953 218.431 73.2401 219.533 72.9016C220.863 72.4927 221.708 73.1201 222.046 74.2215ZM230.084 74.6467C228.646 75.0885 227.668 74.3011 227.26 72.9702C226.866 71.6853 227.234 70.4841 228.672 70.0422C229.804 69.6944 231.103 70.3831 231.497 71.6681C231.905 72.9989 231.216 74.2988 230.084 74.6467ZM225.399 73.559C226.117 75.8995 228.043 77.2156 230.49 76.4634C231.178 76.2519 232.079 75.6404 232.493 74.4252L232.802 75.4348C233.214 76.8315 231.931 77.7782 230.891 78.0978C230.325 78.2718 229.343 78.2891 228.559 77.6429L227.329 79.1425C228.425 80.0442 230.017 80.3248 231.44 79.8876C233.81 79.159 235.33 77.1852 234.567 74.6412L232.217 66.9774L230.382 67.5415L230.776 68.8264C229.829 68.0295 228.668 68.1185 227.995 68.3254C225.548 69.0775 224.691 71.2492 225.399 73.559ZM180.9 106.369L179.233 106.881L176.879 99.2021L178.546 98.6897C180.656 98.041 182.91 99.2231 183.562 101.349C184.214 103.476 183.011 105.72 180.9 106.369ZM177.95 109.301L181.498 108.21C184.618 107.251 186.389 103.912 185.427 100.776C184.466 97.64 181.129 95.8704 178.009 96.8294L174.46 97.9199L177.95 109.301ZM191.736 103.273C190.283 103.719 189.275 102.941 188.867 101.61C188.459 100.279 188.853 99.0535 190.306 98.6069C191.438 98.259 192.742 98.9125 193.18 100.285C193.582 101.651 192.868 102.925 191.736 103.273ZM187.032 102.174C187.702 104.362 189.671 105.816 192.118 105.063C192.99 104.795 193.755 104.125 194.13 103.056L194.482 104.203L196.317 103.639L193.845 95.5773L192.01 96.1414L192.409 97.4417C191.504 96.7825 190.495 96.6574 189.623 96.9253C187.176 97.6775 186.356 99.9715 187.032 102.174ZM202.138 105.633L202.611 100.733L203.456 92.5731L201.407 93.203L200.807 98.9444L197.078 94.5333L194.998 95.1726L200.547 101.535L200.089 106.262L202.138 105.633Z" fill="#8040FF"/>
<path d="M171.591 129.438L172.59 132.694L180.269 130.334L179.271 127.078L171.591 129.438ZM170.228 129.204L180.293 126.111L179.931 124.93L175.669 126.24L175.49 125.656C177.357 124.96 178.237 124.104 177.955 123.184C177.635 122.14 176.137 122.002 173.751 122.736C171.366 123.469 170.216 124.421 170.536 125.465C170.818 126.384 172.013 126.602 173.949 126.129L174.128 126.714L169.866 128.024L170.228 129.204ZM169.116 123.848L178.162 121.067L177.804 119.899L174.076 121.045L173.805 120.162L172.265 120.636L172.535 121.518L168.758 122.679L169.116 123.848ZM173.743 131.089L173.445 130.119L178.118 128.683L178.415 129.653L173.743 131.089ZM172.176 124.961C172.058 124.575 172.664 124.199 174.068 123.767C175.484 123.332 176.196 123.303 176.314 123.689C176.429 124.062 175.823 124.438 174.407 124.873C173.003 125.305 172.291 125.333 172.176 124.961ZM184.49 118.156L179.408 119.719L179.785 120.949L183.339 119.857C183.453 120.406 183.535 120.939 183.559 121.462L179.738 122.881L180.321 124.116L183.464 122.837C183.212 124.275 182.438 125.655 180.956 127.117L182.163 128.038C185.511 124.724 185.538 121.574 184.49 118.156ZM185.846 122.622L187.958 121.973L189.677 127.578L191.218 127.105L187.803 115.969L186.262 116.442L187.577 120.73L185.465 121.379L185.846 122.622ZM189.804 116.197L191.336 121.193L196.704 119.543L195.173 114.547L189.804 116.197ZM193.443 124.027C193.866 125.407 195.58 125.764 197.916 125.046C200.252 124.328 201.471 123.069 201.048 121.69C200.625 120.31 198.907 119.941 196.571 120.659C194.234 121.377 193.02 122.648 193.443 124.027ZM192.466 119.513L191.681 116.953L194.055 116.223L194.84 118.783L192.466 119.513ZM194.971 123.558C194.765 122.886 195.462 122.319 196.94 121.864C198.407 121.414 199.301 121.492 199.507 122.163C199.705 122.81 199.02 123.415 197.554 123.865C196.075 124.32 195.169 124.204 194.971 123.558ZM198.709 119.784L200.262 119.306L198.254 112.756L196.701 113.234L198.709 119.784ZM207.583 109.875L210.997 121.012L212.463 120.561L209.049 109.425L207.583 109.875ZM202.469 120.913L203.239 120.676C204.879 120.172 205.97 119.782 207.136 119.152L206.627 117.935C205.673 118.459 204.785 118.8 203.596 119.179L202.098 114.295L204.832 113.455L204.455 112.224L200.205 113.53L202.469 120.913ZM204.943 116.521L206.919 115.914L208.546 121.221L209.987 120.778L206.79 110.35L205.349 110.793L206.538 114.671L204.562 115.278L204.943 116.521ZM217.644 106.769L221.07 117.943L222.624 117.465L219.198 106.292L217.644 106.769ZM211.748 113.791C212.498 116.239 214.21 117.386 215.9 116.866C217.577 116.351 218.339 114.444 217.588 111.995C216.841 109.559 215.142 108.409 213.465 108.924C211.775 109.444 211.001 111.354 211.748 113.791ZM213.239 113.332C212.728 111.667 213.034 110.58 213.891 110.316C214.736 110.057 215.599 110.784 216.109 112.45C216.62 114.115 216.318 115.215 215.473 115.474C214.615 115.738 213.749 114.998 213.239 113.332Z" fill="#8040FF"/>
<path d="M428.262 129.442C422.878 142.329 408.462 150.232 389.101 152.342C369.78 154.447 345.778 150.736 321.706 140.657C297.634 130.577 278.141 116.075 266.069 100.825C253.972 85.5431 249.467 69.7176 254.85 56.83C260.233 43.9424 274.649 36.0395 294.01 33.9302C313.332 31.8251 337.333 35.5353 361.405 45.6149C385.477 55.6944 404.971 70.1967 417.043 85.447C429.14 100.729 433.645 116.554 428.262 129.442Z" fill="#181818" stroke="#FCFCFC" stroke-width="2"/>
<path d="M343.632 67.7393L336.267 64.6556L331.679 75.6399L333.45 76.3814L335.374 71.7751L340.156 73.7774L340.902 71.9909L336.121 69.9887L337.311 67.1393L342.904 69.4814L343.632 67.7393ZM344.835 73.6028L345.42 72.2002L343.664 71.4649L340.402 79.2749L342.158 80.0103L343.799 76.0831C344.224 75.0644 345.704 74.2617 347.106 74.8487L347.809 73.1657C347.13 72.8814 345.764 72.8299 344.835 73.6028ZM352.736 79.0968L348.662 77.3912C349.306 76.3076 350.398 76.1407 351.491 76.598C352.657 77.0862 353.046 78.0643 352.736 79.0968ZM346.732 77.3634C345.844 79.4894 346.449 81.8591 348.855 82.8664C351.452 83.9541 352.882 82.5233 352.882 82.5233L351.623 81.1805C351.623 81.1805 350.991 81.9047 349.53 81.2929C348.319 80.7861 347.885 79.8756 348.064 78.8233L353.805 81.2272C353.805 81.2272 354.494 79.8679 354.522 78.4743C354.521 78.3524 354.621 76.0355 352.142 74.9973C349.736 73.99 347.626 75.2227 346.732 77.3634ZM361.441 82.7418L357.368 81.0362C358.011 79.9526 359.104 79.7858 360.196 80.2431C361.362 80.7312 361.751 81.7094 361.441 82.7418ZM355.437 81.0085C354.549 83.1345 355.154 85.5042 357.56 86.5115C360.158 87.5991 361.588 86.1684 361.588 86.1684L360.328 84.8256C360.328 84.8256 359.696 85.5497 358.235 84.9379C357.025 84.4312 356.59 83.5207 356.769 82.4683L362.51 84.8722C362.51 84.8722 363.2 83.5129 363.227 82.1193C363.226 81.9974 363.326 79.6806 360.847 78.6424C358.441 77.6351 356.331 78.8677 355.437 81.0085ZM314.263 72.788L312.492 72.0464L308.971 80.4766L306.56 69.5622L304.316 68.6228L299.728 79.6071L301.529 80.361L305.056 71.9161L307.373 82.8082L309.675 83.7723L314.263 72.788ZM318.954 82.2977L314.881 80.5921C315.525 79.5085 316.617 79.3416 317.709 79.7989C318.875 80.2871 319.264 81.2653 318.954 82.2977ZM312.951 80.5644C312.063 82.6904 312.668 85.0601 315.074 86.0674C317.671 87.155 319.101 85.7243 319.101 85.7243L317.841 84.3815C317.841 84.3815 317.209 85.1056 315.748 84.4938C314.538 83.9871 314.103 83.0766 314.283 82.0242L320.024 84.4281C320.024 84.4281 320.713 83.0688 320.74 81.6752C320.739 81.5533 320.84 79.2365 318.361 78.1983C315.955 77.191 313.845 78.4236 312.951 80.5644ZM324.793 89.9291L325.192 87.9796C324.901 87.9274 324.33 87.7578 323.968 87.5886C323.59 87.4131 323.411 87.0952 323.608 86.6228L325.125 82.9909L327.177 83.8498L327.892 82.1372L325.841 81.2783L326.994 78.5174L325.164 77.7511L324.011 80.512L322.667 79.9496L321.952 81.6622L323.295 82.2246L321.778 85.8565C321.192 87.259 321.967 88.8497 323.144 89.3946C323.654 89.6256 324.415 89.8398 324.793 89.9291ZM340.218 87.4027L338.373 86.6302L334.928 91.1023L335.555 85.4499L333.739 84.6898L330.205 89.1248L330.935 83.5156L329.09 82.7431L328.172 91.5001L329.855 92.2046L333.6 87.5975L332.969 93.5085L334.651 94.213L340.218 87.4027ZM341.809 95.3192C340.48 94.763 340.046 93.4363 340.589 92.1371C341.125 90.8527 342.373 90.2305 343.702 90.7867C345.03 91.3429 345.464 92.6695 344.928 93.954C344.385 95.2532 343.137 95.8753 341.809 95.3192ZM338.965 91.4574C338.077 93.5833 338.824 96.0296 341.112 96.9875C343.503 97.9886 345.663 96.7597 346.551 94.6337C347.439 92.5077 346.796 90.1047 344.405 89.1036C342.117 88.1457 339.853 89.3314 338.965 91.4574ZM350.673 93.3937L351.259 91.9911L349.503 91.2557L346.241 99.0658L347.997 99.8012L349.637 95.874C350.063 94.8553 351.543 94.0525 352.945 94.6396L353.648 92.9565C352.969 92.6723 351.603 92.6208 350.673 93.3937ZM358.362 90.8888L356.605 90.1534L351.875 101.477L353.632 102.213L354.452 100.249L355.934 99.4819L356.701 103.498L358.723 104.345L357.582 98.7324L362.077 96.6073L359.863 95.6804L355.488 97.7687L358.362 90.8888ZM363.703 97.1669L360.41 105.051L362.136 105.774L365.43 97.8899L363.703 97.1669ZM364.771 94.3185C364.543 94.8647 364.704 95.435 365.324 95.6946C365.958 95.9603 366.476 95.6743 366.705 95.128C366.927 94.5965 366.766 94.0262 366.131 93.7605C365.512 93.501 364.993 93.787 364.771 94.3185ZM371.419 104.665L369.662 108.873L371.418 109.608L373.194 105.356C374.23 102.876 373.207 101.216 371.229 100.388C370.447 100.06 369.458 100.062 368.722 100.621L369.178 99.5288L367.422 98.7934L364.172 106.574L365.928 107.309L367.661 103.161C368.069 102.1 369.268 101.596 370.331 102.041C371.615 102.579 371.863 103.602 371.419 104.665ZM377.326 110.139C375.939 109.558 375.69 108.327 376.227 107.042C376.745 105.802 377.795 105.114 379.182 105.695C380.274 106.153 380.833 107.514 380.315 108.754C379.778 110.039 378.418 110.597 377.326 110.139ZM374.42 106.303C373.477 108.562 374.117 110.807 376.478 111.796C377.142 112.074 378.225 112.181 379.319 111.512L378.912 112.486C378.336 113.823 376.745 113.73 375.742 113.309C375.196 113.081 374.43 112.465 374.24 111.466L372.336 111.831C372.603 113.227 373.648 114.462 375.02 115.037C377.308 115.995 379.737 115.451 380.776 113.006L383.865 105.609L382.094 104.868L381.576 106.108C381.357 104.889 380.408 104.214 379.759 103.942C377.397 102.953 375.351 104.074 374.42 106.303Z" fill="#FCFCFC"/>
<path d="M305.326 93.2106L304.815 94.4342L307.069 95.3781L306.783 96.0619C306.047 97.8252 304.282 99.4539 302.197 99.5535L302.546 101.081C304.026 101.01 305.408 100.165 306.479 98.9503C306.405 100.442 306.8 101.89 307.764 102.956L309.071 102.121C307.668 100.59 307.589 98.3159 308.27 96.6845L308.556 96.0007L310.714 96.9045L311.225 95.681L305.326 93.2106ZM307.994 105.744L309.481 106.366L311.736 100.968L313.319 101.631L313.83 100.408L312.247 99.7449L313.971 95.6184L312.484 94.9958L307.994 105.744ZM320.514 98.471C318.08 97.4518 316.358 97.492 315.862 98.6796C315.366 99.8671 316.546 101.122 318.981 102.142C321.427 103.166 323.136 103.121 323.632 101.933C324.129 100.746 322.96 99.4953 320.514 98.471ZM313.453 101.716L315.911 102.745L315.585 103.525L314.242 102.962L313.781 104.066L319.729 106.556L319.484 107.144L313.56 104.664L312.382 107.483L320.057 110.696L320.523 109.581L314.299 106.975L314.575 106.315L320.511 108.8L321.653 106.065L320.406 105.543L320.732 104.763L323.166 105.783L323.652 104.619L313.939 100.552L313.453 101.716ZM317.409 99.3273C317.619 98.8235 318.492 98.8929 320.063 99.5506C321.634 100.208 322.296 100.782 322.086 101.285C321.87 101.801 321.008 101.708 319.437 101.05C317.866 100.392 317.194 99.8431 317.409 99.3273ZM317.048 104.137L317.374 103.357L319.257 104.146L318.931 104.925L317.048 104.137ZM328.211 102.793L325.235 109.919L325.99 110.235C327.345 110.802 328.528 111.241 329.939 111.508L330.263 110.192C329.171 109.974 328.229 109.665 327.229 109.26L329.674 103.406L328.211 102.793ZM329.704 107.618L331.85 108.517L329.49 114.167L330.869 114.744L335.078 104.668L333.699 104.091L332.351 107.317L330.205 106.419L329.704 107.618ZM331.568 115.601L332.983 116.193L337.473 105.445L336.058 104.853L331.568 115.601ZM339.164 107.098L336.683 113.035L344.226 116.194L344.722 115.006L338.69 112.48L339.206 111.245L344.902 113.63L345.383 112.478L339.687 110.093L340.184 108.906L346.131 111.396L346.622 110.221L339.164 107.098ZM334.392 115.317L344.117 119.389L344.618 118.19L334.893 114.118L334.392 115.317ZM356.048 113.223L353.021 120.468L350.839 119.555L350.368 120.682L352.55 121.596L351.553 123.983L353.04 124.606L357.534 113.846L356.048 113.223ZM346.143 115.517L345.81 116.787C346.578 117.108 347.417 117.459 348.319 117.795L346.736 121.585L348.223 122.208L349.836 118.346C350.809 118.682 351.825 118.981 352.83 119.205L353.197 118.09C350.777 117.443 348.134 116.35 346.143 115.517ZM348.057 112.992C347.511 114.299 348.279 115.664 349.874 116.332C351.457 116.995 352.967 116.584 353.513 115.277C354.054 113.981 353.286 112.616 351.703 111.954C350.108 111.286 348.598 111.696 348.057 112.992ZM349.46 113.579C349.741 112.908 350.463 112.731 351.242 113.057C352.034 113.389 352.403 114.022 352.122 114.694C351.837 115.378 351.137 115.536 350.345 115.204C349.566 114.878 349.175 114.263 349.46 113.579ZM364.058 117.352L359.034 115.249L358.543 116.424L361.996 117.87C361.84 118.143 361.665 118.394 361.459 118.618L357.602 117.158L357.32 118.407L360.389 119.424C359.465 119.883 358.217 120.037 356.495 119.809L356.568 121.22C360.584 121.69 362.821 120.315 364.058 117.352ZM356.608 123.619C356.052 124.951 357.129 126.318 359.384 127.262C361.638 128.206 363.379 128.019 363.935 126.687C364.491 125.356 363.407 123.971 361.152 123.027C358.898 122.084 357.164 122.288 356.608 123.619ZM358.083 124.237C358.354 123.589 359.239 123.594 360.666 124.191C362.093 124.789 362.73 125.422 362.46 126.07C362.194 126.705 361.287 126.72 359.86 126.122C358.433 125.525 357.817 124.873 358.083 124.237ZM363.345 123.748L364.844 124.376L367.494 118.03L365.995 117.403L363.345 123.748Z" fill="#FCFCFC"/>
<rect width="76.9161" height="26.9963" transform="matrix(0.942433 -0.334394 0.333666 0.942691 393.504 100.721)" fill="white"/>
<path d="M420.289 111.934C420.778 111.697 421.315 111.236 421.697 110.877C422.381 110.157 422.669 109.307 422.708 108.608C422.808 107.093 421.939 106.032 421.012 105.661C420.382 105.407 419.468 105.254 417.332 105.423L416.527 105.486C416.029 105.519 415.859 105.532 415.654 105.493C415.455 105.468 415.277 105.372 415.133 105.28C414.797 105.049 414.715 104.728 414.707 104.524C414.682 103.96 415.069 103.615 415.525 103.374C416.178 103.063 416.981 102.858 417.914 103.02C418.199 103.062 418.409 103.115 418.562 103.188L419.673 101.202C419.28 100.991 418.798 100.844 418.261 100.764C416.786 100.508 415.384 100.909 414.506 101.348C413.481 101.871 412.472 102.977 412.437 104.406C412.389 105.394 413.082 106.676 413.946 107.229C414.071 107.312 414.516 107.536 415.059 107.678C415.564 107.801 416.082 107.824 416.73 107.769L417.578 107.691C419.212 107.541 419.771 107.55 420.059 107.686C420.389 107.856 420.552 108.227 420.487 108.537C420.462 108.737 420.349 109 420.093 109.266C419.808 109.542 419.513 109.742 419.316 109.86C418.518 110.302 417.927 110.385 416.932 110.228C416.219 110.099 415.829 109.808 415.683 109.621L413.964 111.058C414.294 111.451 415.224 112.235 416.599 112.479C417.951 112.7 419.138 112.549 420.289 111.934ZM429.11 104.268L430.471 108.114L432.507 107.392L431.026 103.206C430.43 101.523 428.816 100.154 426.328 101.037C426.144 101.102 425.194 101.567 424.826 102.414L423.324 98.1716L421.19 98.929L425.114 110.015L427.248 109.258L425.887 105.411C425.622 104.662 426.023 103.549 427.055 103.183C428.285 102.746 428.845 103.518 429.11 104.268ZM436.765 103.605C435.704 103.981 434.633 103.47 434.257 102.41C433.882 101.349 434.388 100.262 435.448 99.8861C436.523 99.5049 437.586 100.035 437.961 101.096C438.336 102.156 437.839 103.224 436.765 103.605ZM432.335 103.092C433.07 105.17 435.284 106.39 437.475 105.613C439.808 104.785 440.619 102.492 439.883 100.413C439.143 98.3206 437.07 97.0505 434.738 97.8781C432.547 98.6556 431.594 100.999 432.335 103.092ZM443.386 99.2342L442.01 95.3456L439.889 96.098L441.266 99.9866C442.297 102.9 444.43 103.082 446.197 102.455C446.635 102.299 447.573 101.712 447.69 100.874L448.02 101.808L450.141 101.055L447.438 93.4195L445.318 94.1719L446.694 98.0605C447.102 99.0777 446.602 100.003 445.725 100.314C444.467 100.761 443.751 100.266 443.386 99.2342ZM457.052 98.444L455.8 96.4369C455.552 96.5888 454.927 96.8902 454.549 96.9924C454.275 97.0735 454.047 97.0115 453.916 96.6438L452.88 93.7168L455.057 92.9443L454.322 90.8657L452.145 91.6381L451.109 88.7111L448.875 89.5036L449.911 92.4306L448.554 92.9122L449.29 94.9908L450.647 94.5093L451.683 97.4363C452.228 98.9776 454.009 99.6032 455.198 99.2767C455.788 99.0993 456.686 98.6693 457.052 98.444Z" fill="#8040FF"/>
<path d="M319.384 222.877L346.575 225.533L346.638 198.194L367.737 180.83L348.463 161.445L351.101 134.236L323.783 134.151L306.417 113.032L287.057 132.308L259.865 129.652L259.797 156.988L238.706 174.349L257.977 193.74L255.34 220.949L282.66 221.028L300.018 242.15L319.384 222.877Z" fill="#8040FF"/>
<path d="M318.133 218.108L317.665 218.062L317.332 218.394L300.359 235.285L285.145 216.773L284.846 216.409L284.375 216.408L260.431 216.339L262.743 192.491L262.788 192.023L262.456 191.689L245.566 174.694L264.051 159.478L264.414 159.179L264.416 158.708L264.475 134.749L288.307 137.077L288.776 137.123L289.109 136.791L306.077 119.897L321.298 138.407L321.597 138.77L322.067 138.772L346.01 138.846L343.698 162.693L343.653 163.162L343.985 163.496L360.877 180.486L342.384 195.704L342.021 196.003L342.02 196.474L341.965 220.436L318.133 218.108Z" stroke="#FCFCFC" stroke-width="2"/>
<path d="M291.565 146.126L289.646 145.244L280.179 153.996L282.04 154.851L284.497 152.563L289.382 154.807L289.266 158.17L291.113 159.018L291.565 146.126ZM285.996 151.174L289.676 147.829L289.456 152.764L285.996 151.174ZM297.264 148.374L292.151 159.531L293.881 160.325L298.994 149.169L297.264 148.374ZM300.685 149.946L295.573 161.103L297.303 161.897L302.416 150.741L300.685 149.946ZM302.007 156.293L301.207 158.039L307.633 160.991L308.433 159.246L302.007 156.293ZM314.492 163.244L311.671 161.948L313.345 158.297L316.165 159.593C317.168 160.054 317.609 161.243 317.149 162.246C316.696 163.235 315.495 163.705 314.492 163.244ZM307.46 166.528L309.205 167.33L310.865 163.708L313.656 164.991C315.648 165.906 317.98 165.005 318.879 163.041C319.793 161.048 318.948 158.706 316.956 157.791L312.42 155.707L307.46 166.528ZM320.82 170.782C319.439 170.147 319.203 168.895 319.783 167.629C320.363 166.364 321.472 165.711 322.853 166.345C323.929 166.84 324.469 168.197 323.883 169.513C323.275 170.801 321.896 171.276 320.82 170.782ZM318.038 166.828C317.085 168.908 317.588 171.305 319.915 172.373C320.743 172.754 321.76 172.763 322.751 172.215L322.251 173.305L323.995 174.107L327.508 166.442L325.764 165.64L325.197 166.876C324.96 165.781 324.29 165.016 323.461 164.635C321.135 163.566 318.998 164.733 318.038 166.828ZM330.474 169.441L331.107 168.06L329.377 167.265L325.851 174.959L327.581 175.754L329.354 171.885C329.814 170.881 331.32 170.129 332.701 170.764L333.461 169.106C332.792 168.799 331.429 168.701 330.474 169.441ZM336.205 179.558L336.669 177.623C336.381 177.561 335.816 177.372 335.46 177.19C335.088 177.002 334.92 176.678 335.133 176.213L336.773 172.635L338.794 173.563L339.567 171.876L337.546 170.947L338.793 168.227L336.99 167.399L335.743 170.119L334.42 169.511L333.647 171.198L334.97 171.806L333.33 175.384C332.697 176.766 333.417 178.382 334.575 178.967C335.077 179.215 335.829 179.455 336.205 179.558ZM285.887 174.472C286.409 174.677 287.135 174.746 287.664 174.742C288.566 174.734 289.334 174.4 289.92 173.93C291.081 172.932 291.213 171.531 290.869 170.668C290.61 170.004 290.104 169.225 288.481 167.775L287.854 167.223C287.499 166.884 287.321 166.697 287.162 166.43C286.996 166.177 286.931 165.972 286.874 165.752C286.801 165.296 286.923 164.876 287.271 164.578C287.827 164.094 288.453 164.188 289.024 164.362C289.727 164.633 290.487 165.087 291.039 165.957C291.197 166.188 291.297 166.393 291.36 166.562L293.188 166.029C293.068 165.639 292.877 165.287 292.606 164.881C291.79 163.626 290.535 162.908 289.608 162.588C288.623 162.241 287.111 162.163 285.985 163.16C285.081 163.942 284.811 165.262 285.029 166.207C285.062 166.363 285.214 166.838 285.518 167.365C285.777 167.801 286.134 168.211 286.621 168.646L287.256 169.22C288.577 170.408 288.979 170.874 289.092 171.243C289.221 171.69 289.068 172.218 288.642 172.533C288.355 172.736 288.044 172.839 287.615 172.853C287.207 172.86 286.796 172.759 286.535 172.674C285.624 172.397 285.102 171.998 284.514 171.094C284.075 170.4 284.025 169.778 284.073 169.483L282.178 169.317C282.13 169.805 282.192 171.014 282.947 172.17C283.716 173.334 284.643 174.076 285.887 174.472ZM295.712 178.563L296.176 176.628C295.888 176.566 295.323 176.377 294.966 176.195C294.595 176.007 294.426 175.683 294.64 175.218L296.279 171.64L298.3 172.568L299.074 170.881L297.053 169.952L298.299 167.232L296.496 166.404L295.25 169.124L293.927 168.516L293.153 170.204L294.477 170.811L292.837 174.39C292.204 175.771 292.924 177.388 294.081 177.972C294.584 178.22 295.336 178.46 295.712 178.563ZM300.146 176.497L302.046 172.352L300.316 171.557L298.396 175.746C297.276 178.19 298.417 179.964 300.191 180.779C300.903 181.106 301.908 181.18 302.705 180.631L302.212 181.707L303.942 182.502L307.468 174.808L305.738 174.013L303.851 178.129C303.393 179.168 302.242 179.644 301.152 179.143C299.887 178.562 299.673 177.53 300.146 176.497ZM309.888 183.209C308.565 182.601 308.374 181.404 308.928 180.197C309.468 179.019 310.505 178.368 311.828 178.976C312.875 179.457 313.376 180.744 312.81 181.98C312.23 183.246 310.935 183.69 309.888 183.209ZM307.183 179.395C306.25 181.432 306.721 183.744 308.975 184.779C309.615 185.073 310.717 185.28 311.725 184.616L311.238 185.678L312.998 186.486L318.023 175.519L316.264 174.711L314.091 179.452C313.896 178.342 313.119 177.58 312.421 177.259C310.168 176.224 308.103 177.388 307.183 179.395ZM316.253 192.137L319.862 188.795L325.916 183.265L323.968 182.37L319.705 186.257L319.853 180.48L317.876 179.571L317.789 188.018L314.305 191.242L316.253 192.137Z" fill="#FCFCFC"/>
<path d="M276.03 183.229L275.494 184.399L277.206 185.186L275.468 188.98L276.933 189.653L280.469 181.936L279.005 181.263L277.743 184.016L276.03 183.229ZM269.11 183.226L269.323 184.727C270.753 184.883 271.987 184.405 272.936 183.553C272.958 184.722 273.392 185.866 274.382 186.793L275.623 185.99C274.224 184.674 274.062 182.998 274.636 181.745L274.712 181.58L276.803 182.54L277.339 181.37L271.645 178.755L271.109 179.925L273.236 180.901L273.154 181.079C272.537 182.426 271.095 183.452 269.11 183.226ZM268.739 189.122L275.957 192.438L276.493 191.268L270.74 188.625L271.726 186.474L270.261 185.801L268.739 189.122ZM284.057 188.462L283.515 189.644L284.756 190.214L282.519 195.095L283.877 195.719L288.421 185.803L287.063 185.179L285.297 189.032L284.057 188.462ZM277.975 189.845L278.298 191.324C279.509 191.209 280.586 190.544 281.467 189.59C281.362 190.786 281.592 191.937 282.31 192.867L283.611 192.149C282.491 190.661 282.66 188.765 283.391 187.169L283.505 186.921L285.17 187.686L285.712 186.504L284.046 185.739L284.707 184.297L283.313 183.657L282.652 185.099L280.975 184.328L280.433 185.51L282.111 186.281L281.997 186.529C281.25 188.16 279.881 189.648 277.975 189.845ZM284.435 196.561L285.829 197.202L290.682 186.613L289.288 185.972L284.435 196.561ZM297.635 190.551L297.283 191.319C296.574 192.868 294.411 193.905 291.9 193.238L291.968 194.743C293.955 195.212 295.79 194.797 297.104 193.769C297.167 195.443 298.054 197.096 299.705 198.298L300.901 197.373C298.734 195.892 298.117 193.619 298.843 192.036L299.195 191.268L297.635 190.551ZM289.708 197.396L299.289 201.797L299.836 200.604L290.255 196.202L289.708 197.396ZM311.331 196.085L309.603 199.855L307.748 199.003L307.207 200.184L309.061 201.036L306.462 206.709L307.915 207.377L312.784 196.752L311.331 196.085ZM300.627 201.124L301.477 201.515C303.285 202.345 304.665 202.922 306.314 203.38L306.703 202.156C305.295 201.767 304.109 201.265 302.627 200.598L303.558 198.566L306.642 199.982L307.167 198.836L304.084 197.419L304.891 195.658L308.34 197.243L308.882 196.061L303.979 193.809L300.627 201.124ZM321.189 200.628L316.32 211.252L317.785 211.925L322.654 201.301L321.189 200.628ZM310.834 205.656L311.732 206.069C313.988 207.105 315.351 207.688 316.939 208.06L317.362 206.795C315.92 206.448 314.717 205.952 312.833 205.101L314.999 200.374L318.65 202.051L319.191 200.869L314.1 198.53L310.834 205.656Z" fill="#FCFCFC"/>
<rect width="91.8932" height="27.9982" transform="matrix(0.972965 0.230955 -0.230418 0.973092 30.4761 172.194)" fill="#8040FF"/>
<path d="M48.0531 190.903L45.1264 190.209L45.9227 186.846L48.8494 187.54C49.7679 187.758 50.3381 188.683 50.1206 189.602C49.9031 190.52 48.9715 191.121 48.0531 190.903ZM41.36 195.629L43.7107 196.187L44.5513 192.638L47.4001 193.314C49.6885 193.857 51.9523 192.421 52.4869 190.163C53.0288 187.875 51.6425 185.605 49.3541 185.062L44.1545 183.828L41.36 195.629ZM56.0276 196.891C54.7044 196.577 54.3467 195.588 54.6232 194.42C54.8997 193.252 55.6666 192.513 56.9898 192.827C57.9862 193.064 58.6515 194.143 58.3905 195.314C58.1022 196.463 57.0239 197.128 56.0276 196.891ZM52.257 193.858C51.715 196.147 52.6983 198.452 55.2513 199.058C56.1075 199.262 57.0367 199.087 57.7868 198.558L57.5729 199.461L59.9429 200.008L61.9263 191.631L59.5601 191.069L59.302 192.159C58.8726 191.334 58.1205 190.761 57.2643 190.557C54.7112 189.951 52.7989 191.569 52.257 193.858ZM65.1273 201.468C65.5705 201.541 66.1064 201.569 66.5554 201.479C67.1629 201.343 67.6651 201.166 68.1293 200.734C68.9916 199.87 69.0043 198.705 68.6417 197.945C68.4381 197.485 68.0522 197.032 66.7105 196.171L66.1706 195.812C65.9711 195.683 65.8183 195.564 65.6609 195.395C65.5667 195.307 65.5073 195.211 65.5102 195.129C65.5094 195.063 65.5434 194.989 65.6204 194.942C65.7359 194.871 65.8834 194.873 66.1636 194.939C66.5335 195.043 67.0214 195.274 67.368 195.686L67.443 195.786L69.6474 194.878C69.5315 194.604 69.3651 194.334 69.164 194.073C68.447 193.212 67.429 192.789 66.7404 192.642C65.8768 192.47 64.608 192.482 63.8317 193.399C63.1701 194.179 63.0411 195.349 63.3926 196.156C63.4885 196.376 63.6868 196.719 63.9584 197.03C64.1907 197.299 64.2693 197.384 64.7507 197.712L65.2906 198.07C66.2177 198.669 66.2251 198.637 66.4328 198.802C66.5856 198.92 66.5524 199.06 66.4058 199.124C66.3325 199.156 66.228 199.181 66.1776 199.185C66.0072 199.211 65.9257 199.208 65.704 199.172C65.1903 199.05 64.9515 198.878 64.5106 198.378C64.3021 198.148 64.2218 197.932 64.1571 197.719L61.9769 198.385C62.1182 198.83 62.38 199.599 62.754 200.034C63.4116 200.798 64.174 201.259 65.1273 201.468ZM72.8958 203.312C73.339 203.385 73.8749 203.413 74.3239 203.323C74.9314 203.187 75.4337 203.01 75.8978 202.578C76.7601 201.714 76.7728 200.549 76.4102 199.789C76.2066 199.329 75.8207 198.876 74.479 198.015L73.9391 197.656C73.7396 197.527 73.5868 197.408 73.4294 197.24C73.3352 197.151 73.2758 197.055 73.2787 196.973C73.2779 196.908 73.3119 196.833 73.3889 196.786C73.5044 196.715 73.6519 196.717 73.9321 196.783C74.302 196.888 74.79 197.118 75.1365 197.53L75.2115 197.63L77.4159 196.722C77.3 196.448 77.1336 196.178 76.9325 195.917C76.2156 195.056 75.1975 194.633 74.5089 194.486C73.6453 194.314 72.3765 194.326 71.6002 195.243C70.9386 196.023 70.8096 197.193 71.1611 198C71.257 198.22 71.4553 198.563 71.7269 198.874C71.9592 199.143 72.0378 199.228 72.5192 199.556L73.0592 199.914C73.9863 200.513 73.9936 200.481 74.2013 200.646C74.3541 200.764 74.321 200.904 74.1743 200.968C74.101 201 73.9965 201.025 73.9461 201.029C73.7757 201.055 73.6942 201.052 73.4725 201.016C72.9588 200.894 72.72 200.722 72.2792 200.222C72.0706 199.992 71.9903 199.776 71.9256 199.563L69.7454 200.229C69.8867 200.674 70.1485 201.443 70.5225 201.878C71.1801 202.642 71.9425 203.103 72.8958 203.312ZM79.6855 195.732L77.6541 204.31L79.9581 204.857L81.9895 196.278L79.6855 195.732ZM80.3192 192.708C80.157 193.393 80.4638 194.042 81.2578 194.23C82.0517 194.419 82.6166 193.977 82.7788 193.292C82.9411 192.607 82.6342 191.959 81.8403 191.77C81.0463 191.582 80.4814 192.023 80.3192 192.708ZM86.4301 204.042C85.2626 203.765 84.5972 202.686 84.8737 201.518C85.1502 200.351 86.2322 199.67 87.3997 199.947C88.5828 200.228 89.2289 201.319 88.9524 202.486C88.6759 203.654 87.6132 204.323 86.4301 204.042ZM82.7566 201.016C82.2146 203.304 83.4936 205.68 85.9066 206.253C88.4752 206.863 90.5276 205.278 91.0696 202.989C91.6152 200.685 90.4918 198.346 87.9232 197.736C85.5103 197.164 83.3022 198.711 82.7566 201.016ZM98.4019 204.631L97.3881 208.912L99.7232 209.467L100.737 205.185C101.497 201.978 100.002 200.653 97.7443 200.117C97.1061 199.965 96.0819 199.985 95.4928 200.668L95.7361 199.64L93.401 199.086L91.4102 207.493L93.7453 208.048L94.7592 203.766C94.9816 202.618 95.9644 202.079 96.9295 202.308C98.315 202.637 98.6711 203.494 98.4019 204.631Z" fill="white"/>
</g>
<defs>
<clipPath id="clip0_896_12538">
<rect width="475" height="250" fill="white"/>
</clipPath>
</defs>
</svg>
