<svg width="475" height="246" viewBox="0 0 475 246" fill="none" xmlns="http://www.w3.org/2000/svg">
<ellipse cx="418.973" cy="61.5" rx="4.49448" ry="4.5" fill="#FCFCFC"/>
<ellipse cx="407.487" cy="49" rx="2.99632" ry="3" fill="#4877AF"/>
<rect width="4.89289" height="29.4552" transform="matrix(0.994683 0.102983 -0.0994406 0.995043 129.761 10.8652)" fill="#4877AF"/>
<rect width="4.9167" height="18.3305" transform="matrix(0.386684 0.922212 -0.917199 0.398429 158.936 31.1621)" fill="#4877AF"/>
<rect width="5.18188" height="34.9996" transform="matrix(0.815082 0.579346 -0.565734 0.824588 157.565 0)" fill="#FCFCFC"/>
<rect width="4.80023" height="13.7012" transform="matrix(-0.459298 0.888462 -0.879171 -0.476167 389.428 191.005)" fill="#4877AF"/>
<rect width="5.13596" height="29.7142" transform="matrix(-0.0785125 0.996985 -0.996139 -0.0869383 413.031 178.19)" fill="#FCFCFC"/>
<circle r="4.49724" transform="matrix(-0.706673 -0.707541 0.706673 -0.707541 30.314 148.363)" fill="#FCFCFC"/>
<circle r="5.99632" transform="matrix(-0.706673 -0.707541 0.706673 -0.707541 12.9922 134.557)" fill="#4877AF"/>
<path d="M123.844 117.035C125.048 114.949 125.672 112.578 125.652 110.169C125.631 107.76 124.967 105.399 123.728 103.333C123.502 102.96 123.353 102.545 123.291 102.113C123.229 101.682 123.255 101.242 123.368 100.82C123.48 100.399 123.676 100.005 123.945 99.6617C124.214 99.3184 124.549 99.0333 124.931 98.8234C127.041 97.6514 128.798 95.9341 130.019 93.8506C131.239 91.767 131.879 89.3936 131.871 86.9777C131.863 84.5618 131.207 82.192 129.972 80.1154C128.738 78.0389 126.969 76.3315 124.851 75.1715C124.481 74.9639 124.157 74.6841 123.897 74.3489C123.636 74.0136 123.446 73.6296 123.336 73.2195C123.227 72.8094 123.2 72.3816 123.258 71.9612C123.317 71.5408 123.459 71.1365 123.676 70.7719C124.928 68.7085 125.604 66.3466 125.634 63.9322C125.664 61.5178 125.046 59.1391 123.846 57.0437C122.646 54.9484 120.907 53.2131 118.81 52.0184C116.713 50.8238 114.334 50.2135 111.922 50.2511C111.487 50.2613 111.054 50.1829 110.649 50.0207C110.245 49.8586 109.878 49.616 109.57 49.3077C109.262 48.9994 109.019 48.6318 108.857 48.2271C108.695 47.8224 108.617 47.3891 108.627 46.9533C108.666 44.5445 108.06 42.1688 106.873 40.0724C105.686 37.9759 103.961 36.235 101.876 35.0298C99.7911 33.8247 97.4226 33.1992 95.0158 33.2182C92.6089 33.2371 90.2512 33.8999 88.187 35.1377C87.8151 35.3644 87.4011 35.5131 86.9701 35.5749C86.539 35.6368 86.0998 35.6104 85.6792 35.4975C85.2585 35.3845 84.865 35.1873 84.5226 34.9178C84.1801 34.6483 83.8959 34.3121 83.687 33.9295C82.5144 31.8171 80.7974 30.0578 78.7149 28.835C76.6325 27.6122 74.2607 26.9707 71.8469 26.9773C69.4332 26.9839 67.0657 27.6384 64.9913 28.8726C62.9169 30.1067 61.2115 31.8754 60.0528 33.9942C59.846 34.3646 59.5672 34.6898 59.2327 34.9506C58.8983 35.2113 58.515 35.4023 58.1055 35.5124C57.696 35.6224 57.2686 35.6492 56.8485 35.5911C56.4284 35.5331 56.0241 35.3915 55.6595 35.1745C53.5972 33.9181 51.2362 33.2384 48.8227 33.2061C46.4092 33.1739 44.0316 33.7903 41.9379 34.9912C39.8442 36.192 38.111 37.9333 36.9191 40.0335C35.7272 42.1336 35.1203 44.5156 35.1616 46.9312C35.171 47.3673 35.092 47.8007 34.9295 48.2053C34.767 48.61 34.5243 48.9775 34.216 49.2856C33.9078 49.5938 33.5403 49.8362 33.1358 49.9984C32.7314 50.1605 32.2982 50.239 31.8625 50.229C29.4561 50.1885 27.083 50.7928 24.9892 51.9794C22.8953 53.166 21.1569 54.8916 19.9541 56.9775C18.7513 59.0633 18.1279 61.4335 18.1485 63.8423C18.1691 66.2512 18.8329 68.611 20.0712 70.6773C20.2976 71.0501 20.4463 71.4649 20.5083 71.8967C20.5703 72.3285 20.5443 72.7683 20.4319 73.1897C20.3195 73.6111 20.123 74.0053 19.8543 74.3485C19.5855 74.6917 19.2501 74.9769 18.8682 75.1868C16.7583 76.3593 15.0016 78.0768 13.7811 80.1605C12.5606 82.2442 11.9209 84.6178 11.9289 87.0337C11.9368 89.4497 12.592 91.8197 13.8262 93.8967C15.0604 95.9736 16.8283 97.6816 18.9459 98.8425C19.3164 99.0491 19.6417 99.328 19.9025 99.6628C20.1633 99.9976 20.3543 100.381 20.4642 100.791C20.574 101.201 20.6005 101.629 20.542 102.049C20.4836 102.47 20.3413 102.874 20.1238 103.238C18.8704 105.302 18.1933 107.665 18.163 110.081C18.1327 112.497 18.7503 114.877 19.9515 116.973C21.1527 119.069 22.8935 120.805 24.9924 122C27.0913 123.194 29.4715 123.803 31.8849 123.763C32.3203 123.753 32.7533 123.832 33.1576 123.994C33.5619 124.156 33.9292 124.399 34.2373 124.707C34.5453 125.015 34.7877 125.383 34.9497 125.787C35.1118 126.192 35.1901 126.626 35.18 127.061C35.1414 129.47 35.747 131.846 36.934 133.942C38.1211 136.039 39.8463 137.78 41.9311 138.985C44.016 140.19 46.3845 140.815 48.7913 140.796C51.1982 140.777 53.5558 140.115 55.6201 138.877C55.992 138.65 56.4059 138.501 56.837 138.44C57.2681 138.378 57.7072 138.404 58.1279 138.517C58.5486 138.63 58.9421 138.827 59.2845 139.097C59.6269 139.366 59.9112 139.703 60.1201 140.085C61.2935 142.195 63.0102 143.952 65.0917 145.173C67.1732 146.394 69.5433 147.035 71.9553 147.028C74.3674 147.021 76.7332 146.368 78.8066 145.135C80.8799 143.903 82.585 142.136 83.7444 140.02C83.9506 139.649 84.2292 139.324 84.5635 139.063C84.8978 138.802 85.2811 138.611 85.6907 138.501C86.1002 138.391 86.5277 138.365 86.9476 138.424C87.3676 138.483 87.7716 138.625 88.1355 138.843C90.1984 140.099 92.5597 140.778 94.9733 140.81C97.3869 140.841 99.7645 140.224 101.858 139.023C103.952 137.822 105.685 136.081 106.877 133.981C108.069 131.881 108.676 129.498 108.636 127.083C108.626 126.647 108.705 126.213 108.868 125.809C109.03 125.404 109.273 125.037 109.581 124.728C109.889 124.42 110.257 124.178 110.661 124.016C111.066 123.853 111.499 123.775 111.935 123.785C114.342 123.826 116.715 123.222 118.81 122.035C120.904 120.848 122.642 119.122 123.844 117.035Z" fill="#4877AF"/>
<path d="M114.321 111.529L114.321 111.53C113.408 113.114 112.088 114.425 110.498 115.326C108.909 116.227 107.108 116.686 105.282 116.655C104.785 116.644 104.291 116.733 103.829 116.918C103.367 117.104 102.947 117.381 102.594 117.733C102.242 118.085 101.965 118.505 101.779 118.968C101.593 119.429 101.503 119.924 101.514 120.421C101.544 122.255 101.083 124.063 100.178 125.657C99.2732 127.251 97.9573 128.574 96.3676 129.485C94.7779 130.397 92.9727 130.866 91.1402 130.842C89.3076 130.818 87.5148 130.302 85.9485 129.349L85.9423 129.345C85.5241 129.095 85.06 128.931 84.5774 128.863C84.0949 128.796 83.6037 128.826 83.1331 128.952C82.6626 129.078 82.2221 129.298 81.838 129.597C81.4538 129.897 81.1338 130.271 80.8968 130.697L80.8937 130.703C80.0134 132.31 78.7188 133.651 77.1446 134.587C75.5704 135.522 73.7741 136.019 71.9427 136.024C70.1113 136.029 68.3118 135.542 66.7314 134.615C65.1518 133.689 63.8489 132.356 62.9581 130.755C62.7193 130.319 62.395 129.936 62.0045 129.628C61.6128 129.32 61.1628 129.095 60.6816 128.965C60.2004 128.836 59.6981 128.806 59.205 128.877C58.7132 128.947 58.2408 129.117 57.8162 129.375C56.2496 130.314 54.4606 130.816 52.6342 130.831C50.8067 130.845 49.0083 130.37 47.4254 129.455C45.8424 128.54 44.5324 127.218 43.6311 125.626C42.7304 124.036 42.2706 122.233 42.2992 120.405C42.3102 119.908 42.2206 119.414 42.0357 118.952C41.8504 118.489 41.5732 118.069 41.2208 117.716C40.8685 117.363 40.4484 117.086 39.9859 116.9C39.5245 116.715 39.0306 116.626 38.5338 116.637C36.7025 116.666 34.8965 116.204 33.3038 115.297C31.7102 114.391 30.3885 113.073 29.4765 111.481C28.5644 109.889 28.0955 108.082 28.1185 106.248C28.1415 104.414 28.6556 102.62 29.6072 101.053L29.6109 101.046C29.8609 100.628 30.0244 100.164 30.0915 99.6806C30.1587 99.1976 30.1283 98.706 30.0021 98.2349C29.8759 97.7638 29.6564 97.3229 29.3567 96.9382C29.057 96.5535 28.6832 96.233 28.2575 95.9956L28.2512 95.9921C26.6435 95.1107 25.3011 93.8139 24.364 92.2369C23.4269 90.66 22.9295 88.8605 22.9235 87.0262C22.9174 85.1918 23.4031 83.3897 24.3298 81.8076C25.2561 80.2261 26.5893 78.9224 28.1904 78.0322C28.626 77.7924 29.0086 77.4669 29.3152 77.0753C29.6224 76.683 29.847 76.2324 29.9755 75.7508C30.104 75.2692 30.1337 74.7665 30.0628 74.2729C29.9921 73.7805 29.8228 73.3074 29.5649 72.8819C28.6256 71.3136 28.1221 69.5227 28.1065 67.6947C28.0908 65.8658 28.5642 64.0662 29.4774 62.4825C30.3906 60.8988 31.7105 59.5886 33.3003 58.6876C34.8893 57.7872 36.6901 57.3283 38.5163 57.3586C39.0132 57.3695 39.5071 57.2798 39.9684 57.0949C40.4307 56.9096 40.8507 56.6324 41.2031 56.2802C41.5554 55.928 41.8328 55.508 42.0186 55.0455C42.2039 54.5838 42.2942 54.0894 42.2839 53.5919C42.2528 51.7585 42.7136 49.9505 43.6183 48.3565C44.5232 46.762 45.8391 45.44 47.4287 44.5282C49.0184 43.6165 50.8235 43.1485 52.6559 43.1729C54.4884 43.1974 56.281 43.7135 57.8467 44.6674L57.8467 44.6675L57.8557 44.6728C58.2743 44.9219 58.7385 45.0845 59.2208 45.1512C59.7031 45.2178 60.1939 45.187 60.664 45.0607C61.1342 44.9344 61.5743 44.7151 61.9583 44.4157C62.3423 44.1163 62.6624 43.7429 62.8999 43.3176L62.8999 43.3176L62.904 43.31C63.7838 41.7013 65.0786 40.3584 66.6537 39.4214C68.2287 38.4843 70.0262 37.9874 71.8589 37.9824C73.6916 37.9774 75.4924 38.4644 77.0736 39.3929C78.6537 40.3207 79.9568 41.6554 80.847 43.258C81.0858 43.6943 81.4103 44.0778 81.8011 44.3853C82.1928 44.6936 82.6428 44.9192 83.124 45.0483C83.6052 45.1775 84.1075 45.2077 84.6006 45.1369C85.0924 45.0664 85.5647 44.8969 85.9893 44.6388C87.5559 43.7 89.345 43.1974 91.1714 43.1831C92.9989 43.1687 94.7973 43.6436 96.3803 44.5586C97.9632 45.4737 99.2732 46.7956 100.175 48.3874C101.075 49.9782 101.535 51.7808 101.506 53.6086C101.495 54.1058 101.585 54.6001 101.77 55.0618C101.955 55.5247 102.232 55.9452 102.585 56.2978C102.937 56.6505 103.357 56.9279 103.82 57.1134C104.281 57.2984 104.775 57.388 105.271 57.377C107.101 57.3491 108.906 57.8125 110.497 58.719C112.09 59.626 113.41 60.9436 114.321 62.5345C115.233 64.1254 115.701 65.9315 115.678 67.7647C115.656 69.5979 115.142 71.3912 114.192 72.9578L114.188 72.9649C113.938 73.3834 113.775 73.8477 113.709 74.3304C113.642 74.813 113.672 75.3043 113.798 75.7751C113.924 76.246 114.142 76.6869 114.441 77.0718C114.74 77.4567 115.113 77.7778 115.537 78.0163L115.547 78.0213C117.155 78.9021 118.497 80.1983 119.435 81.775C120.372 83.3516 120.87 85.1508 120.876 86.9851C120.882 88.8193 120.397 90.6213 119.47 92.2032C118.543 93.7846 117.21 95.0881 115.609 95.9779C115.173 96.2177 114.791 96.5432 114.484 96.9348C114.177 97.3271 113.952 97.7777 113.824 98.2593C113.695 98.7409 113.666 99.2436 113.736 99.7371C113.807 100.23 113.976 100.703 114.234 101.128C115.174 102.697 115.678 104.488 115.693 106.316C115.709 108.145 115.235 109.945 114.321 111.529Z" stroke="#FCFCFC" stroke-width="2"/>
<path d="M72.0812 65.4596L69.3939 63.9061L71.4001 60.4271L74.0874 61.9806C75.0432 62.5331 75.3713 63.7577 74.8198 64.7141C74.2763 65.6566 73.037 66.0121 72.0812 65.4596ZM64.7744 68.0737L66.4366 69.0346L68.4268 65.5833L71.0864 67.1207C72.9842 68.2177 75.3892 67.5381 76.4682 65.6669C77.5632 63.768 76.9405 61.3567 75.0428 60.2597L70.7209 57.7614L64.7744 68.0737ZM77.6784 73.5555C76.3624 72.7948 76.2447 71.5255 76.9401 70.3197C77.6355 69.1138 78.8002 68.5673 80.1161 69.328C81.1412 69.9206 81.5519 71.3223 80.8464 72.5777C80.1212 73.8033 78.7034 74.1481 77.6784 73.5555ZM75.2778 69.3588C74.1349 71.3409 74.4123 73.7744 76.6287 75.0556C77.4183 75.512 78.4295 75.616 79.4669 75.1623L78.8674 76.2018L80.5297 77.1627L84.7418 69.8582L83.0795 68.8973L82.4002 70.0754C82.266 68.9629 81.6703 68.1381 80.8808 67.6817C78.6644 66.4005 76.4288 67.3628 75.2778 69.3588ZM87.4144 73.1218L88.1737 71.8051L86.5253 70.8522L82.2972 78.1845L83.9456 79.1373L86.0717 75.4504C86.6232 74.494 88.1928 73.8859 89.5088 74.6466L90.4199 73.0665C89.7827 72.6982 88.4348 72.4734 87.4144 73.1218ZM92.1771 83.7293L92.8198 81.8461C92.5385 81.7574 91.994 81.5166 91.6557 81.3026C91.3035 81.0805 91.1661 80.7423 91.4218 80.2988L93.388 76.8891L95.3135 78.0021L96.2406 76.3943L94.3152 75.2812L95.8098 72.6893L94.0921 71.6964L92.5975 74.2883L91.337 73.5597L90.4098 75.1675L91.6704 75.8962L89.7042 79.3059C88.9449 80.6226 89.5111 82.2991 90.6092 82.9893C91.086 83.2834 91.8127 83.5926 92.1771 83.7293ZM55.4339 81.414C55.9347 81.6665 56.6503 81.8029 57.1777 81.8491C58.076 81.9248 58.8726 81.6645 59.4991 81.2505C60.7486 80.3649 61.0103 78.9823 60.7482 78.0915C60.5527 77.4056 60.1217 76.5836 58.6406 74.9882L58.0679 74.3799C57.7461 74.0091 57.5863 73.8058 57.4526 73.5252C57.3109 73.2585 57.2661 73.0478 57.2294 72.8233C57.1996 72.3625 57.36 71.9563 57.734 71.692C58.3329 71.262 58.9472 71.4138 59.4997 71.6408C60.1747 71.9755 60.8886 72.4991 61.3569 73.4166C61.4927 73.6615 61.5732 73.8743 61.62 74.0492L63.4902 73.6888C63.4065 73.2893 63.2494 72.9212 63.0171 72.4913C62.3224 71.1657 61.1397 70.3341 60.2467 69.9288C59.2984 69.4915 57.7997 69.272 56.5859 70.1597C55.613 70.854 55.2208 72.1427 55.3497 73.1043C55.3688 73.2632 55.4759 73.7502 55.7295 74.3034C55.9458 74.761 56.2633 75.2033 56.7076 75.6819L57.2862 76.3121C58.4908 77.6183 58.8477 78.1203 58.9255 78.4979C59.0128 78.955 58.8103 79.4663 58.3569 79.7401C58.0527 79.9154 57.733 79.9893 57.3046 79.9635C56.8981 79.9318 56.498 79.7929 56.2465 79.6845C55.3653 79.3229 54.8832 78.8779 54.3813 77.9225C54.0095 77.1901 54.018 76.5667 54.0926 76.2771L52.2215 75.9347C52.1282 76.4168 52.0775 77.6257 52.7211 78.8478C53.3785 80.078 54.232 80.904 55.4339 81.414ZM64.8334 86.4039L65.4761 84.5207C65.1948 84.432 64.6503 84.1912 64.312 83.9772C63.9598 83.7551 63.8224 83.4169 64.0781 82.9734L66.0443 79.5637L67.9698 80.6767L68.8969 79.0689L66.9714 77.9558L68.4661 75.3639L66.7484 74.371L65.2538 76.9629L63.9932 76.2342L63.0661 77.8421L64.3266 78.5707L62.3604 81.9805C61.6011 83.2972 62.1674 84.9737 63.2655 85.6639C63.7423 85.958 64.469 86.2672 64.8334 86.4039ZM69.4413 84.7615L71.7192 80.8112L70.0707 79.8583L67.7689 83.8502C66.4261 86.1787 67.3962 88.0517 69.0862 89.0286C69.7649 89.4209 70.758 89.5884 71.6031 89.1159L71.0116 90.1416L72.66 91.0945L76.8881 83.7622L75.2397 82.8093L72.9778 86.7319C72.4242 87.724 71.2344 88.0897 70.1955 87.4891C68.9904 86.7925 68.8738 85.7456 69.4413 84.7615ZM78.5141 92.3532C77.2536 91.6245 77.1753 90.415 77.8387 89.2645C78.4861 88.1418 79.5794 87.5911 80.84 88.3197C81.8373 88.8963 82.2166 90.2244 81.5372 91.4025C80.8419 92.6084 79.5115 92.9297 78.5141 92.3532ZM76.1765 88.3037C75.0575 90.2442 75.3115 92.5902 77.4586 93.8314C78.0681 94.1837 79.1459 94.4925 80.2115 93.9258L79.6281 94.9376L81.3042 95.9065L87.3306 85.4555L85.6545 84.4867L83.0489 89.0052C82.9584 87.881 82.2557 87.0497 81.5908 86.6654C79.4437 85.4243 77.2794 86.3909 76.1765 88.3037ZM84.0188 101.837L87.9232 98.8456L94.4662 93.9049L92.61 92.8319L88.0033 96.3046L88.6898 90.5658L86.8059 89.4768L85.9317 97.8792L82.1626 100.764L84.0188 101.837Z" fill="#FCFCFC"/>
<path d="M40.515 84.4976L39.8785 85.6013L40.7564 86.1087L38.1198 90.681L36.9831 90.0239L36.4735 91.2459C38.1955 92.2414 40.5222 93.5413 42.7672 94.3585L43.2729 93.2994C42.8642 93.1232 42.4331 92.9341 42.0084 92.7336L44.5606 88.3078L45.4497 88.8217L46.0861 87.7181L40.515 84.4976ZM39.4947 91.4457L42.1183 86.896L43.21 87.5271L40.6124 92.0318L39.4947 91.4457ZM41.5896 97.3116L42.9964 98.1248L45.9382 93.0232L47.4126 93.8755L48.075 92.7268L46.6006 91.8745L48.8151 88.0343L47.4082 87.221L41.5896 97.3116ZM51.0766 90.3326L47.8621 95.9072L54.9414 99.9995L55.5843 98.8845L49.9231 95.612L50.592 94.4521L55.9381 97.5424L56.5615 96.4613L51.2154 93.3709L51.8583 92.256L57.4407 95.483L58.0772 94.3793L51.0766 90.3326ZM45.2993 97.8793L54.427 103.156L55.0764 102.03L45.9487 96.7532L45.2993 97.8793ZM65.6308 98.5206L65.2087 99.2526C64.358 100.728 62.1078 101.559 59.6698 100.661L59.5974 102.165C61.532 102.818 63.3977 102.575 64.8021 101.675C64.7081 103.348 65.4374 105.076 66.9693 106.427L68.246 105.618C66.2271 103.941 65.8242 101.62 66.6944 100.111L67.1165 99.3794L65.6308 98.5206ZM57.1003 104.596L66.228 109.872L66.8839 108.735L57.7562 103.459L57.1003 104.596ZM78.7496 105.308L76.678 108.901L74.911 107.879L74.2616 109.005L76.0286 110.027L72.9114 115.432L74.2958 116.233L80.1339 106.108L78.7496 105.308ZM67.6231 109.327L68.4335 109.796C70.1555 110.791 71.4757 111.494 73.0753 112.104L73.5766 110.922C72.2104 110.402 71.0767 109.792 69.6634 108.99L70.7803 107.053L73.7179 108.751L74.3478 107.659L71.4103 105.961L72.3779 104.283L75.6643 106.182L76.3137 105.056L71.6429 102.356L67.6231 109.327ZM88.1412 110.752L82.303 120.876L83.6986 121.683L89.5368 111.559L88.1412 110.752ZM77.3628 114.792L78.2181 115.287C80.3678 116.529 81.6703 117.237 83.217 117.756L83.7556 116.536C82.3522 116.055 81.2007 115.449 79.4047 114.426L82.0023 109.921L85.4801 111.932L86.1295 110.805L81.2786 108.001L77.3628 114.792Z" fill="#FCFCFC"/>
<circle r="59" transform="matrix(0.813182 -0.58201 0.581065 0.813857 151.559 185.695)" fill="#181818" stroke="#FCFCFC" stroke-width="2" stroke-dasharray="6 6"/>
<path d="M132.434 169.174L130.911 170.264L129.597 172.168L131.142 173.286L132.111 171.944L137.624 179.666L139.146 178.576L132.434 169.174ZM141.993 174.61L140.392 175.756L142.177 179.358L143.322 178.538L141.993 174.61ZM143.925 172.617L145.041 174.18L151.104 169.84L149.989 168.278L146.332 170.894C147.027 168.371 147.86 165.571 146.484 163.644C145.191 161.834 142.682 161.761 141.225 162.804C140.379 163.409 139.154 164.915 139.593 167.1L141.489 166.727C141.24 165.469 141.781 164.767 142.34 164.366C143.147 163.789 144.244 163.811 144.922 164.761C146.029 166.311 144.523 169.435 143.938 172.608L143.925 172.617ZM135.234 186.63L128.611 191.37L135.528 201.058L142.151 196.318L141.044 194.768L135.97 198.4L134.073 195.744L138.731 192.41L137.625 190.86L132.967 194.194L131.256 191.798L136.331 188.166L135.234 186.63ZM145.342 183.645L143.638 184.865L145.187 191.055L139.839 187.584L138.134 188.804L145.922 193.599L147.288 192.621L145.342 183.645ZM152.743 182.657L149.152 185.227C148.57 184.109 149.003 183.09 149.966 182.401C150.994 181.666 152.029 181.849 152.743 182.657ZM148.114 186.856C149.452 188.731 151.784 189.463 153.904 187.945C156.194 186.306 155.731 184.335 155.731 184.335L153.928 184.701C153.928 184.701 154.211 185.62 152.923 186.542C151.856 187.306 150.854 187.197 150.054 186.49L155.115 182.867C155.115 182.867 154.323 181.565 153.154 180.808C153.05 180.745 151.135 179.44 148.949 181.004C146.828 182.522 146.765 184.967 148.114 186.856ZM160.544 177.526L163.193 181.238L164.742 180.129L162.064 176.379C160.502 174.191 158.554 174.189 156.81 175.437C156.121 175.93 155.602 176.774 155.69 177.695L155.002 176.731L153.454 177.839L158.353 184.702L159.902 183.593L157.289 179.934C156.603 179.028 156.805 177.742 157.742 177.072C158.874 176.262 159.874 176.589 160.544 177.526ZM170.415 175.891L168.969 174.526C168.772 174.746 168.328 175.143 167.993 175.362C167.646 175.591 167.281 175.577 166.984 175.16L164.697 171.957L166.505 170.662L165.427 169.152L163.618 170.446L161.88 168.011L160.266 169.166L162.005 171.601L160.821 172.448L161.899 173.959L163.083 173.111L165.37 176.315C166.254 177.552 168.012 177.73 169.094 177.014C169.559 176.701 170.14 176.167 170.415 175.891Z" fill="#FCFCFC"/>
<path d="M141.352 209.725L140.115 210.611L139.048 212.158L140.303 213.066L141.09 211.975L145.569 218.249L146.806 217.364L141.352 209.725ZM148.802 214.369L147.501 215.3L148.952 218.226L149.882 217.561L148.802 214.369ZM150.055 212.977L150.962 214.246L155.888 210.72L154.981 209.451L152.011 211.577C152.575 209.526 153.252 207.252 152.134 205.686C151.084 204.215 149.045 204.156 147.861 205.003C147.173 205.495 146.178 206.719 146.535 208.494L148.076 208.19C147.873 207.168 148.312 206.598 148.767 206.273C149.422 205.804 150.314 205.821 150.865 206.594C151.764 207.853 150.541 210.391 150.066 212.969L150.055 212.977ZM151.549 203.339L152.281 204.365L154.237 202.965L154.509 203.346C155.536 204.785 155.945 206.923 154.928 208.721L156.347 209.209C157.074 207.969 157.12 206.466 156.698 205.025C157.863 205.806 159.202 206.206 160.539 205.953L160.527 204.459C158.551 204.802 156.773 203.788 155.799 202.423L155.527 202.042L157.44 200.673L156.707 199.646L154.794 201.016L153.827 199.662L152.527 200.592L153.494 201.947L151.549 203.339ZM163.148 207.011L164.458 206.073L161.105 201.375L162.511 200.369L161.74 199.29L160.334 200.296L157.69 196.593L156.379 197.531L163.148 207.011ZM168.15 189.106L169.835 191.466L169.084 192.003L167.528 189.824L166.302 190.701L170.185 196.139L171.411 195.262L169.84 193.061L170.59 192.524L172.396 195.053L173.633 194.167L169.387 188.221L168.15 189.106ZM162.707 196.024L167.326 192.718L166.601 191.702L164.942 192.89L164.307 192.001L163.017 192.924L163.652 193.813L161.982 195.008L162.707 196.024ZM164.397 197.788C165.1 198.772 166.432 198.825 167.605 197.986C168.8 197.131 169.18 195.851 168.478 194.867C167.783 193.894 166.443 193.83 165.248 194.685C164.075 195.524 163.702 196.814 164.397 197.788ZM165.549 196.963C165.225 196.508 165.413 195.989 165.921 195.626C166.439 195.255 166.99 195.245 167.315 195.699C167.64 196.154 167.459 196.684 166.941 197.054C166.433 197.418 165.874 197.418 165.549 196.963ZM168.483 200.602C169.261 201.692 170.933 201.439 172.963 199.986C174.993 198.533 175.763 197.039 174.985 195.949C174.199 194.849 172.538 195.095 170.508 196.547C168.478 198 167.698 199.502 168.483 200.602ZM169.794 199.664C169.424 199.146 169.931 198.447 171.211 197.531C172.49 196.616 173.304 196.369 173.674 196.887C174.029 197.385 173.54 198.087 172.26 199.002C170.981 199.918 170.149 200.161 169.794 199.664ZM172.94 186.798L173.937 188.194C175.198 189.961 175.726 192.333 174.68 194.201L176.228 194.692C176.918 193.399 176.922 191.861 176.458 190.339C177.665 191.201 179.024 191.651 180.381 191.448L180.433 189.843C178.393 190.185 176.453 188.967 175.237 187.264L174.24 185.867L172.94 186.798ZM183.112 192.722L184.423 191.784L181.046 187.055L182.452 186.049L181.674 184.959L180.268 185.965L177.654 182.304L176.344 183.243L183.112 192.722Z" fill="#FCFCFC"/>
<ellipse rx="95" ry="52.5" transform="matrix(0.955867 -0.2938 0.293142 0.956069 190.617 97.5619)" fill="#FCFCFC"/>
<path d="M275.69 71.4138C279.372 83.4241 273.537 97.365 260.589 110.268C247.678 123.135 227.881 134.755 204.249 142.019C180.616 149.283 157.718 150.786 139.819 147.389C121.871 143.982 109.228 135.721 105.545 123.71C101.863 111.7 107.698 97.7589 120.646 84.8557C133.557 71.9887 153.354 60.3685 176.986 53.1048C200.619 45.841 223.517 44.3381 241.416 47.7353C259.364 51.142 272.007 59.4034 275.69 71.4138Z" stroke="#4877AF" stroke-width="2"/>
<path d="M145.097 86.2068L143.246 86.7756L144.667 91.4106L139.146 93.1076L137.725 88.4726L135.89 89.0367L139.379 100.418L141.215 99.8536L139.7 94.9127L145.221 93.2157L146.736 98.1566L148.586 97.5878L145.097 86.2068ZM153.762 94.1556C152.386 94.5787 151.205 93.837 150.792 92.4908C150.384 91.16 150.946 89.8824 152.322 89.4594C153.699 89.0363 154.88 89.778 155.288 91.1088C155.701 92.455 155.139 93.7325 153.762 94.1556ZM149.11 93.0079C149.785 95.2107 151.922 96.6128 154.292 95.8842C156.77 95.1226 157.646 92.7945 156.971 90.5917C156.295 88.3889 154.265 86.954 151.788 87.7155C149.417 88.4441 148.434 90.8052 149.11 93.0079ZM168.854 86.4539L170.223 90.9207L172.043 90.3613L170.659 85.8486C169.942 83.5082 168.011 82.7792 166.191 83.3386C164.891 83.7381 164.351 84.758 164.04 85.6568C163.214 84.8729 162.353 84.5185 161.083 84.9086C160.227 85.1719 159.603 85.8658 159.48 86.7741L159.095 85.5197L157.275 86.0791L159.747 94.1407L161.567 93.5813L160.211 89.1604C159.892 88.1202 160.453 87.1109 161.432 86.8101C162.579 86.4575 163.351 87.1743 163.623 88.0616L164.993 92.5283L166.797 91.9736L165.428 87.5069C165.062 86.3137 165.633 85.5021 166.627 85.1965C167.56 84.9098 168.582 85.5667 168.854 86.4539ZM178.102 83.3435L173.881 84.6409C173.683 83.396 174.417 82.568 175.548 82.2201C176.757 81.8487 177.681 82.3515 178.102 83.3435ZM172.379 85.8557C173.054 88.0585 175.034 89.4923 177.527 88.7261C180.218 87.8987 180.404 85.8833 180.404 85.8833L178.577 85.6579C178.577 85.6579 178.554 86.6192 177.04 87.0846C175.786 87.47 174.87 87.0485 174.336 86.1247L180.285 84.2961C180.285 84.2961 179.947 82.81 179.077 81.7213C178.999 81.6283 177.596 79.783 175.027 80.5727C172.534 81.3389 171.699 83.6377 172.379 85.8557ZM185.831 84.2153C184.255 84.6995 183.178 83.859 182.76 82.4976C182.343 81.1361 182.764 79.835 184.339 79.3508C184.981 79.1534 185.632 79.2548 186.191 79.5515L187.132 77.8728C186.149 77.3383 184.978 77.1791 183.847 77.5269C181.247 78.3261 180.319 80.7036 181.032 83.0287C181.745 85.3539 183.845 86.8007 186.445 86.0015C187.577 85.6537 188.456 84.8645 188.971 83.8693L187.251 83.0086C186.954 83.5686 186.473 84.0178 185.831 84.2153ZM193.506 81.9399C192.129 82.363 190.948 81.6213 190.535 80.2752C190.127 78.9443 190.689 77.6668 192.066 77.2437C193.442 76.8206 194.623 77.5623 195.031 78.8932C195.444 80.2393 194.882 81.5169 193.506 81.9399ZM188.853 80.7923C189.528 82.9951 191.665 84.3971 194.036 83.6685C196.513 82.907 197.389 80.5789 196.714 78.3761C196.038 76.1733 194.009 74.7383 191.531 75.4998C189.16 76.2285 188.177 78.5895 188.853 80.7923ZM208.597 74.2382L209.966 78.705L211.786 78.1456L210.403 73.633C209.685 71.2925 207.754 70.5635 205.935 71.1229C204.635 71.5225 204.094 72.5424 203.784 73.4412C202.958 72.6573 202.096 72.3028 200.826 72.693C199.97 72.9562 199.346 73.6502 199.223 74.5584L198.838 73.3041L197.018 73.8635L199.49 81.925L201.31 81.3657L199.954 76.9448C199.636 75.9046 200.196 74.8953 201.175 74.5944C202.322 74.2419 203.094 74.9587 203.366 75.8459L204.736 80.3127L206.54 79.758L205.171 75.2912C204.805 74.0981 205.376 73.2864 206.37 72.9809C207.303 72.6941 208.325 73.351 208.597 74.2382ZM211.324 69.3994L213.829 77.5681L215.618 77.0181L213.113 68.8494L211.324 69.3994ZM210.326 66.5259C210.499 67.0919 210.987 67.4274 211.629 67.2299C212.287 67.0278 212.503 66.4761 212.329 65.9101C212.16 65.3594 211.673 65.0239 211.015 65.226C210.373 65.4235 210.157 65.9752 210.326 66.5259ZM222.046 70.2215L223.383 74.5811L225.203 74.0218L223.852 69.6162C223.064 67.0463 221.217 66.4256 219.168 67.0555C218.357 67.3046 217.598 67.9397 217.389 68.8409L217.042 67.7089L215.222 68.2683L217.694 76.3298L219.514 75.7705L218.196 71.472C217.832 70.3953 218.432 69.2401 219.533 68.9016C220.864 68.4927 221.709 69.1201 222.046 70.2215ZM230.084 70.6467C228.647 71.0885 227.669 70.3011 227.261 68.9702C226.867 67.6853 227.235 66.4841 228.673 66.0422C229.804 65.6944 231.103 66.3831 231.497 67.6681C231.905 68.9989 231.216 70.2988 230.084 70.6467ZM225.4 69.559C226.117 71.8995 228.044 73.2156 230.491 72.4634C231.179 72.2519 232.079 71.6404 232.493 70.4252L232.803 71.4348C233.214 72.8315 231.931 73.7782 230.891 74.0978C230.326 74.2718 229.344 74.2891 228.56 73.6429L227.329 75.1425C228.426 76.0442 230.018 76.3248 231.44 75.8876C233.811 75.159 235.331 73.1852 234.568 70.6412L232.218 62.9774L230.383 63.5415L230.777 64.8264C229.829 64.0295 228.668 64.1185 227.996 64.3254C225.549 65.0775 224.691 67.2492 225.4 69.559ZM180.901 102.369L179.234 102.881L176.879 95.2021L178.546 94.6897C180.657 94.041 182.91 95.2231 183.562 97.3494C184.214 99.4757 183.011 101.72 180.901 102.369ZM177.951 105.301L181.499 104.21C184.619 103.251 186.389 99.9118 185.428 96.7759C184.466 93.64 181.129 91.8704 178.009 92.8294L174.461 93.9199L177.951 105.301ZM191.737 99.2725C190.284 99.7191 189.276 98.941 188.867 97.6102C188.459 96.2793 188.853 95.0535 190.306 94.6069C191.438 94.259 192.743 94.9125 193.18 96.2845C193.582 97.6507 192.869 98.9247 191.737 99.2725ZM187.032 98.1743C187.703 100.362 189.672 101.816 192.119 101.063C192.99 100.795 193.755 100.125 194.13 99.0557L194.482 100.203L196.317 99.6389L193.846 91.5773L192.01 92.1414L192.409 93.4417C191.504 92.7825 190.495 92.6574 189.623 92.9253C187.176 93.6775 186.357 95.9715 187.032 98.1743ZM202.139 101.633L202.612 96.7335L203.456 88.5731L201.407 89.203L200.808 94.9444L197.079 90.5333L194.999 91.1726L200.548 97.5352L200.089 102.262L202.139 101.633Z" fill="#4877AF"/>
<path d="M171.591 125.438L172.59 128.694L180.269 126.334L179.271 123.078L171.591 125.438ZM170.228 125.204L180.293 122.111L179.931 120.93L175.669 122.24L175.49 121.656C177.357 120.96 178.237 120.104 177.955 119.184C177.635 118.14 176.137 118.002 173.751 118.736C171.366 119.469 170.216 120.421 170.536 121.465C170.818 122.384 172.013 122.602 173.949 122.129L174.128 122.714L169.866 124.024L170.228 125.204ZM169.116 119.848L178.162 117.067L177.804 115.899L174.076 117.045L173.805 116.162L172.265 116.636L172.535 117.518L168.758 118.679L169.116 119.848ZM173.743 127.089L173.445 126.119L178.118 124.683L178.415 125.653L173.743 127.089ZM172.176 120.961C172.058 120.575 172.664 120.199 174.068 119.767C175.484 119.332 176.196 119.303 176.314 119.689C176.429 120.062 175.823 120.438 174.407 120.873C173.003 121.305 172.291 121.333 172.176 120.961ZM184.49 114.156L179.408 115.719L179.785 116.949L183.339 115.857C183.453 116.406 183.535 116.939 183.559 117.462L179.738 118.881L180.321 120.116L183.464 118.837C183.212 120.275 182.438 121.655 180.956 123.117L182.163 124.038C185.511 120.724 185.538 117.574 184.49 114.156ZM185.846 118.622L187.958 117.973L189.677 123.578L191.218 123.105L187.803 111.969L186.262 112.442L187.577 116.73L185.465 117.379L185.846 118.622ZM189.804 112.197L191.336 117.193L196.704 115.543L195.173 110.547L189.804 112.197ZM193.443 120.027C193.866 121.407 195.58 121.764 197.916 121.046C200.252 120.328 201.471 119.069 201.048 117.69C200.625 116.31 198.907 115.941 196.571 116.659C194.234 117.377 193.02 118.648 193.443 120.027ZM192.466 115.513L191.681 112.953L194.055 112.223L194.84 114.783L192.466 115.513ZM194.971 119.558C194.765 118.886 195.462 118.319 196.94 117.864C198.407 117.414 199.301 117.492 199.507 118.163C199.705 118.81 199.02 119.415 197.554 119.865C196.075 120.32 195.169 120.204 194.971 119.558ZM198.709 115.784L200.262 115.306L198.254 108.756L196.701 109.234L198.709 115.784ZM207.583 105.875L210.997 117.012L212.463 116.561L209.049 105.425L207.583 105.875ZM202.469 116.913L203.239 116.676C204.879 116.172 205.97 115.782 207.136 115.152L206.627 113.935C205.673 114.459 204.785 114.8 203.596 115.179L202.098 110.295L204.832 109.455L204.455 108.224L200.205 109.53L202.469 116.913ZM204.943 112.521L206.919 111.914L208.546 117.221L209.987 116.778L206.79 106.35L205.349 106.793L206.538 110.671L204.562 111.278L204.943 112.521ZM217.644 102.769L221.07 113.943L222.624 113.465L219.198 102.292L217.644 102.769ZM211.748 109.791C212.498 112.239 214.21 113.386 215.9 112.866C217.577 112.351 218.339 110.444 217.588 107.995C216.841 105.559 215.142 104.409 213.465 104.924C211.775 105.444 211.001 107.354 211.748 109.791ZM213.239 109.332C212.728 107.667 213.034 106.58 213.891 106.316C214.736 106.057 215.599 106.784 216.109 108.45C216.62 110.115 216.318 111.215 215.473 111.474C214.615 111.738 213.749 110.998 213.239 109.332Z" fill="#4877AF"/>
<path d="M428.262 125.442C422.878 138.329 408.462 146.232 389.101 148.342C369.78 150.447 345.778 146.736 321.706 136.657C297.634 126.577 278.141 112.075 266.069 96.8247C253.972 81.5431 249.467 65.7176 254.85 52.83C260.233 39.9424 274.649 32.0395 294.01 29.9302C313.332 27.8251 337.333 31.5353 361.405 41.6149C385.477 51.6944 404.971 66.1967 417.043 81.447C429.14 96.7287 433.645 112.554 428.262 125.442Z" fill="#181818" stroke="#FCFCFC" stroke-width="2"/>
<path d="M343.586 63.7147L336.221 60.6311L331.633 71.6153L333.404 72.3569L335.328 67.7506L340.11 69.7528L340.856 67.9664L336.074 65.9642L337.265 63.1148L342.858 65.4569L343.586 63.7147ZM344.789 69.5783L345.374 68.1757L343.618 67.4403L340.356 75.2504L342.112 75.9858L343.752 72.0586C344.178 71.0399 345.658 70.2371 347.06 70.8242L347.763 69.1411C347.084 68.8568 345.718 68.8054 344.789 69.5783ZM352.69 75.0722L348.616 73.3666C349.26 72.283 350.352 72.1161 351.444 72.5734C352.61 73.0616 352.999 74.0398 352.69 75.0722ZM346.686 73.3389C345.798 75.4649 346.403 77.8346 348.809 78.8419C351.406 79.9295 352.836 78.4988 352.836 78.4988L351.576 77.156C351.576 77.156 350.944 77.8801 349.483 77.2683C348.273 76.7616 347.839 75.8511 348.018 74.7987L353.759 77.2026C353.759 77.2026 354.448 75.8433 354.475 74.4497C354.474 74.3278 354.575 72.011 352.096 70.9728C349.69 69.9655 347.58 71.1981 346.686 73.3389ZM361.395 78.7173L357.321 77.0117C357.965 75.9281 359.057 75.7612 360.15 76.2185C361.316 76.7067 361.705 77.6849 361.395 78.7173ZM355.391 76.984C354.503 79.1099 355.108 81.4797 357.514 82.487C360.111 83.5746 361.541 82.1438 361.541 82.1438L360.282 80.8011C360.282 80.8011 359.65 81.5252 358.189 80.9134C356.978 80.4067 356.544 79.4961 356.723 78.4438L362.464 80.8477C362.464 80.8477 363.153 79.4884 363.181 78.0948C363.18 77.9729 363.28 75.656 360.801 74.6178C358.395 73.6105 356.285 74.8432 355.391 76.984ZM314.217 68.7634L312.446 68.0219L308.925 76.452L306.513 65.5376L304.27 64.5983L299.682 75.5826L301.483 76.3365L305.01 67.8916L307.327 78.7837L309.629 79.7477L314.217 68.7634ZM318.908 78.2732L314.835 76.5676C315.478 75.484 316.571 75.3171 317.663 75.7744C318.829 76.2626 319.218 77.2408 318.908 78.2732ZM312.905 76.5398C312.017 78.6658 312.622 81.0355 315.028 82.0428C317.625 83.1305 319.055 81.6997 319.055 81.6997L317.795 80.357C317.795 80.357 317.163 81.0811 315.702 80.4693C314.492 79.9626 314.057 79.052 314.237 77.9997L319.978 80.4036C319.978 80.4036 320.667 79.0443 320.694 77.6507C320.693 77.5288 320.794 75.2119 318.314 74.1737C315.909 73.1664 313.799 74.3991 312.905 76.5398ZM324.747 85.9046L325.145 83.9551C324.855 83.9029 324.284 83.7333 323.922 83.564C323.544 83.3886 323.365 83.0707 323.562 82.5982L325.079 78.9663L327.13 79.8253L327.846 78.1127L325.794 77.2537L326.948 74.4929L325.118 73.7266L323.964 76.4874L322.621 75.9251L321.906 77.6377L323.249 78.2L321.732 81.8319C321.146 83.2345 321.921 84.8252 323.098 85.37C323.608 85.6011 324.368 85.8153 324.747 85.9046ZM340.172 83.3781L338.327 82.6057L334.881 87.0778L335.508 81.4253L333.693 80.6652L330.159 85.1002L330.889 79.4911L329.044 78.7186L328.126 87.4755L329.809 88.18L333.554 83.573L332.923 89.4839L334.605 90.1884L340.172 83.3781ZM341.762 91.2946C340.434 90.7385 340 89.4118 340.543 88.1126C341.079 86.8281 342.327 86.206 343.656 86.7621C344.984 87.3183 345.418 88.645 344.882 89.9294C344.339 91.2286 343.091 91.8508 341.762 91.2946ZM338.919 87.4328C338.031 89.5588 338.778 92.0051 341.066 92.9629C343.456 93.9641 345.617 92.7352 346.505 90.6092C347.393 88.4832 346.749 86.0802 344.359 85.0791C342.071 84.1212 339.807 85.3068 338.919 87.4328ZM350.627 89.3691L351.213 87.9666L349.457 87.2312L346.195 95.0413L347.951 95.7766L349.591 91.8495C350.017 90.8308 351.497 90.028 352.899 90.6151L353.602 88.932C352.923 88.6477 351.557 88.5963 350.627 89.3691ZM358.316 86.8642L356.559 86.1288L351.829 97.4527L353.586 98.1881L354.406 96.2245L355.888 95.4574L356.655 99.4734L358.677 100.32L357.536 94.7079L362.03 92.5828L359.817 91.6558L355.442 93.7442L358.316 86.8642ZM363.657 93.1423L360.364 101.026L362.09 101.749L365.383 93.8653L363.657 93.1423ZM364.725 90.2939C364.497 90.8402 364.658 91.4105 365.277 91.67C365.912 91.9358 366.43 91.6497 366.658 91.1035C366.88 90.572 366.72 90.0017 366.085 89.736C365.465 89.4764 364.947 89.7624 364.725 90.2939ZM371.373 100.641L369.616 104.848L371.372 105.584L373.148 101.332C374.184 98.8513 373.161 97.1913 371.183 96.3632C370.401 96.0357 369.412 96.0378 368.675 96.5968L369.132 95.5042L367.375 94.7689L364.126 102.549L365.882 103.285L367.615 99.1361C368.023 98.0755 369.222 97.5715 370.285 98.0164C371.568 98.5541 371.817 99.5776 371.373 100.641ZM377.28 106.115C375.893 105.534 375.644 104.302 376.181 103.018C376.699 101.778 377.749 101.09 379.136 101.671C380.228 102.128 380.787 103.489 380.269 104.73C379.732 106.014 378.372 106.572 377.28 106.115ZM374.374 102.279C373.43 104.538 374.07 106.783 376.432 107.772C377.096 108.05 378.179 108.156 379.273 107.487L378.866 108.461C378.29 109.799 376.699 109.705 375.696 109.285C375.15 109.056 374.384 108.441 374.194 107.442L372.29 107.807C372.557 109.202 373.602 110.437 374.974 111.012C377.262 111.97 379.691 111.426 380.73 108.982L383.819 101.585L382.048 100.843L381.53 102.083C381.311 100.864 380.362 100.189 379.713 99.9173C377.351 98.9286 375.305 100.049 374.374 102.279Z" fill="#FCFCFC"/>
<path d="M305.279 89.1861L304.768 90.4096L307.023 91.3536L306.737 92.0373C306 93.8007 304.235 95.4293 302.151 95.529L302.499 97.056C303.98 96.9854 305.361 96.1404 306.432 94.9258C306.359 96.4171 306.754 97.8652 307.718 98.9311L309.024 98.0969C307.621 96.5652 307.542 94.2914 308.224 92.66L308.509 91.9762L310.668 92.88L311.179 91.6564L305.279 89.1861ZM307.948 101.719L309.435 102.342L311.689 96.9439L313.272 97.6067L313.783 96.3831L312.201 95.7204L313.924 91.5939L312.437 90.9713L307.948 101.719ZM320.468 94.4465C318.033 93.4272 316.312 93.4675 315.816 94.655C315.32 95.8426 316.5 97.0979 318.934 98.1172C321.381 99.1414 323.09 99.0962 323.586 97.9086C324.082 96.7211 322.914 95.4708 320.468 94.4465ZM313.406 97.6911L315.865 98.7204L315.539 99.5001L314.196 98.9377L313.735 100.041L319.683 102.532L319.437 103.12L313.513 100.639L312.336 103.458L320.01 106.672L320.476 105.556L314.253 102.95L314.528 102.29L320.464 104.776L321.607 102.041L320.359 101.519L320.685 100.739L323.119 101.758L323.605 100.595L313.892 96.5275L313.406 97.6911ZM317.363 95.3027C317.573 94.7989 318.446 94.8684 320.017 95.5261C321.587 96.1839 322.25 96.7571 322.039 97.2609C321.824 97.7767 320.961 97.6833 319.39 97.0256C317.819 96.3678 317.147 95.8185 317.363 95.3027ZM317.002 100.113L317.328 99.3329L319.21 100.121L318.885 100.901L317.002 100.113ZM328.165 98.7688L325.188 105.894L325.944 106.211C327.299 106.778 328.482 107.217 329.892 107.483L330.217 106.167C329.124 105.95 328.183 105.64 327.182 105.235L329.628 99.3814L328.165 98.7688ZM329.657 103.594L331.804 104.492L329.444 110.142L330.823 110.72L335.032 100.644L333.653 100.066L332.305 103.293L330.158 102.394L329.657 103.594ZM331.522 111.576L332.937 112.169L337.426 101.421L336.011 100.828L331.522 111.576ZM339.117 103.073L336.637 109.011L344.18 112.169L344.676 110.982L338.644 108.456L339.16 107.22L344.856 109.605L345.337 108.454L339.641 106.069L340.137 104.881L346.085 107.372L346.576 106.196L339.117 103.073ZM334.345 111.293L344.07 115.365L344.571 114.165L334.846 110.093L334.345 111.293ZM356.001 109.198L352.975 116.444L350.792 115.53L350.321 116.658L352.504 117.571L351.507 119.959L352.994 120.581L357.488 109.821L356.001 109.198ZM346.097 111.492L345.764 112.762C346.531 113.083 347.371 113.435 348.273 113.77L346.69 117.561L348.176 118.184L349.79 114.321C350.762 114.658 351.779 114.956 352.784 115.18L353.151 114.065C350.73 113.418 348.087 112.326 346.097 111.492ZM348.011 108.967C347.465 110.275 348.233 111.64 349.828 112.307C351.411 112.97 352.921 112.56 353.467 111.252C354.008 109.956 353.24 108.592 351.657 107.929C350.062 107.261 348.552 107.672 348.011 108.967ZM349.414 109.555C349.694 108.883 350.416 108.706 351.196 109.033C351.987 109.364 352.356 109.998 352.076 110.67C351.79 111.353 351.09 111.511 350.299 111.18C349.519 110.853 349.128 110.239 349.414 109.555ZM364.012 113.328L358.987 111.224L358.496 112.4L361.95 113.846C361.794 114.119 361.618 114.369 361.412 114.593L357.556 113.133L357.274 114.382L360.343 115.4C359.419 115.858 358.171 116.012 356.449 115.784L356.521 117.196C360.537 117.666 362.774 116.291 364.012 113.328ZM356.562 119.595C356.006 120.926 357.083 122.293 359.337 123.237C361.592 124.181 363.332 123.994 363.888 122.663C364.445 121.331 363.36 119.947 361.106 119.003C358.852 118.059 357.118 118.263 356.562 119.595ZM358.037 120.212C358.307 119.565 359.193 119.569 360.62 120.167C362.047 120.764 362.684 121.397 362.413 122.045C362.148 122.681 361.24 122.695 359.813 122.098C358.386 121.5 357.771 120.848 358.037 120.212ZM363.299 119.724L364.797 120.351L367.448 114.006L365.949 113.378L363.299 119.724Z" fill="#FCFCFC"/>
<rect width="76.9161" height="26.9963" transform="matrix(0.942433 -0.334394 0.333666 0.942691 393.504 96.7207)" fill="white"/>
<path d="M420.289 107.934C420.778 107.697 421.315 107.236 421.697 106.877C422.381 106.157 422.669 105.307 422.708 104.608C422.808 103.093 421.94 102.032 421.013 101.661C420.382 101.407 419.468 101.254 417.332 101.423L416.527 101.486C416.03 101.519 415.859 101.532 415.655 101.493C415.455 101.468 415.278 101.372 415.134 101.28C414.797 101.049 414.715 100.728 414.707 100.524C414.682 99.9597 415.07 99.6154 415.525 99.3742C416.179 99.0627 416.981 98.8575 417.914 99.02C418.199 99.062 418.409 99.1149 418.562 99.1879L419.673 97.2021C419.28 96.9913 418.798 96.8439 418.261 96.764C416.786 96.5076 415.385 96.9093 414.506 97.3484C413.482 97.871 412.473 98.977 412.438 100.406C412.389 101.394 413.082 102.676 413.946 103.229C414.071 103.312 414.516 103.536 415.059 103.678C415.564 103.801 416.082 103.824 416.731 103.769L417.578 103.691C419.212 103.541 419.772 103.55 420.059 103.686C420.389 103.856 420.553 104.227 420.487 104.537C420.462 104.737 420.349 105 420.093 105.266C419.809 105.542 419.513 105.742 419.316 105.86C418.518 106.302 417.927 106.385 416.933 106.228C416.219 106.099 415.829 105.808 415.684 105.621L413.965 107.058C414.294 107.451 415.224 108.235 416.6 108.479C417.951 108.7 419.139 108.549 420.289 107.934ZM429.11 100.268L430.472 104.114L432.507 103.392L431.026 99.2062C430.43 97.5235 428.816 96.1545 426.328 97.0373C426.144 97.1025 425.195 97.5667 424.826 98.4137L423.325 94.1716L421.19 94.929L425.114 106.015L427.248 105.258L425.887 101.411C425.622 100.662 426.023 99.5487 427.055 99.1825C428.285 98.7461 428.845 99.5184 429.11 100.268ZM436.765 99.605C435.705 99.9812 434.633 99.4702 434.257 98.4097C433.882 97.3492 434.388 96.2623 435.449 95.8861C436.523 95.5049 437.586 96.035 437.961 97.0955C438.337 98.156 437.839 99.2238 436.765 99.605ZM432.335 99.0918C433.071 101.17 435.284 102.39 437.476 101.613C439.808 100.785 440.619 98.492 439.884 96.4133C439.143 94.3206 437.07 93.0505 434.738 93.8781C432.547 94.6556 431.594 96.9991 432.335 99.0918ZM443.386 95.2342L442.01 91.3456L439.889 92.098L441.266 95.9866C442.297 98.8995 444.43 99.0817 446.197 98.4548C446.635 98.2993 447.573 97.7119 447.69 96.8744L448.021 97.8077L450.141 97.0553L447.438 89.4195L445.318 90.1719L446.694 94.0605C447.102 95.0777 446.602 96.0031 445.726 96.3141C444.468 96.7605 443.752 96.2665 443.386 95.2342ZM457.052 94.444L455.801 92.4369C455.552 92.5888 454.927 92.8902 454.549 92.9924C454.276 93.0735 454.047 93.0115 453.917 92.6438L452.881 89.7168L455.058 88.9443L454.322 86.8657L452.145 87.6381L451.109 84.7111L448.875 85.5036L449.911 88.4306L448.554 88.9122L449.29 90.9908L450.647 90.5093L451.683 93.4363C452.229 94.9776 454.009 95.6032 455.199 95.2767C455.788 95.0993 456.686 94.6693 457.052 94.444Z" fill="#4877AF"/>
<path d="M319.384 218.877L346.575 221.533L346.638 194.194L367.737 176.83L348.463 157.445L351.101 130.236L323.783 130.151L306.417 109.032L287.057 128.308L259.865 125.652L259.797 152.988L238.706 170.349L257.977 189.74L255.34 216.949L282.66 217.028L300.018 238.15L319.384 218.877Z" fill="#4877AF"/>
<path d="M318.133 214.108L317.665 214.062L317.332 214.394L300.359 231.285L285.145 212.773L284.846 212.409L284.375 212.408L260.431 212.339L262.743 188.491L262.788 188.023L262.456 187.689L245.566 170.694L264.051 155.478L264.414 155.179L264.416 154.708L264.475 130.749L288.307 133.077L288.776 133.123L289.109 132.791L306.077 115.897L321.298 134.407L321.597 134.77L322.067 134.772L346.01 134.846L343.698 158.693L343.653 159.162L343.985 159.496L360.877 176.486L342.384 191.704L342.021 192.003L342.02 192.474L341.965 216.436L318.133 214.108Z" stroke="#FCFCFC" stroke-width="2"/>
<path d="M291.542 142.108L289.623 141.226L280.157 149.977L282.018 150.832L284.474 148.545L289.359 150.789L289.244 154.152L291.09 155L291.542 142.108ZM285.973 147.156L289.653 143.811L289.433 148.745L285.973 147.156ZM297.241 144.356L292.128 155.512L293.858 156.307L298.971 145.151L297.241 144.356ZM300.663 145.928L295.55 157.084L297.28 157.879L302.393 146.723L300.663 145.928ZM301.984 152.275L301.184 154.02L307.611 156.973L308.41 155.227L301.984 152.275ZM314.469 159.226L311.649 157.93L313.322 154.279L316.142 155.575C317.146 156.036 317.587 157.224 317.127 158.228C316.673 159.217 315.473 159.686 314.469 159.226ZM307.438 162.51L309.182 163.312L310.842 159.69L313.634 160.972C315.626 161.887 317.957 160.986 318.857 159.023C319.77 157.03 318.925 154.687 316.933 153.772L312.397 151.688L307.438 162.51ZM320.797 166.763C319.416 166.129 319.181 164.876 319.76 163.611C320.34 162.345 321.449 161.693 322.83 162.327C323.906 162.821 324.446 164.178 323.861 165.494C323.253 166.782 321.873 167.258 320.797 166.763ZM318.016 162.809C317.063 164.889 317.566 167.286 319.892 168.355C320.721 168.735 321.737 168.745 322.728 168.196L322.228 169.287L323.973 170.089L327.486 162.423L325.741 161.622L325.174 162.858C324.937 161.763 324.267 160.997 323.438 160.617C321.112 159.548 318.976 160.715 318.016 162.809ZM330.451 165.423L331.084 164.041L329.354 163.246L325.828 170.941L327.558 171.736L329.331 167.867C329.791 166.863 331.297 166.111 332.679 166.746L333.438 165.087C332.77 164.78 331.406 164.682 330.451 165.423ZM336.182 175.539L336.647 173.604C336.358 173.542 335.794 173.353 335.437 173.172C335.065 172.984 334.897 172.66 335.11 172.194L336.75 168.616L338.771 169.545L339.544 167.857L337.523 166.929L338.77 164.209L336.967 163.381L335.721 166.101L334.397 165.493L333.624 167.18L334.947 167.788L333.308 171.366C332.674 172.748 333.394 174.364 334.552 174.949C335.054 175.197 335.807 175.437 336.182 175.539ZM285.865 170.453C286.387 170.658 287.112 170.727 287.641 170.724C288.543 170.716 289.312 170.382 289.897 169.911C291.059 168.913 291.19 167.512 290.846 166.65C290.588 165.985 290.082 165.207 288.458 163.757L287.831 163.205C287.476 162.866 287.298 162.678 287.139 162.411C286.973 162.159 286.909 161.953 286.851 161.733C286.779 161.277 286.9 160.858 287.248 160.56C287.804 160.076 288.43 160.17 289.001 160.344C289.705 160.614 290.464 161.069 291.016 161.939C291.174 162.17 291.274 162.374 291.337 162.544L293.166 162.011C293.045 161.621 292.854 161.269 292.583 160.862C291.768 159.608 290.513 158.89 289.586 158.57C288.601 158.223 287.088 158.144 285.962 159.141C285.058 159.923 284.788 161.243 285.006 162.188C285.04 162.345 285.192 162.82 285.496 163.347C285.754 163.782 286.111 164.193 286.598 164.628L287.233 165.201C288.554 166.389 288.957 166.856 289.069 167.224C289.199 167.671 289.045 168.199 288.619 168.514C288.332 168.717 288.021 168.821 287.592 168.835C287.184 168.841 286.773 168.74 286.512 168.656C285.601 168.378 285.08 167.98 284.491 167.076C284.052 166.381 284.003 165.76 284.05 165.465L282.155 165.298C282.107 165.787 282.169 166.995 282.924 168.152C283.693 169.315 284.62 170.058 285.865 170.453ZM295.689 174.544L296.153 172.609C295.865 172.547 295.3 172.358 294.943 172.177C294.572 171.989 294.404 171.665 294.617 171.199L296.257 167.621L298.278 168.55L299.051 166.862L297.03 165.934L298.276 163.214L296.474 162.386L295.227 165.106L293.904 164.498L293.131 166.185L294.454 166.793L292.814 170.371C292.181 171.753 292.901 173.369 294.059 173.954C294.561 174.202 295.313 174.442 295.689 174.544ZM300.124 172.479L302.023 168.334L300.293 167.539L298.374 171.728C297.254 174.171 298.394 175.946 300.168 176.76C300.88 177.088 301.885 177.162 302.682 176.612L302.189 177.689L303.919 178.484L307.445 170.789L305.715 169.994L303.829 174.111C303.37 175.15 302.22 175.625 301.129 175.124C299.864 174.543 299.65 173.512 300.124 172.479ZM309.865 179.19C308.542 178.583 308.352 177.386 308.905 176.178C309.445 175 310.482 174.35 311.805 174.958C312.852 175.439 313.353 176.725 312.787 177.962C312.207 179.227 310.912 179.671 309.865 179.19ZM307.16 175.377C306.227 177.413 306.699 179.725 308.952 180.761C309.592 181.054 310.694 181.261 311.702 180.598L311.216 181.659L312.975 182.468L318.001 171.5L316.242 170.692L314.068 175.434C313.874 174.323 313.096 173.561 312.398 173.241C310.145 172.205 308.08 173.37 307.16 175.377ZM316.231 188.119L319.839 184.776L325.893 179.247L323.945 178.351L319.682 182.239L319.831 176.461L317.853 175.553L317.766 184L314.282 187.224L316.231 188.119Z" fill="#FCFCFC"/>
<path d="M276.007 179.211L275.471 180.381L277.184 181.168L275.445 184.962L276.91 185.634L280.447 177.917L278.982 177.244L277.72 179.998L276.007 179.211ZM269.087 179.208L269.301 180.708C270.731 180.864 271.965 180.387 272.913 179.535C272.935 180.704 273.369 181.847 274.36 182.775L275.6 181.971C274.201 180.656 274.04 178.98 274.614 177.727L274.689 177.561L276.78 178.522L277.317 177.352L271.623 174.736L271.087 175.906L273.213 176.883L273.132 177.06C272.514 178.408 271.072 179.433 269.087 179.208ZM268.716 185.104L275.934 188.419L276.47 187.249L270.717 184.606L271.703 182.456L270.238 181.783L268.716 185.104ZM284.034 184.444L283.493 185.626L284.733 186.195L282.496 191.076L283.855 191.7L288.399 181.785L287.04 181.161L285.274 185.014L284.034 184.444ZM277.952 185.827L278.275 187.306C279.487 187.19 280.563 186.526 281.444 185.571C281.339 186.768 281.57 187.918 282.287 188.849L283.589 188.13C282.469 186.643 282.637 184.746 283.368 183.151L283.482 182.903L285.148 183.668L285.689 182.486L284.024 181.721L284.684 180.279L283.29 179.639L282.63 181.08L280.952 180.31L280.411 181.492L282.088 182.262L281.974 182.51C281.227 184.141 279.858 185.63 277.952 185.827ZM284.412 192.543L285.806 193.183L290.659 182.594L289.265 181.954L284.412 192.543ZM297.613 186.533L297.261 187.301C296.551 188.849 294.388 189.887 291.877 189.22L291.945 190.725C293.932 191.194 295.767 190.778 297.082 189.751C297.144 191.425 298.031 193.077 299.683 194.279L300.878 193.355C298.712 191.873 298.094 189.601 298.82 188.017L299.172 187.249L297.613 186.533ZM289.685 193.378L299.266 197.779L299.813 196.585L290.232 192.184L289.685 193.378ZM311.308 192.066L309.58 195.836L307.725 194.984L307.184 196.166L309.039 197.018L306.439 202.691L307.892 203.358L312.761 192.734L311.308 192.066ZM300.604 197.106L301.455 197.497C303.262 198.327 304.642 198.904 306.292 199.361L306.681 198.138C305.272 197.748 304.086 197.246 302.604 196.58L303.536 194.547L306.619 195.964L307.144 194.817L304.061 193.401L304.868 191.64L308.317 193.225L308.859 192.043L303.956 189.791L300.604 197.106ZM321.167 196.61L316.298 207.234L317.763 207.907L322.631 197.282L321.167 196.61ZM310.811 201.638L311.709 202.05C313.965 203.087 315.328 203.67 316.917 204.042L317.339 202.777C315.897 202.429 314.694 201.934 312.81 201.083L314.977 196.355L318.627 198.032L319.169 196.85L314.077 194.511L310.811 201.638Z" fill="#FCFCFC"/>
<rect width="91.8932" height="27.9982" transform="matrix(0.972965 0.230955 -0.230418 0.973092 30.4763 168.194)" fill="#4877AF"/>
<path d="M48.0533 186.903L45.1266 186.209L45.923 182.846L48.8496 183.54C49.7681 183.758 50.3384 184.683 50.1209 185.602C49.9034 186.52 48.9718 187.121 48.0533 186.903ZM41.3603 191.629L43.7109 192.187L44.5515 188.638L47.4004 189.314C49.6888 189.857 51.9526 188.421 52.4871 186.163C53.0291 183.875 51.6427 181.605 49.3543 181.062L44.1548 179.828L41.3603 191.629ZM56.0279 192.891C54.7046 192.577 54.347 191.588 54.6235 190.42C54.9 189.252 55.6669 188.513 56.9901 188.827C57.9864 189.064 58.6517 190.143 58.3908 191.314C58.1024 192.463 57.0242 193.128 56.0279 192.891ZM52.2572 189.858C51.7153 192.147 52.6985 194.452 55.2516 195.058C56.1078 195.262 57.0369 195.087 57.787 194.558L57.5732 195.461L59.9431 196.008L61.9266 187.631L59.5603 187.069L59.3022 188.159C58.8729 187.334 58.1207 186.761 57.2645 186.557C54.7115 185.951 52.7992 187.569 52.2572 189.858ZM65.1275 197.468C65.5708 197.541 66.1066 197.569 66.5556 197.479C67.1631 197.343 67.6654 197.166 68.1295 196.734C68.9919 195.87 69.0045 194.705 68.642 193.945C68.4384 193.485 68.0524 193.032 66.7108 192.171L66.1708 191.812C65.9713 191.683 65.8185 191.564 65.6612 191.395C65.567 191.307 65.5075 191.211 65.5104 191.129C65.5096 191.063 65.5436 190.989 65.6206 190.942C65.7361 190.871 65.8836 190.873 66.1638 190.939C66.5338 191.043 67.0217 191.274 67.3683 191.686L67.4432 191.786L69.6476 190.878C69.5317 190.604 69.3654 190.334 69.1642 190.073C68.4473 189.212 67.4293 188.789 66.7406 188.642C65.877 188.47 64.6083 188.482 63.832 189.399C63.1704 190.179 63.0414 191.349 63.3929 192.156C63.4887 192.376 63.687 192.719 63.9586 193.03C64.1909 193.299 64.2696 193.384 64.7509 193.712L65.2909 194.07C66.218 194.669 66.2254 194.637 66.4331 194.802C66.5859 194.92 66.5527 195.06 66.406 195.124C66.3327 195.156 66.2282 195.181 66.1778 195.185C66.0074 195.211 65.9259 195.208 65.7043 195.172C65.1905 195.05 64.9517 194.878 64.5109 194.378C64.3024 194.148 64.2221 193.932 64.1573 193.719L61.9771 194.385C62.1184 194.83 62.3802 195.599 62.7543 196.034C63.4118 196.798 64.1742 197.259 65.1275 197.468ZM72.896 199.312C73.3393 199.385 73.8751 199.413 74.3241 199.323C74.9317 199.187 75.4339 199.01 75.898 198.578C76.7604 197.714 76.7731 196.549 76.4105 195.789C76.2069 195.329 75.821 194.876 74.4793 194.015L73.9393 193.656C73.7398 193.527 73.587 193.408 73.4297 193.24C73.3355 193.151 73.2761 193.055 73.2789 192.973C73.2781 192.908 73.3121 192.833 73.3891 192.786C73.5047 192.715 73.6521 192.717 73.9323 192.783C74.3023 192.888 74.7902 193.118 75.1368 193.53L75.2118 193.63L77.4162 192.722C77.3002 192.448 77.1339 192.178 76.9327 191.917C76.2158 191.056 75.1978 190.633 74.5091 190.486C73.6455 190.314 72.3768 190.326 71.6005 191.243C70.9389 192.023 70.8099 193.193 71.1614 194C71.2572 194.22 71.4555 194.563 71.7271 194.874C71.9594 195.143 72.0381 195.228 72.5195 195.556L73.0594 195.914C73.9865 196.513 73.9939 196.481 74.2016 196.646C74.3544 196.764 74.3212 196.904 74.1745 196.968C74.1012 197 73.9967 197.025 73.9464 197.029C73.7759 197.055 73.6944 197.052 73.4728 197.016C72.9591 196.894 72.7202 196.722 72.2794 196.222C72.0709 195.992 71.9906 195.776 71.9259 195.563L69.7456 196.229C69.887 196.674 70.1488 197.443 70.5228 197.878C71.1803 198.642 71.9427 199.103 72.896 199.312ZM79.6857 191.732L77.6544 200.31L79.9583 200.857L81.9897 192.278L79.6857 191.732ZM80.3194 188.708C80.1572 189.393 80.4641 190.042 81.258 190.23C82.0519 190.419 82.6169 189.977 82.7791 189.292C82.9413 188.607 82.6344 187.959 81.8405 187.77C81.0466 187.582 80.4816 188.023 80.3194 188.708ZM86.4304 200.042C85.2628 199.765 84.5975 198.686 84.874 197.518C85.1505 196.351 86.2324 195.67 87.4 195.947C88.5831 196.228 89.2291 197.319 88.9526 198.486C88.6761 199.654 87.6135 200.323 86.4304 200.042ZM82.7568 197.016C82.2149 199.304 83.4939 201.68 85.9068 202.253C88.4755 202.863 90.5279 201.278 91.0698 198.989C91.6154 196.685 90.4921 194.346 87.9235 193.736C85.5105 193.164 83.3024 194.711 82.7568 197.016ZM98.4022 200.631L97.3883 204.912L99.7235 205.467L100.737 201.185C101.497 197.978 100.002 196.653 97.7446 196.117C97.1063 195.965 96.0821 195.985 95.4931 196.668L95.7364 195.64L93.4013 195.086L91.4104 203.493L93.7456 204.048L94.7594 199.766C94.9818 198.618 95.9646 198.079 96.9298 198.308C98.3153 198.637 98.6713 199.494 98.4022 200.631Z" fill="white"/>
</svg>
