<svg width="202" height="74" viewBox="0 0 202 74" fill="none" xmlns="http://www.w3.org/2000/svg">
<g filter="url(#filter0_d_896_12277)">
<path d="M185.257 64H16.7427C14.9544 64 13.2394 63.2885 11.9749 62.022C10.7104 60.7555 10 59.0378 10 57.2467V16.7533C10 15.8665 10.1744 14.9883 10.5133 14.1689C10.8521 13.3496 11.3488 12.6051 11.9749 11.978C12.601 11.3509 13.3443 10.8534 14.1624 10.5141C14.9805 10.1747 15.8572 10 16.7427 10H185.257C187.043 10.007 188.754 10.7208 190.017 11.9857C191.28 13.2507 191.993 14.9644 192 16.7533V57.2467C191.993 59.0356 191.28 60.7493 190.017 62.0143C188.754 63.2792 187.043 63.993 185.257 64Z" fill="#646464"/>
<path d="M49.6864 35.6749C49.7019 34.3568 50.0508 33.0641 50.7007 31.9174C51.3505 30.7706 52.2802 29.8071 53.4029 29.1167C52.689 28.0954 51.7454 27.2559 50.6481 26.6656C49.5508 26.0754 48.3304 25.7508 47.0849 25.7182C44.4303 25.4261 41.7757 27.2847 40.528 27.2847C39.2803 27.2847 37.0505 25.7447 34.8206 25.7712C33.3692 25.8173 31.9548 26.2406 30.7167 26.9995C29.4785 27.7583 28.4593 28.8266 27.7593 30.0991C24.7065 35.4094 26.9895 43.1624 29.9096 47.4372C31.3696 49.5082 33.0686 51.8712 35.2188 51.765C37.369 51.6588 38.2185 50.3844 40.8731 50.3844C43.5277 50.3844 44.2445 51.765 46.5274 51.7119C48.8104 51.6588 50.3766 49.6144 51.8366 47.5168C52.8854 46.0244 53.6917 44.3756 54.2258 42.6314C52.8733 42.041 51.7229 41.0679 50.9164 39.8318C50.1098 38.5958 49.6823 37.1509 49.6864 35.6749Z" fill="#FCFCFC"/>
<path d="M45.3595 22.7978C46.6401 21.2553 47.2687 19.274 47.1116 17.2751C45.1534 17.4848 43.3492 18.4345 42.0678 19.9303C40.7814 21.3897 40.1231 23.2982 40.2361 25.2406C41.2188 25.2452 42.1899 25.028 43.077 24.605C43.9641 24.1821 44.7443 23.5643 45.3595 22.7978Z" fill="#FCFCFC"/>
<path d="M81.3824 51.3672H78.3296L76.6307 46.0569H70.8171L69.2243 51.3672H66.2246L72.1444 33.4185H75.7016L81.3824 51.3672ZM76.0732 43.8797L74.5601 39.2067C74.4008 38.7287 74.1088 37.587 73.6575 35.8346C73.4717 36.5781 73.2062 37.7198 72.808 39.2067L71.3215 43.8797H76.0732Z" fill="#FCFCFC"/>
<path d="M96.2219 44.7293C96.3524 46.6647 95.7131 48.5734 94.4433 50.0396C93.9392 50.5834 93.3268 51.0155 92.6455 51.3082C91.9643 51.6008 91.2293 51.7476 90.4879 51.7389C89.7647 51.7961 89.0395 51.6559 88.3897 51.3332C87.7398 51.0106 87.1897 50.5176 86.798 49.9068V56.6509H83.8779V42.6849C83.8779 41.3042 83.8779 40.0297 83.8779 38.4366H86.5325L86.6918 40.4811C87.1435 39.7346 87.7898 39.1253 88.5614 38.7183C89.3331 38.3114 90.2009 38.1222 91.0719 38.1711C91.8036 38.1665 92.527 38.3263 93.1886 38.6388C93.8503 38.9513 94.4333 39.4085 94.8946 39.9766C95.8875 41.3528 96.358 43.0377 96.2219 44.7293ZM93.3018 44.7293C93.347 43.6308 93.0502 42.5454 92.4523 41.6228C92.1748 41.2199 91.8014 40.8924 91.3658 40.6699C90.9302 40.4475 90.446 40.3369 89.957 40.3483C89.2461 40.3479 88.5586 40.6022 88.0191 41.0652C87.4404 41.5274 87.0375 42.174 86.8776 42.8973C86.8502 43.1887 86.8502 43.4821 86.8776 43.7735V45.9507C86.8533 46.822 87.1673 47.6689 87.7537 48.3137C88.032 48.6363 88.3794 48.892 88.77 49.062C89.1606 49.2321 89.5844 49.3121 90.0101 49.2961C90.5004 49.3102 90.9867 49.2038 91.4264 48.9863C91.866 48.7687 92.2457 48.4466 92.532 48.0482C93.1382 47.09 93.4348 45.9682 93.3814 44.8355L93.3018 44.7293Z" fill="#FCFCFC"/>
<path d="M111.114 44.729C111.233 46.663 110.595 48.5674 109.335 50.0393C108.828 50.5864 108.212 51.0205 107.525 51.3133C106.839 51.6061 106.099 51.751 105.354 51.7386C104.634 51.7967 103.912 51.6567 103.266 51.3338C102.621 51.0108 102.075 50.5172 101.69 49.9065V56.6506H98.6904V42.6846C98.6904 41.3039 98.6904 40.0294 98.6904 38.4364H101.345L101.504 40.4808C101.942 39.8173 102.527 39.2646 103.215 38.8664C103.903 38.4682 104.673 38.2354 105.466 38.1865C106.26 38.1375 107.053 38.2738 107.784 38.5844C108.516 38.895 109.165 39.3716 109.681 39.9763C110.722 41.3326 111.232 43.0229 111.114 44.729ZM108.194 44.729C108.231 43.6277 107.925 42.542 107.318 41.6225C107.044 41.2161 106.671 40.886 106.235 40.6631C105.798 40.4401 105.312 40.3317 104.823 40.3481C104.112 40.3476 103.424 40.6019 102.885 41.0649C102.322 41.5367 101.93 42.1805 101.77 42.897C101.742 43.1884 101.742 43.4818 101.77 43.7732V45.9504C101.749 46.8164 102.052 47.6591 102.619 48.3135C102.898 48.636 103.245 48.8917 103.636 49.0618C104.026 49.2318 104.45 49.3118 104.876 49.2958C105.389 49.3405 105.905 49.2486 106.371 49.0295C106.837 48.8103 107.237 48.4717 107.53 48.048C108.072 47.069 108.303 45.9486 108.194 44.8352V44.729Z" fill="#FCFCFC"/>
<path d="M127.732 46.2959C127.76 46.995 127.632 47.6915 127.356 48.3346C127.08 48.9777 126.665 49.5511 126.139 50.0131C124.766 51.1341 123.025 51.7022 121.255 51.6061C119.632 51.6807 118.022 51.294 116.609 50.491L117.273 48.1014C118.531 48.8588 119.973 49.254 121.441 49.2431C122.387 49.3341 123.334 49.069 124.095 48.4996C124.391 48.2676 124.628 47.9683 124.785 47.6265C124.941 47.2848 125.015 46.9105 124.998 46.5348C125.005 46.1949 124.943 45.8571 124.815 45.5421C124.688 45.227 124.497 44.9414 124.255 44.7028C123.535 44.0783 122.695 43.6083 121.786 43.3221C118.627 42.1538 117.061 40.428 117.061 38.1712C117.045 37.4815 117.188 36.7973 117.478 36.1714C117.767 35.5454 118.197 34.9942 118.733 34.5602C119.964 33.5546 121.526 33.0435 123.113 33.1264C124.516 33.0781 125.909 33.3696 127.175 33.976L126.458 36.3391C125.352 35.8078 124.124 35.5788 122.901 35.6753C122.048 35.617 121.204 35.8825 120.538 36.4188C120.308 36.6201 120.124 36.8694 120.001 37.1492C119.877 37.429 119.816 37.7325 119.821 38.0384C119.814 38.3742 119.885 38.7071 120.027 39.0111C120.17 39.3151 120.381 39.582 120.644 39.7908C121.452 40.3857 122.348 40.8515 123.299 41.1714C124.581 41.6322 125.742 42.3764 126.697 43.3487C127.378 44.1788 127.744 45.2223 127.732 46.2959Z" fill="#FCFCFC"/>
<path d="M137.236 40.5872H134.077V46.8799C134.077 48.473 134.634 49.2696 135.749 49.2696C136.178 49.2769 136.605 49.2323 137.023 49.1368V51.314C136.305 51.5513 135.55 51.6592 134.793 51.6326C134.303 51.6607 133.811 51.5828 133.353 51.4041C132.895 51.2254 132.481 50.9502 132.139 50.5971C131.407 49.5929 131.067 48.356 131.183 47.1189V40.5872H129.298V38.3304H131.183V35.9673L133.997 35.1177V38.3304H137.156L137.236 40.5872Z" fill="#FCFCFC"/>
<path d="M151.543 44.7823C151.619 46.5757 151.012 48.3311 149.844 49.6943C149.241 50.3448 148.503 50.8573 147.683 51.1964C146.863 51.5355 145.979 51.6933 145.093 51.659C144.245 51.6919 143.4 51.5403 142.616 51.2149C141.832 50.8894 141.129 50.3978 140.553 49.7739C139.411 48.4502 138.813 46.7421 138.881 44.9947C138.801 43.1961 139.42 41.4363 140.606 40.0827C141.205 39.443 141.935 38.9408 142.746 38.6107C143.557 38.2807 144.43 38.1306 145.305 38.171C146.161 38.1321 147.016 38.2807 147.809 38.6063C148.603 38.9319 149.315 39.4267 149.897 40.0561C151.02 41.3688 151.608 43.056 151.543 44.7823ZM148.57 44.7823C148.597 43.7048 148.331 42.6402 147.8 41.7023C147.546 41.2186 147.164 40.8136 146.696 40.531C146.228 40.2485 145.692 40.0992 145.146 40.0992C144.599 40.0992 144.063 40.2485 143.595 40.531C143.127 40.8136 142.746 41.2186 142.491 41.7023C141.957 42.6582 141.691 43.7407 141.721 44.8353C141.698 45.9124 141.964 46.9759 142.491 47.9153C142.742 48.3972 143.125 48.7978 143.595 49.0705C144.065 49.3431 144.603 49.4766 145.146 49.4553C145.69 49.4678 146.227 49.3277 146.696 49.0509C147.166 48.774 147.548 48.3715 147.8 47.8888C148.321 46.9757 148.587 45.9395 148.57 44.8885V44.7823Z" fill="#FCFCFC"/>
<path d="M160.888 40.9854C160.588 40.958 160.286 40.958 159.985 40.9854C159.526 40.9547 159.067 41.0437 158.653 41.2439C158.239 41.444 157.884 41.7484 157.623 42.1271C157.105 42.9123 156.854 43.8432 156.906 44.7822V51.5794H154.039V42.4988C154.039 41.0119 154.039 39.6578 154.039 38.4365H156.534V40.9057C156.815 40.0984 157.322 39.3888 157.994 38.8613C158.588 38.4061 159.317 38.163 160.065 38.171C160.303 38.1426 160.544 38.1426 160.782 38.171L160.888 40.9854Z" fill="#FCFCFC"/>
<path d="M173.736 44.2777C173.782 44.719 173.782 45.1639 173.736 45.6052H165.056C165.044 46.1528 165.149 46.6966 165.365 47.2003C165.58 47.7039 165.9 48.1558 166.304 48.5259C167.113 49.1558 168.12 49.476 169.144 49.4286C170.305 49.4766 171.465 49.3147 172.568 48.9507L173.02 50.9421C171.647 51.5002 170.174 51.7712 168.693 51.7386C167.824 51.7895 166.955 51.6574 166.141 51.351C165.327 51.0445 164.587 50.5705 163.968 49.9597C163.381 49.3259 162.926 48.5817 162.629 47.7702C162.333 46.9588 162.201 46.0964 162.242 45.2335C162.178 43.4678 162.742 41.7366 163.835 40.3481C164.376 39.6707 165.069 39.1303 165.857 38.7705C166.646 38.4107 167.508 38.2417 168.374 38.2771C169.196 38.2317 170.016 38.3983 170.755 38.761C171.494 39.1236 172.128 39.6701 172.595 40.3481C173.364 41.5125 173.762 42.8825 173.736 44.2777ZM171.082 43.5342C171.112 42.7612 170.919 41.9959 170.524 41.3305C170.277 40.9538 169.937 40.6465 169.538 40.4375C169.138 40.2284 168.692 40.1246 168.241 40.1357C167.789 40.1171 167.339 40.2147 166.935 40.4192C166.53 40.6237 166.185 40.9283 165.932 41.3039C165.429 41.9863 165.125 42.7954 165.056 43.6404L171.082 43.5342Z" fill="#FCFCFC"/>
<path d="M75.1707 22.3994C75.2225 23.0605 75.1227 23.7246 74.8789 24.3412C74.6351 24.9578 74.2537 25.5106 73.7638 25.9573C72.6789 26.7638 71.3431 27.1589 69.9942 27.0725C69.3137 27.1187 68.6308 27.1187 67.9502 27.0725V18.3105C68.7484 18.1775 69.5568 18.1153 70.3659 18.1247C71.6164 18.0367 72.8577 18.3941 73.87 19.1336C74.319 19.5446 74.6693 20.0519 74.8946 20.6174C75.1198 21.183 75.2142 21.7922 75.1707 22.3994ZM73.6842 22.3994C73.7417 21.5374 73.4553 20.6877 72.8878 20.0364C72.565 19.746 72.1872 19.5235 71.7768 19.3822C71.3663 19.2408 70.9317 19.1833 70.4986 19.2133C70.1188 19.1821 69.737 19.1821 69.3571 19.2133V25.8246H70.3128C70.7685 25.8539 71.2252 25.7889 71.6546 25.6335C72.084 25.4782 72.4767 25.2359 72.8081 24.9218C73.407 24.2212 73.7198 23.3205 73.6842 22.3994Z" fill="#FCFCFC"/>
<path d="M83.0817 23.7801C83.112 24.6556 82.8083 25.5099 82.2322 26.1697C81.9445 26.4949 81.5879 26.7518 81.1884 26.9218C80.7889 27.0917 80.3565 27.1704 79.9227 27.1521C79.506 27.1671 79.0911 27.0918 78.7062 26.9314C78.3213 26.771 77.9756 26.5293 77.6928 26.2229C77.1521 25.5489 76.8574 24.7106 76.8574 23.8465C76.8574 22.9824 77.1521 22.1441 77.6928 21.4702C78.2951 20.8686 79.1114 20.5308 79.9625 20.5308C80.8137 20.5308 81.63 20.8686 82.2322 21.4702C82.8009 22.1028 83.105 22.9297 83.0817 23.7801ZM81.6217 23.7801C81.6386 23.256 81.5001 22.7387 81.2235 22.2932C81.1064 22.0626 80.9279 21.8687 80.7078 21.7329C80.4877 21.597 80.2344 21.5245 79.9758 21.5233C79.7082 21.5145 79.4437 21.5823 79.2133 21.7187C78.9829 21.8551 78.7961 22.0544 78.6751 22.2932C78.4308 22.7603 78.3033 23.2796 78.3033 23.8067C78.3033 24.3338 78.4308 24.853 78.6751 25.3201C78.7826 25.5839 78.9663 25.8096 79.2027 25.9685C79.4391 26.1275 79.7175 26.2123 80.0024 26.2123C80.2872 26.2123 80.5656 26.1275 80.802 25.9685C81.0384 25.8096 81.2221 25.5839 81.3297 25.3201C81.5659 24.8526 81.667 24.3285 81.6217 23.8067V23.7801Z" fill="#FCFCFC"/>
<path d="M93.6732 20.647L91.6823 26.9928H90.3815L89.5586 24.3376C89.35 23.6668 89.1816 22.9841 89.0542 22.2932C88.9268 22.9841 88.7584 23.6668 88.5498 24.3376L87.6738 26.9928H86.3731L84.4883 20.647H85.9483L86.6651 23.6739C86.8243 24.3907 86.9836 25.0545 87.0898 25.7183C87.0898 25.1873 87.3818 24.4969 87.6207 23.6739L88.5233 20.647H89.6648L90.5408 23.6207C90.7532 24.3376 90.9124 25.028 91.0452 25.7183C91.1529 25.0106 91.3036 24.3101 91.4965 23.6207L92.2663 20.647H93.6732Z" fill="#FCFCFC"/>
<path d="M101 26.9929H99.5932V23.3554C99.5932 22.2402 99.1684 21.6827 98.2924 21.6827C98.1017 21.681 97.9129 21.7205 97.7388 21.7983C97.5647 21.8762 97.4095 21.9907 97.2837 22.134C97.0254 22.4378 96.8842 22.8239 96.8855 23.2226V26.9929H95.4785V22.3995C95.4785 21.842 95.4785 21.2578 95.4785 20.594H96.7262V21.5765C96.8986 21.265 97.1447 21.0007 97.4429 20.8065C97.8397 20.5816 98.2876 20.4627 98.7437 20.4613C99.0145 20.4495 99.2848 20.4955 99.5365 20.5962C99.7883 20.6969 100.016 20.85 100.204 21.0454C100.472 21.3204 100.677 21.6504 100.806 22.0125C100.934 22.3747 100.982 22.7604 100.947 23.143L101 26.9929Z" fill="#FCFCFC"/>
<path d="M104.902 26.993H103.469V17.7266H104.902V26.993Z" fill="#FCFCFC"/>
<path d="M113.211 23.7801C113.241 24.6556 112.937 25.5099 112.361 26.1697C112.073 26.4949 111.717 26.7518 111.317 26.9218C110.918 27.0917 110.485 27.1704 110.052 27.1521C109.635 27.1707 109.218 27.097 108.833 26.9364C108.448 26.7758 108.102 26.5322 107.822 26.2229C107.281 25.5489 106.986 24.7106 106.986 23.8465C106.986 22.9824 107.281 22.1441 107.822 21.4702C108.424 20.8686 109.24 20.5308 110.091 20.5308C110.943 20.5308 111.759 20.8686 112.361 21.4702C112.93 22.1028 113.234 22.9297 113.211 23.7801ZM111.751 23.7801C111.768 23.256 111.629 22.7387 111.352 22.2932C111.235 22.0626 111.057 21.8687 110.837 21.7329C110.617 21.597 110.363 21.5245 110.105 21.5233C109.837 21.5145 109.573 21.5823 109.342 21.7187C109.112 21.8551 108.925 22.0544 108.804 22.2932C108.56 22.7603 108.432 23.2796 108.432 23.8067C108.432 24.3338 108.56 24.853 108.804 25.3201C108.923 25.5548 109.106 25.7514 109.331 25.8875C109.556 26.0236 109.815 26.0938 110.078 26.0901C110.341 26.0908 110.598 26.0193 110.823 25.8835C111.048 25.7477 111.231 25.5528 111.352 25.3201C111.625 24.8634 111.764 24.3387 111.751 23.8067V23.7801Z" fill="#FCFCFC"/>
<path d="M120.06 26.9928H118.786V26.2759C118.574 26.5654 118.293 26.7973 117.968 26.9503C117.643 27.1033 117.286 27.1727 116.928 27.1521C116.661 27.1635 116.394 27.1172 116.147 27.0164C115.9 26.9156 115.677 26.7627 115.494 26.568C115.325 26.3972 115.194 26.1936 115.107 25.9698C115.02 25.746 114.98 25.5068 114.99 25.2669C114.979 24.9095 115.064 24.5558 115.237 24.2427C115.41 23.9297 115.664 23.669 115.972 23.488C116.786 23.0514 117.705 22.8492 118.626 22.9039C118.626 22.0808 118.175 21.656 117.299 21.656C116.715 21.647 116.142 21.8135 115.653 22.1339L115.361 21.2046C116.019 20.815 116.774 20.6215 117.538 20.647C119.21 20.647 120.033 21.5232 120.033 23.3021V25.6387C120.003 26.0899 120.012 26.5431 120.06 26.9928ZM118.573 24.8156V23.8332C117.034 23.8332 116.237 24.2314 116.237 25.1076C116.226 25.3886 116.32 25.6636 116.503 25.8776C116.696 26.0385 116.942 26.1234 117.193 26.1166C117.508 26.1129 117.815 26.0108 118.069 25.8245C118.315 25.6451 118.486 25.3799 118.547 25.0811C118.57 24.9946 118.579 24.9049 118.573 24.8156Z" fill="#FCFCFC"/>
<path d="M128.077 26.993H126.829V25.984C126.642 26.3587 126.348 26.6695 125.984 26.8774C125.62 27.0853 125.203 27.1809 124.785 27.1523C124.42 27.1546 124.058 27.0747 123.727 26.9184C123.396 26.7622 123.105 26.5336 122.874 26.2495C122.346 25.5882 122.073 24.759 122.104 23.913C122.07 23.0093 122.362 22.1235 122.927 21.4172C123.166 21.129 123.466 20.8983 123.807 20.742C124.147 20.5857 124.517 20.508 124.892 20.5145C125.244 20.4788 125.6 20.5419 125.918 20.6966C126.237 20.8513 126.507 21.0916 126.697 21.3907V17.7266H128.104V25.2937C128.024 25.9044 128.051 26.4885 128.077 26.993ZM126.617 24.3379V23.3023C126.635 23.1524 126.635 23.0009 126.617 22.851C126.553 22.5177 126.374 22.2173 126.113 22.0013C125.878 21.7678 125.567 21.6264 125.237 21.6031C124.992 21.5936 124.748 21.6473 124.53 21.7589C124.311 21.8704 124.125 22.0362 123.989 22.2403C123.667 22.717 123.509 23.2854 123.538 23.8599C123.509 24.3974 123.658 24.9295 123.962 25.3734C124.099 25.5775 124.285 25.7432 124.503 25.8548C124.722 25.9664 124.965 26.02 125.21 26.0106C125.424 26.0127 125.636 25.966 125.829 25.874C126.022 25.7819 126.192 25.6471 126.325 25.4796C126.555 25.1359 126.658 24.7228 126.617 24.3113V24.3379Z" fill="#FCFCFC"/>
<path d="M140.155 23.7802C140.193 24.6521 139.899 25.506 139.332 26.1698C139.039 26.4956 138.678 26.7526 138.274 26.9224C137.87 27.0922 137.434 27.1707 136.996 27.1522C136.579 27.1672 136.164 27.0918 135.779 26.9315C135.395 26.7711 135.049 26.5294 134.766 26.2229C134.225 25.549 133.931 24.7107 133.931 23.8466C133.931 22.9824 134.225 22.1442 134.766 21.4702C135.056 21.1499 135.414 20.898 135.813 20.7327C136.213 20.5674 136.644 20.4928 137.076 20.5144C137.496 20.5008 137.915 20.5766 138.304 20.7368C138.692 20.897 139.043 21.1379 139.332 21.4437C139.888 22.0925 140.182 22.9259 140.155 23.7802ZM138.695 23.7802C138.708 23.26 138.58 22.746 138.323 22.2933C138.204 22.0586 138.022 21.8621 137.796 21.726C137.571 21.5898 137.312 21.5196 137.049 21.5233C136.789 21.5467 136.54 21.6407 136.33 21.7951C136.119 21.9495 135.955 22.1585 135.854 22.3995C135.61 22.8666 135.483 23.3859 135.483 23.9129C135.483 24.44 135.61 24.9593 135.854 25.4264C135.978 25.6572 136.162 25.8505 136.386 25.986C136.61 26.1215 136.867 26.1941 137.129 26.1964C137.392 26.2001 137.651 26.1298 137.876 25.9937C138.101 25.8576 138.284 25.6611 138.403 25.4264C138.659 24.9277 138.761 24.3637 138.695 23.8067V23.7802Z" fill="#FCFCFC"/>
<path d="M147.748 26.9927H146.473V23.3551C146.473 22.24 146.049 21.6824 145.199 21.6824C145.004 21.6787 144.811 21.7171 144.632 21.795C144.454 21.8729 144.294 21.9884 144.164 22.1338C143.925 22.4464 143.794 22.8287 143.792 23.2224V26.9927H142.226V22.3993C142.226 21.8417 142.226 21.2576 142.226 20.5938H143.474V21.5762C143.657 21.2643 143.912 21.0004 144.217 20.8062C144.606 20.5857 145.044 20.4669 145.491 20.461C145.766 20.4521 146.039 20.4993 146.295 20.5997C146.55 20.7002 146.783 20.8517 146.978 21.0452C147.241 21.3225 147.442 21.6535 147.566 22.0156C147.689 22.3776 147.733 22.7621 147.695 23.1427L147.748 26.9927Z" fill="#FCFCFC"/>
<path d="M157.251 21.7093H155.712V24.7893C155.712 25.5858 155.977 25.9575 156.535 25.9575C156.746 25.986 156.96 25.986 157.172 25.9575V27.0196C156.821 27.1365 156.453 27.1905 156.083 27.1789C155.839 27.1938 155.594 27.1565 155.365 27.0696C155.136 26.9826 154.929 26.8479 154.756 26.6744C154.48 26.1821 154.369 25.6148 154.437 25.0548V21.7093H153.508V20.6473H154.437V19.479L155.818 19.0542V20.6473H157.357L157.251 21.7093Z" fill="#FCFCFC"/>
<path d="M164.737 26.993H163.33V23.382C163.33 22.2403 162.905 21.6827 162.056 21.6827C161.752 21.6663 161.451 21.7549 161.205 21.9338C160.958 22.1127 160.781 22.3709 160.702 22.6651C160.674 22.8321 160.674 23.0026 160.702 23.1696V26.993H159.215V17.7266H160.622V21.55C160.82 21.2231 161.102 20.9549 161.437 20.7729C161.773 20.5909 162.152 20.5017 162.534 20.5145C162.804 20.5027 163.075 20.5487 163.326 20.6494C163.578 20.7501 163.806 20.9032 163.994 21.0986C164.248 21.3872 164.443 21.7237 164.566 22.0884C164.689 22.4531 164.738 22.8388 164.71 23.2227L164.737 26.993Z" fill="#FCFCFC"/>
<path d="M172.462 23.5146C172.478 23.7355 172.478 23.9574 172.462 24.1784H168.215C168.215 24.4461 168.269 24.7111 168.374 24.9575C168.479 25.2038 168.632 25.4265 168.825 25.6121C169.231 25.9126 169.728 26.0628 170.232 26.037C170.812 26.0524 171.389 25.9532 171.931 25.7449L172.17 26.7273C171.489 27.0078 170.756 27.1435 170.02 27.1256C169.595 27.1485 169.17 27.0824 168.772 26.9315C168.375 26.7806 168.013 26.5483 167.71 26.2494C167.422 25.9351 167.198 25.5668 167.052 25.1659C166.907 24.7649 166.841 24.3391 166.861 23.9129C166.831 23.0465 167.113 22.1983 167.657 21.5232C167.918 21.1922 168.254 20.9281 168.637 20.7526C169.02 20.5772 169.439 20.4955 169.86 20.5143C170.267 20.4871 170.674 20.5658 171.042 20.7426C171.409 20.9194 171.725 21.1883 171.958 21.5232C172.324 22.1204 172.5 22.815 172.462 23.5146ZM171.108 23.1694C171.137 22.7876 171.044 22.4063 170.843 22.0808C170.723 21.8892 170.554 21.7337 170.353 21.6308C170.152 21.528 169.926 21.4816 169.701 21.4967C169.484 21.4935 169.27 21.5424 169.076 21.6395C168.882 21.7365 168.714 21.8788 168.586 22.0543C168.348 22.3818 168.202 22.7666 168.161 23.1694H171.108Z" fill="#FCFCFC"/>
</g>
<defs>
<filter id="filter0_d_896_12277" x="0" y="0" width="202" height="74" filterUnits="userSpaceOnUse" color-interpolation-filters="sRGB">
<feFlood flood-opacity="0" result="BackgroundImageFix"/>
<feColorMatrix in="SourceAlpha" type="matrix" values="0 0 0 0 0 0 0 0 0 0 0 0 0 0 0 0 0 0 127 0" result="hardAlpha"/>
<feOffset/>
<feGaussianBlur stdDeviation="5"/>
<feComposite in2="hardAlpha" operator="out"/>
<feColorMatrix type="matrix" values="0 0 0 0 0 0 0 0 0 0 0 0 0 0 0 0 0 0 0.1 0"/>
<feBlend mode="normal" in2="BackgroundImageFix" result="effect1_dropShadow_896_12277"/>
<feBlend mode="normal" in="SourceGraphic" in2="effect1_dropShadow_896_12277" result="shape"/>
</filter>
</defs>
</svg>
