<svg width="50" height="50" viewBox="0 0 50 50" fill="none" xmlns="http://www.w3.org/2000/svg">
<rect width="50" height="50" rx="5" fill="#232323"/>
<path d="M33.3222 8.00707L29.0048 8C24.1544 8 21.0198 11.2842 21.0198 16.3674V20.2254H16.6789C16.3038 20.2254 16 20.536 16 20.919V26.5088C16 26.8918 16.3041 27.202 16.6789 27.202H21.0198V41.3067C21.0198 41.6898 21.3236 42 21.6987 42H27.3624C27.7375 42 28.0412 41.6894 28.0412 41.3067V27.202H33.1168C33.4919 27.202 33.7956 26.8918 33.7956 26.5088L33.7977 20.919C33.7977 20.7351 33.726 20.559 33.5989 20.4288C33.4718 20.2986 33.2986 20.2254 33.1185 20.2254H28.0412V16.955C28.0412 15.3831 28.408 14.5851 30.4131 14.5851L33.3215 14.584C33.6962 14.584 34 14.2735 34 13.8907V8.70035C34 8.31799 33.6966 8.00778 33.3222 8.00707Z" fill="#FCFCFC"/>
</svg>
