<svg width="202" height="74" viewBox="0 0 202 74" fill="none" xmlns="http://www.w3.org/2000/svg">
<g filter="url(#filter0_d_101_29)">
<path d="M185.257 64H16.7427C14.9544 64 13.2394 63.2881 11.9749 62.021C10.7104 60.7539 10 59.0353 10 57.2433V16.7567C10 14.9647 10.7104 13.2461 11.9749 11.979C13.2394 10.7119 14.9544 10 16.7427 10H185.257C187.043 10.007 188.754 10.7211 190.017 11.9867C191.28 13.2523 191.993 14.9668 192 16.7567V57.27C191.986 59.0552 191.27 60.7629 190.008 62.0227C188.746 63.2826 187.039 63.9931 185.257 64Z" fill="#646464"/>
<path d="M24.0694 20.1693C23.6207 20.6913 23.3923 21.3672 23.4323 22.0545V51.8451C23.3853 52.5413 23.6141 53.228 24.0694 53.7568L40.7669 37.0825V36.6843L24.0694 19.9835" fill="#5BC9F4"/>
<path d="M53.1375 38.9145C55.0223 37.8259 55.0223 36.0735 53.1375 35.0114L46.4214 31.188L40.8467 36.7638V37.1621L46.4214 42.6582L53.1375 38.9145Z" fill="url(#paint0_linear_101_29)"/>
<path d="M40.8465 36.9497L24.0693 53.7567C24.4534 54.0413 24.9187 54.1949 25.3966 54.1949C25.8746 54.1949 26.3399 54.0413 26.7239 53.7567L46.5273 42.6583L40.8465 36.9497Z" fill="url(#paint1_linear_101_29)"/>
<path d="M26.8568 20.0895C26.4781 19.7924 26.0107 19.6309 25.5295 19.6309C25.0482 19.6309 24.5808 19.7924 24.2021 20.0895L40.9793 36.87L46.6601 31.188L26.8568 20.0895Z" fill="url(#paint2_linear_101_29)"/>
<path d="M73.9189 23.8108C73.9321 23.5965 73.9321 23.3816 73.9189 23.1673V23.1673H69.647V24.4006H72.5572C72.509 24.9311 72.3045 25.4352 71.9698 25.8485C71.6053 26.2121 71.1571 26.4799 70.665 26.628C70.1728 26.7761 69.6519 26.8 69.1483 26.6977C68.6447 26.5953 68.174 26.3697 67.778 26.041C67.382 25.7122 67.0728 25.2905 66.8779 24.8131C66.683 24.3357 66.6084 23.8174 66.6606 23.3041C66.7129 22.7908 66.8904 22.2983 67.1774 21.8704C67.4645 21.4425 67.8522 21.0923 68.3063 20.8508C68.7604 20.6093 69.2667 20.4841 69.7805 20.4861C70.1951 20.4543 70.6113 20.5201 70.996 20.6784C71.3807 20.8367 71.7233 21.083 71.9965 21.3977V21.3977L72.8242 20.5933C72.4702 20.1723 72.0219 19.8415 71.516 19.6281C70.9641 19.4044 70.3756 19.2862 69.7805 19.2796C69.2058 19.276 68.636 19.3874 68.1047 19.6075C67.5733 19.8275 67.0909 20.1517 66.6857 20.5611C66.2806 20.9705 65.9607 21.4568 65.7448 21.9918C65.529 22.5268 65.4215 23.0995 65.4286 23.6767C65.4142 24.2571 65.5165 24.8344 65.7294 25.3742C65.9423 25.9139 66.2615 26.405 66.6678 26.818C67.0741 27.231 67.5591 27.5575 68.094 27.7779C68.6288 27.9983 69.2024 28.1081 69.7805 28.1007C70.3615 28.1081 70.9376 27.9925 71.4712 27.7616C72.0048 27.5306 72.484 27.1894 72.8776 26.7601V26.7601C73.2479 26.3696 73.5321 25.9052 73.7115 25.3969C73.8909 24.8887 73.9616 24.3483 73.9189 23.8108Z" fill="#FCFCFC"/>
<path d="M75.147 19.2528V27.6985H80.1664V26.4116H76.4819V24.1058H79.8193V22.8456H76.4819V20.513H80.1664V20.3789V19.2528H75.147Z" fill="#FCFCFC"/>
<path d="M80.9941 19.2528V20.513H83.2636V27.6985H84.5718V27.5645V20.513H86.8679V19.2528H80.9941Z" fill="#FCFCFC"/>
<path d="M90.6318 19.2528V27.6985H90.7653H91.9401V19.2528H90.6318Z" fill="#FCFCFC"/>
<path d="M92.9814 19.2528V20.513H95.2776V27.6985H96.5858V27.5645V20.513H98.8552V19.2528H92.9814Z" fill="#FCFCFC"/>
<path d="M109.375 20.3521C108.973 19.9452 108.495 19.6222 107.968 19.4018C107.441 19.1814 106.875 19.0679 106.305 19.0679C105.734 19.0679 105.169 19.1814 104.642 19.4018C104.115 19.6222 103.636 19.9452 103.234 20.3521C102.448 21.2006 102.011 22.3167 102.011 23.4757C102.011 24.6348 102.448 25.7508 103.234 26.5993C103.627 27.0181 104.104 27.3492 104.633 27.5709C105.162 27.7927 105.732 27.9001 106.305 27.8863C106.878 27.9018 107.448 27.7951 107.977 27.5733C108.506 27.3515 108.983 27.0195 109.375 26.5993C110.179 25.76 110.629 24.6405 110.629 23.4757C110.629 22.3109 110.179 21.1914 109.375 20.3521V20.3521ZM106.305 26.5993C105.911 26.6056 105.521 26.5302 105.158 26.378C104.795 26.2257 104.467 25.9999 104.195 25.7145V25.7145C103.906 25.4187 103.68 25.0659 103.533 24.6783C103.386 24.2906 103.321 23.8766 103.341 23.4623C103.32 23.0519 103.385 22.6416 103.532 22.2581C103.679 21.8746 103.905 21.5267 104.195 21.2369V21.2369C104.467 20.9516 104.795 20.7257 105.158 20.5735C105.521 20.4212 105.911 20.3459 106.305 20.3521C106.699 20.3336 107.094 20.4034 107.458 20.5564C107.823 20.7094 108.149 20.9418 108.414 21.2369C108.981 21.8434 109.296 22.6439 109.296 23.4757C109.296 24.3075 108.981 25.1081 108.414 25.7145C108.149 26.0096 107.823 26.242 107.458 26.395C107.094 26.5481 106.699 26.6178 106.305 26.5993Z" fill="#FCFCFC"/>
<path d="M117.065 19.2528V24.1594L117.091 25.3123L113.327 19.2528H111.832V27.6985H111.965H113.14V22.4702L113.113 21.3173L117.065 27.6985H118.373V19.2528H117.065Z" fill="#FCFCFC"/>
<path d="M101.668 39.6601C100.532 39.6654 99.4238 40.0083 98.4823 40.6456C97.5408 41.2829 96.8084 42.186 96.3776 43.2409C95.9467 44.2958 95.8367 45.4553 96.0614 46.5729C96.2862 47.6906 96.8355 48.7163 97.6402 49.5207C98.4449 50.3251 99.4689 50.872 100.583 51.0926C101.697 51.3131 102.851 51.1972 103.899 50.7597C104.948 50.3221 105.844 49.5825 106.474 48.6341C107.104 47.6857 107.441 46.571 107.441 45.4308C107.452 44.6677 107.309 43.9102 107.023 43.2034C106.736 42.4966 106.311 41.8549 105.772 41.3165C105.234 40.7781 104.593 40.354 103.888 40.0694C103.182 39.7849 102.427 39.6457 101.668 39.6601ZM101.668 48.9307C100.97 48.9789 100.274 48.8153 99.6706 48.4613C99.0668 48.1072 98.5831 47.5789 98.2823 46.9452C97.9814 46.3114 97.8773 45.6014 97.9835 44.9074C98.0897 44.2135 98.4013 43.5677 98.8778 43.0539C99.3543 42.5401 99.9736 42.1821 100.655 42.0264C101.337 41.8707 102.05 41.9245 102.701 42.1808C103.351 42.4372 103.911 42.8842 104.305 43.4638C104.7 44.0433 104.912 44.7287 104.913 45.4308C104.935 45.876 104.867 46.321 104.715 46.7396C104.562 47.1581 104.328 47.5418 104.025 47.868C103.723 48.1941 103.358 48.4562 102.953 48.6387C102.549 48.8212 102.111 48.9205 101.668 48.9307Z" fill="#FCFCFC"/>
<path d="M89.0841 39.6601C87.9487 39.6654 86.8403 40.0083 85.8988 40.6456C84.9573 41.2829 84.2249 42.186 83.7941 43.2409C83.3632 44.2958 83.2532 45.4553 83.4779 46.5729C83.7027 47.6906 84.2521 48.7163 85.0568 49.5207C85.8615 50.3251 86.8854 50.872 87.9994 51.0926C89.1134 51.3131 90.2674 51.1972 91.3159 50.7597C92.3644 50.3221 93.2603 49.5825 93.8905 48.6341C94.5208 47.6857 94.8572 46.571 94.8572 45.4308C94.868 44.6677 94.7259 43.9102 94.4393 43.2034C94.1526 42.4966 93.7274 41.8549 93.1888 41.3165C92.6501 40.7781 92.0092 40.354 91.304 40.0694C90.5989 39.7849 89.8439 39.6457 89.0841 39.6601V39.6601ZM89.0841 48.9307C88.3866 48.9789 87.6908 48.8153 87.0871 48.4613C86.4833 48.1072 85.9996 47.5789 85.6988 46.9452C85.3979 46.3114 85.2938 45.6014 85.4 44.9074C85.5062 44.2135 85.8178 43.5677 86.2943 43.0539C86.7708 42.5401 87.3901 42.1821 88.0719 42.0264C88.7536 41.8707 89.4662 41.9245 90.1171 42.1808C90.768 42.4372 91.3271 42.8842 91.7217 43.4638C92.1163 44.0433 92.3282 44.7287 92.3298 45.4308C92.3512 45.876 92.2837 46.321 92.1312 46.7396C91.9787 47.1581 91.7443 47.5418 91.4418 47.868C91.1393 48.1941 90.7749 48.4562 90.3699 48.6387C89.965 48.8212 89.5278 48.9205 89.0841 48.9307Z" fill="#FCFCFC"/>
<path d="M74.1063 41.4501V43.8813H79.8794C79.781 45.0315 79.3143 46.1188 78.5492 46.9804C77.9581 47.5745 77.2514 48.04 76.4733 48.348C75.6953 48.6559 74.8623 48.7997 74.0265 48.7704C72.9697 48.7696 71.9291 48.5097 70.995 48.0132C70.0609 47.5168 69.2617 46.7989 68.6667 45.9218C68.0717 45.0447 67.6989 44.035 67.5807 42.9804C67.4626 41.9257 67.6026 40.8581 67.9887 39.8702C68.3748 38.8822 68.9952 38.0039 69.7961 37.3115C70.5969 36.619 71.554 36.1334 72.5843 35.8968C73.6145 35.6602 74.6866 35.6798 75.7076 35.9538C76.7286 36.2279 77.6675 36.7481 78.4428 37.4693L80.1454 35.7595C79.3443 34.9534 78.3894 34.318 77.3381 33.8911C76.2867 33.4641 75.1604 33.2546 74.0265 33.2748C72.8134 33.2083 71.5995 33.3908 70.459 33.8112C69.3184 34.2316 68.2752 34.8811 67.393 35.7199C66.5108 36.5588 65.8082 37.5694 65.328 38.6902C64.8478 39.8109 64.6001 41.0181 64.6001 42.2382C64.6001 43.4583 64.8478 44.6655 65.328 45.7862C65.8082 46.907 66.5108 47.9176 67.393 48.7565C68.2752 49.5953 69.3184 50.2448 70.459 50.6652C71.5995 51.0856 72.8134 51.2681 74.0265 51.2016C75.1835 51.2618 76.3397 51.0683 77.4147 50.6347C78.4897 50.201 79.4579 49.5375 80.2518 48.6902C81.7295 47.1799 82.5521 45.1437 82.5398 43.0263C82.5852 42.5197 82.5852 42.0101 82.5398 41.5035L74.1063 41.4501Z" fill="#FCFCFC"/>
<path d="M130.693 48.9309C130.131 48.9257 129.582 48.7595 129.111 48.4519C128.639 48.1443 128.265 47.708 128.033 47.1943L135.721 43.9883L135.455 43.3471C135.109 42.2802 134.436 41.3499 133.534 40.6881C132.631 40.0263 131.544 39.6667 130.427 39.6603C129.697 39.6771 128.977 39.8411 128.311 40.1424C127.645 40.4438 127.046 40.8764 126.55 41.4147C126.054 41.9529 125.67 42.5858 125.422 43.2757C125.174 43.9656 125.067 44.6986 125.106 45.431C125.088 46.1893 125.223 46.9434 125.502 47.6481C125.781 48.3529 126.199 48.9939 126.73 49.5327C127.262 50.0715 127.896 50.497 128.595 50.7838C129.295 51.0706 130.044 51.2128 130.799 51.2018C131.756 51.1943 132.696 50.9459 133.533 50.4791C134.37 50.0123 135.076 49.3422 135.588 48.5301L133.619 47.1943C133.337 47.7252 132.914 48.1679 132.398 48.4741C131.882 48.7804 131.292 48.9384 130.693 48.9309ZM130.427 41.9045C130.862 41.8817 131.294 41.9856 131.672 42.2036C132.049 42.4216 132.356 42.7445 132.555 43.1334L127.421 45.2707C127.388 44.8493 127.441 44.4257 127.576 44.0254C127.711 43.6251 127.926 43.2564 128.207 42.9418C128.488 42.6271 128.829 42.3729 129.211 42.1947C129.593 42.0164 130.006 41.9176 130.427 41.9045V41.9045Z" fill="#FCFCFC"/>
<path d="M123.776 33.8892H121.249V50.8542H123.776V33.8892Z" fill="#FCFCFC"/>
<path d="M117.125 40.0073V40.9691C116.748 40.5455 116.284 40.2091 115.765 39.9831C115.246 39.7571 114.684 39.6469 114.119 39.66C112.594 39.66 111.133 40.268 110.055 41.3502C108.978 42.4324 108.372 43.9002 108.372 45.4307C108.372 46.9612 108.978 48.429 110.055 49.5113C111.133 50.5935 112.594 51.2015 114.119 51.2015C114.684 51.2146 115.246 51.1044 115.765 50.8783C116.284 50.6523 116.748 50.3159 117.125 49.8924V49.8924V50.7206C117.125 52.938 115.954 54.1136 114.065 54.1136C113.434 54.094 112.823 53.8885 112.307 53.5227C111.792 53.157 111.395 52.6471 111.165 52.0564L108.984 52.9915C109.381 54.0078 110.078 54.8778 110.981 55.4844C111.885 56.091 112.952 56.4051 114.039 56.3845C114.797 56.3904 115.548 56.2335 116.241 55.9243C116.934 55.615 117.553 55.1605 118.057 54.5912C118.561 54.022 118.938 53.3511 119.163 52.6237C119.387 51.8962 119.454 51.1289 119.36 50.3733V40.0073H117.125ZM114.252 48.9306C113.327 48.9306 112.441 48.5618 111.787 47.9055C111.134 47.2491 110.766 46.359 110.766 45.4307C110.766 44.5025 111.134 43.6123 111.787 42.956C112.441 42.2996 113.327 41.9309 114.252 41.9309C114.685 41.9544 115.11 42.0651 115.5 42.2563C115.89 42.4476 116.239 42.7156 116.524 43.0445C116.809 43.3733 117.026 43.7564 117.161 44.1708C117.296 44.5853 117.347 45.0228 117.311 45.4574C117.344 45.8907 117.289 46.3261 117.15 46.7377C117.011 47.1492 116.791 47.5284 116.503 47.8526C116.215 48.1768 115.865 48.4393 115.473 48.6245C115.082 48.8098 114.657 48.9139 114.225 48.9306H114.252Z" fill="#FCFCFC"/>
<path d="M147.161 33.7558H141.068L141.069 50.8543H143.729V44.4424H147.267C148.678 44.4424 150.032 43.8794 151.03 42.8774C152.028 41.8753 152.588 40.5162 152.588 39.0991C152.588 37.682 152.028 36.3229 151.03 35.3208C150.032 34.3188 148.678 33.7558 147.267 33.7558L147.161 33.7558ZM147.161 42.0646H143.729V36.2671H147.32C147.723 36.2283 148.129 36.2744 148.512 36.4024C148.896 36.5304 149.249 36.7375 149.548 37.0105C149.847 37.2834 150.086 37.6162 150.25 37.9873C150.413 38.3585 150.498 38.76 150.498 39.1659C150.498 39.5718 150.413 39.9732 150.25 40.3444C150.086 40.7156 149.847 41.0483 149.548 41.3213C149.249 41.5942 148.896 41.8014 148.512 41.9294C148.129 42.0574 147.723 42.1034 147.32 42.0646H147.161Z" fill="#FCFCFC"/>
<path d="M162.804 39.6335C161.875 39.5833 160.953 39.8103 160.153 40.2857C159.353 40.7612 158.711 41.4638 158.308 42.3051L160.543 43.2402C160.763 42.834 161.098 42.5013 161.504 42.283C161.91 42.0647 162.371 41.9702 162.83 42.0112C163.149 41.978 163.47 42.0085 163.777 42.1009C164.083 42.1933 164.368 42.3458 164.616 42.5495C164.863 42.7532 165.068 43.0041 165.218 43.2877C165.368 43.5714 165.461 43.8821 165.491 44.202V44.3623C164.671 43.9283 163.757 43.7078 162.83 43.7211C160.436 43.7211 157.962 45.0302 157.962 47.5148C157.985 48.0403 158.114 48.5558 158.339 49.0305C158.565 49.5053 158.883 49.9297 159.275 50.2785C159.667 50.6274 160.125 50.8936 160.622 51.0614C161.118 51.2291 161.643 51.295 162.165 51.2551C162.801 51.2983 163.437 51.1669 164.004 50.8751C164.571 50.5833 165.048 50.1421 165.384 49.5987V49.5987V50.9078H167.832V44.3356C167.838 43.6866 167.709 43.0435 167.454 42.4472C167.198 41.8509 166.822 41.3146 166.349 40.8723C165.876 40.43 165.317 40.0914 164.706 39.8781C164.096 39.6648 163.448 39.5815 162.804 39.6335ZM162.485 48.9308C161.66 48.9308 160.516 48.53 160.516 47.4881C160.516 46.4462 161.953 45.6714 163.176 45.6714C163.979 45.6467 164.772 45.8504 165.464 46.2591C165.369 46.9891 165.015 47.6603 164.469 48.1507C163.922 48.641 163.218 48.9179 162.485 48.9308V48.9308Z" fill="#FCFCFC"/>
<path d="M176.797 40.0073L173.897 47.3543H173.818L170.811 40.0073H168.098L172.594 50.2664L170.04 55.9837H172.674L179.591 40.0073H176.797Z" fill="#FCFCFC"/>
<path d="M156.605 33.8892H154.078V50.8542H156.605V33.8892Z" fill="#FCFCFC"/>
</g>
<defs>
<filter id="filter0_d_101_29" x="0" y="0" width="202" height="74" filterUnits="userSpaceOnUse" color-interpolation-filters="sRGB">
<feFlood flood-opacity="0" result="BackgroundImageFix"/>
<feColorMatrix in="SourceAlpha" type="matrix" values="0 0 0 0 0 0 0 0 0 0 0 0 0 0 0 0 0 0 127 0" result="hardAlpha"/>
<feOffset/>
<feGaussianBlur stdDeviation="5"/>
<feComposite in2="hardAlpha" operator="out"/>
<feColorMatrix type="matrix" values="0 0 0 0 0 0 0 0 0 0 0 0 0 0 0 0 0 0 0.1 0"/>
<feBlend mode="normal" in2="BackgroundImageFix" result="effect1_dropShadow_101_29"/>
<feBlend mode="normal" in="SourceGraphic" in2="effect1_dropShadow_101_29" result="shape"/>
</filter>
<linearGradient id="paint0_linear_101_29" x1="51.7322" y1="37.6384" x2="19.6379" y2="37.6384" gradientUnits="userSpaceOnUse">
<stop stop-color="#FEE000"/>
<stop offset="0.4" stop-color="#FCBE0E"/>
<stop offset="0.77" stop-color="#FAA418"/>
<stop offset="1" stop-color="#F99B1C"/>
</linearGradient>
<linearGradient id="paint1_linear_101_29" x1="44.1021" y1="40.1029" x2="13.3094" y2="70.8895" gradientUnits="userSpaceOnUse">
<stop stop-color="#EF4547"/>
<stop offset="1" stop-color="#C6196D"/>
</linearGradient>
<linearGradient id="paint2_linear_101_29" x1="13.6381" y1="1.69022" x2="38.7841" y2="26.8312" gradientUnits="userSpaceOnUse">
<stop stop-color="#279E6F"/>
<stop offset="0.04" stop-color="#2BA06F"/>
<stop offset="0.46" stop-color="#53B26C"/>
<stop offset="0.8" stop-color="#6BBD6A"/>
<stop offset="1" stop-color="#74C169"/>
</linearGradient>
</defs>
</svg>
