<svg width="50" height="50" viewBox="0 0 50 50" fill="none" xmlns="http://www.w3.org/2000/svg">
<rect width="50" height="50" rx="5" fill="#232323"/>
<path d="M40.9161 17.7021C40.8388 15.9487 40.5552 14.7432 40.1489 13.6987C39.7298 12.5899 39.085 11.5972 38.2403 10.772C37.4149 9.93398 36.4155 9.28277 35.3194 8.87029C34.2686 8.4641 33.0692 8.18055 31.3154 8.10325C29.5486 8.01939 28.9877 8 24.5064 8C20.0252 8 19.4643 8.01939 17.704 8.0967C15.9502 8.17401 14.7445 8.45781 13.7 8.86374C12.5908 9.28277 11.5979 9.92743 10.7726 10.772C9.93435 11.5972 9.28327 12.5965 8.87046 13.6924C8.46419 14.7432 8.18059 15.9421 8.10327 17.6956C8.01939 19.4621 8 20.0229 8 24.5033C8 28.9837 8.01939 29.5445 8.09672 31.3044C8.17404 33.0578 8.4579 34.2633 8.86416 35.3079C9.28327 36.4166 9.93435 37.4093 10.7726 38.2345C11.5979 39.0726 12.5973 39.7238 13.6935 40.1363C14.7445 40.5424 15.9437 40.826 17.6977 40.9033C19.4577 40.9809 20.0189 41 24.5001 41C28.9814 41 29.5423 40.9809 31.3026 40.9033C33.0563 40.826 34.262 40.5424 35.3065 40.1363C37.5247 39.2788 39.2785 37.5254 40.1361 35.3079C40.5421 34.257 40.826 33.0578 40.9033 31.3044C40.9806 29.5445 41 28.9837 41 24.5033C41 20.0229 40.9935 19.4621 40.9161 17.7021ZM37.9438 31.1755C37.8728 32.7871 37.602 33.6574 37.3764 34.2376C36.8218 35.6753 35.6805 36.8163 34.2426 37.3708C33.6623 37.5964 32.7856 37.8671 31.1799 37.9379C29.439 38.0154 28.9169 38.0346 24.513 38.0346C20.1091 38.0346 19.5804 38.0154 17.8458 37.9379C16.2338 37.8671 15.3634 37.5964 14.7831 37.3708C14.0675 37.1064 13.4162 36.6873 12.8875 36.1394C12.3394 35.6043 11.9203 34.9596 11.6559 34.2442C11.4302 33.664 11.1594 32.7871 11.0887 31.182C11.0111 29.4415 10.9919 28.9192 10.9919 24.5161C10.9919 20.113 11.0111 19.5845 11.0887 17.8504C11.1594 16.2388 11.4302 15.3685 11.6559 14.7883C11.9203 14.0726 12.3394 13.4217 12.894 12.8929C13.429 12.3449 14.0738 11.9259 14.7896 11.6617C15.3699 11.4361 16.2469 11.1654 17.8523 11.0944C19.5932 11.0171 20.1156 10.9977 24.5193 10.9977C28.9297 10.9977 29.4519 11.0171 31.1865 11.0944C32.7984 11.1654 33.6689 11.4361 34.2492 11.6617C34.9647 11.9259 35.6161 12.3449 36.1447 12.8929C36.6928 13.428 37.1119 14.0726 37.3764 14.7883C37.602 15.3685 37.8728 16.2451 37.9438 17.8504C38.0212 19.591 38.0406 20.113 38.0406 24.5161C38.0406 28.9192 38.0212 29.4349 37.9438 31.1755Z" fill="#FCFCFC"/>
<path d="M24.5066 16.0259C19.8256 16.0259 16.0277 19.8228 16.0277 24.5031C16.0277 29.1835 19.8256 32.9804 24.5066 32.9804C29.1878 32.9804 32.9855 29.1835 32.9855 24.5031C32.9855 19.8228 29.1878 16.0259 24.5066 16.0259ZM24.5066 30.0021C21.4698 30.0021 19.0066 27.5396 19.0066 24.5031C19.0066 21.4667 21.4698 19.0042 24.5066 19.0042C27.5436 19.0042 30.0066 21.4667 30.0066 24.5031C30.0066 27.5396 27.5436 30.0021 24.5066 30.0021Z" fill="#FCFCFC"/>
<path d="M35.3004 15.6911C35.3004 16.7842 34.414 17.6705 33.3207 17.6705C32.2276 17.6705 31.3412 16.7842 31.3412 15.6911C31.3412 14.5977 32.2276 13.7117 33.3207 13.7117C34.414 13.7117 35.3004 14.5977 35.3004 15.6911Z" fill="#FCFCFC"/>
</svg>
