<svg width="24" height="24" viewBox="0 0 24 24" fill="none" xmlns="http://www.w3.org/2000/svg">
<path d="M23.939 7.05609C23.8828 5.78087 23.6765 4.90417 23.381 4.1445C23.0762 3.33813 22.6073 2.61618 21.9929 2.01602C21.3927 1.40653 20.6658 0.932924 19.8686 0.632938C19.1044 0.33753 18.2321 0.131313 16.9567 0.0750881C15.6717 0.0141019 15.2638 0 12.0047 0C8.74559 0 8.33766 0.0141019 7.05743 0.0703264C5.78197 0.126551 4.90511 0.332952 4.14547 0.628176C3.33876 0.932924 2.61668 1.40177 2.01641 2.01602C1.4068 2.61618 0.933285 3.34289 0.633059 4.13992C0.337595 4.90417 0.131338 5.77611 0.0751024 7.05133C0.0141046 8.33607 0 8.74392 0 12.0024C0 15.2608 0.0141046 15.6687 0.0703399 16.9487C0.126575 18.2239 0.333015 19.1006 0.628479 19.8603C0.933285 20.6666 1.4068 21.3886 2.01641 21.9887C2.61668 22.5982 3.34353 23.0718 4.14071 23.3718C4.90511 23.6672 5.77721 23.8734 7.05285 23.9297C8.33289 23.9861 8.74101 24 12.0001 24C15.2592 24 15.6671 23.9861 16.9473 23.9297C18.2228 23.8734 19.0997 23.6672 19.8593 23.3718C21.4725 22.7482 22.748 21.473 23.3717 19.8603C23.667 19.096 23.8734 18.2239 23.9297 16.9487C23.9859 15.6687 24 15.2608 24 12.0024C24 8.74392 23.9952 8.33607 23.939 7.05609ZM21.7773 16.8549C21.7257 18.027 21.5288 18.66 21.3646 19.0819C20.9613 20.1275 20.1313 20.9573 19.0856 21.3606C18.6635 21.5247 18.0259 21.7215 16.8581 21.773C15.592 21.8294 15.2123 21.8433 12.0094 21.8433C8.80659 21.8433 8.4221 21.8294 7.16056 21.773C5.98823 21.7215 5.35517 21.5247 4.93313 21.3606C4.41273 21.1683 3.93903 20.8635 3.55454 20.465C3.15595 20.0758 2.85115 19.607 2.65881 19.0867C2.49468 18.6647 2.29777 18.027 2.2463 16.8597C2.18988 15.5938 2.17596 15.214 2.17596 12.0117C2.17596 8.80949 2.18988 8.42507 2.2463 7.16396C2.29777 5.99185 2.49468 5.35891 2.65881 4.93695C2.85115 4.41646 3.15595 3.94304 3.55931 3.55844C3.94837 3.15993 4.41731 2.85518 4.9379 2.66306C5.35993 2.49897 5.99776 2.30209 7.16532 2.25045C8.43144 2.19422 8.81135 2.18012 12.014 2.18012C15.2216 2.18012 15.6013 2.19422 16.8629 2.25045C18.0352 2.30209 18.6683 2.49897 19.0903 2.66306C19.6107 2.85518 20.0844 3.15993 20.4689 3.55844C20.8675 3.94762 21.1723 4.41646 21.3646 4.93695C21.5288 5.35891 21.7257 5.99643 21.7773 7.16396C21.8336 8.42983 21.8477 8.80949 21.8477 12.0117C21.8477 15.214 21.8336 15.589 21.7773 16.8549Z" fill="#FCFCFC"/>
<path d="M12.0048 5.8371C8.6005 5.8371 5.83838 8.59851 5.83838 12.0024C5.83838 15.4063 8.6005 18.1677 12.0048 18.1677C15.4094 18.1677 18.1713 15.4063 18.1713 12.0024C18.1713 8.59851 15.4094 5.8371 12.0048 5.8371ZM12.0048 16.0016C9.79628 16.0016 8.00481 14.2107 8.00481 12.0024C8.00481 9.79406 9.79628 8.00312 12.0048 8.00312C14.2136 8.00312 16.0049 9.79406 16.0049 12.0024C16.0049 14.2107 14.2136 16.0016 12.0048 16.0016Z" fill="#FCFCFC"/>
<path d="M19.8549 5.59388C19.8549 6.38887 19.2103 7.03347 18.4152 7.03347C17.6202 7.03347 16.9756 6.38887 16.9756 5.59388C16.9756 4.79871 17.6202 4.1543 18.4152 4.1543C19.2103 4.1543 19.8549 4.79871 19.8549 5.59388Z" fill="#FCFCFC"/>
</svg>
