<svg width="50" height="50" viewBox="0 0 50 50" fill="none" xmlns="http://www.w3.org/2000/svg">
<rect width="50" height="50" rx="5" fill="#232323"/>
<path d="M25 37.1951C23.8483 37.1951 22.72 37.1199 21.6248 36.975C20.5296 37.7012 14.1944 41.8879 13.5961 41.9667C13.5961 41.9667 13.3525 42.0566 13.144 41.941C12.9355 41.8255 12.9725 41.5211 12.9725 41.5211C13.0349 41.1176 14.6153 35.9866 14.9056 35.0422C9.55641 32.5482 6 28.1305 6 23.0985C6 15.312 14.5062 9 25 9C35.4938 9 44 15.312 44 23.0985C44 30.8831 35.4938 37.1951 25 37.1951Z" fill="#FCFCFC"/>
<path d="M17.8194 20.9898H16.1838V27.0295C16.1838 27.5645 15.7144 28 15.1351 28C14.5557 28 14.0881 27.5663 14.0881 27.0295V20.9898H12.4525C12.1936 20.9712 11.9516 20.8583 11.7749 20.6738C11.5982 20.4893 11.5 20.2467 11.5 19.9949C11.5 19.743 11.5982 19.5005 11.7749 19.316C11.9516 19.1314 12.1936 19.0186 12.4525 19H17.8176C18.0765 19.0186 18.3186 19.1314 18.4952 19.316C18.6719 19.5005 18.7701 19.743 18.7701 19.9949C18.7701 20.2467 18.6719 20.4893 18.4952 20.6738C18.3186 20.8583 18.0765 20.9712 17.8176 20.9898H17.8194ZM38.2867 26.3337C38.3703 26.44 38.4314 26.5614 38.4662 26.6908C38.5011 26.8201 38.5091 26.9549 38.4897 27.0873C38.4706 27.2194 38.4247 27.3465 38.3546 27.4613C38.2846 27.576 38.1919 27.6762 38.0817 27.756C37.9008 27.8898 37.6796 27.9622 37.4521 27.962C37.2895 27.9629 37.1289 27.9267 36.9833 27.8564C36.8377 27.7861 36.7112 27.6836 36.6138 27.5572L34.1567 24.4L33.7934 24.7524V26.9699C33.793 27.2393 33.6826 27.4975 33.4864 27.6882C33.2902 27.8788 33.0242 27.9864 32.7465 27.9873C32.4684 27.9873 32.2016 27.8802 32.0049 27.6893C31.8082 27.4985 31.6977 27.2397 31.6977 26.9699V20.0157C31.7091 19.7535 31.8245 19.5057 32.0198 19.3241C32.215 19.1425 32.4751 19.0411 32.7456 19.0411C33.0161 19.0411 33.2761 19.1425 33.4714 19.3241C33.6667 19.5057 33.782 19.7535 33.7934 20.0157V22.2024L36.7181 19.3651C36.7945 19.2919 36.885 19.2342 36.9844 19.1951C37.0838 19.156 37.1902 19.1364 37.2975 19.1373C37.5583 19.1373 37.8228 19.2476 38.0203 19.4392C38.2001 19.6102 38.3093 19.8389 38.3276 20.0825C38.3373 20.1959 38.3217 20.3099 38.2818 20.4169C38.242 20.5239 38.1788 20.6213 38.0966 20.7024L35.7085 23.0175L38.2885 26.3337H38.2867ZM22.7318 20.0048C22.5548 19.5169 22.0183 19.0145 21.3346 19C20.6528 19.0145 20.1163 19.5169 19.9394 20.003L17.4338 26.4024C17.1153 27.3602 17.3928 27.7181 17.6816 27.8482C17.8904 27.9404 18.1172 27.9879 18.3466 27.9873C18.7844 27.9873 19.1178 27.8157 19.2184 27.5392L19.7382 26.2199H22.933L23.4527 27.5392C23.5533 27.8157 23.8868 27.9873 24.3245 27.9873C24.5541 27.9871 24.7809 27.939 24.9896 27.8464C25.2783 27.7181 25.5559 27.362 25.2373 26.4006L22.7318 20.003V20.0048ZM20.2896 24.4199L21.3365 21.5355L22.3816 24.4199H20.2896ZM31.2898 26.9193C31.2839 27.1721 31.1749 27.4122 30.9866 27.5871C30.7983 27.7619 30.5462 27.8571 30.2857 27.8518H26.9251C26.7959 27.8547 26.6674 27.8328 26.5469 27.7875C26.4265 27.7422 26.3164 27.6743 26.223 27.5877C26.1295 27.5011 26.0546 27.3975 26.0025 27.2828C25.9504 27.1681 25.922 27.0446 25.9191 26.9193V20.0157C25.9191 19.4554 26.3998 19 26.9903 19C27.5808 19 28.0596 19.4554 28.0596 20.0157V25.9886H30.2857C30.8389 25.9886 31.2916 26.406 31.2916 26.9193H31.2898Z" fill="#2A2A2A"/>
</svg>
