<svg width="90" height="90" viewBox="0 0 90 90" fill="none" xmlns="http://www.w3.org/2000/svg">
<path d="M90 45.0017C90.0006 43.1955 89.518 41.422 88.6021 39.8652C87.6862 38.3085 86.3704 37.0251 84.7913 36.1483C84.5045 35.9913 84.2524 35.7777 84.0504 35.5206C83.8483 35.2635 83.7004 34.9682 83.6156 34.6524C83.5308 34.3366 83.5107 34.0069 83.5568 33.6832C83.6028 33.3594 83.7139 33.0483 83.8834 32.7687C84.8152 31.2157 85.3133 29.4412 85.3257 27.6302C85.3381 25.8192 84.8645 24.038 83.954 22.4724C83.0436 20.9068 81.7298 19.6141 80.1497 18.7291C78.5695 17.8442 76.7808 17.3994 74.9702 17.4411C74.652 17.4451 74.3363 17.3853 74.0416 17.2653C73.7469 17.1453 73.4792 16.9675 73.2544 16.7423C73.0295 16.5172 72.8521 16.2493 72.7325 15.9544C72.6129 15.6596 72.5535 15.3438 72.558 15.0256C72.5983 13.2159 72.1526 11.4285 71.2676 9.84953C70.3825 8.27052 69.0903 6.95763 67.5256 6.04756C65.9608 5.13748 64.1807 4.66349 62.3705 4.67494C60.5604 4.6864 58.7864 5.18287 57.2333 6.11267C56.9542 6.28268 56.6435 6.3943 56.3201 6.44077C55.9966 6.48724 55.6671 6.4676 55.3515 6.38304C55.0358 6.29848 54.7406 6.15075 54.4837 5.9488C54.2268 5.74685 54.0136 5.49487 53.8569 5.20812C52.9795 3.62956 51.6959 2.3143 50.1393 1.39858C48.5826 0.482867 46.8094 0 45.0033 0C43.1973 0 41.4241 0.482867 39.8674 1.39858C38.3107 2.3143 37.0272 3.62956 36.1498 5.20812C35.9931 5.49487 35.7798 5.74685 35.5229 5.9488C35.266 6.15075 34.9708 6.29848 34.6552 6.38304C34.3395 6.4676 34.01 6.48724 33.6866 6.44077C33.3631 6.3943 33.0524 6.28268 32.7734 6.11267C31.2201 5.18115 29.4454 4.68328 27.6343 4.67095C25.8231 4.65863 24.0418 5.13229 22.476 6.04258C20.9102 6.95286 19.6172 8.26646 18.7318 9.84644C17.8464 11.4264 17.401 13.2149 17.442 15.0256C17.4465 15.3438 17.3872 15.6596 17.2676 15.9544C17.1479 16.2493 16.9705 16.5172 16.7456 16.7423C16.5208 16.9675 16.2531 17.1453 15.9585 17.2653C15.6638 17.3853 15.348 17.4451 15.0298 17.4411C13.2192 17.3994 11.4305 17.8442 9.85038 18.7291C8.27021 19.6141 6.95642 20.9068 6.046 22.4724C5.13558 24.038 4.66188 25.8192 4.67431 27.6302C4.68674 29.4412 5.18484 31.2157 6.11667 32.7687C6.28615 33.0483 6.39724 33.3594 6.44326 33.6832C6.48928 34.0069 6.46927 34.3366 6.38444 34.6524C6.29961 34.9682 6.1517 35.2635 5.94965 35.5206C5.7476 35.7777 5.49558 35.9913 5.20878 36.1483C3.6301 37.0253 2.31467 38.3084 1.39881 39.8648C0.482955 41.4212 0 43.1941 0 45C0 46.8058 0.482955 48.5788 1.39881 50.1352C2.31467 51.6916 3.6301 52.9747 5.20878 53.8517C5.49558 54.0087 5.7476 54.2223 5.94965 54.4794C6.1517 54.7365 6.29961 55.0318 6.38444 55.3476C6.46927 55.6634 6.48928 55.9931 6.44326 56.3168C6.39724 56.6406 6.28615 56.9516 6.11667 57.2313C5.18513 58.7845 4.68724 60.5592 4.67491 62.3703C4.66258 64.1814 5.13626 65.9626 6.04657 67.5284C6.95688 69.0941 8.2705 70.3871 9.85052 71.2725C11.4305 72.1579 13.2191 72.6032 15.0298 72.5622C15.348 72.5573 15.6639 72.6164 15.9587 72.7358C16.2536 72.8553 16.5215 73.0328 16.7465 73.2578C16.9715 73.4827 17.149 73.7506 17.2684 74.0455C17.3879 74.3404 17.447 74.6562 17.442 74.9744C17.401 76.785 17.8464 78.5736 18.7318 80.1536C19.6172 81.7335 20.9102 83.0471 22.476 83.9574C24.0418 84.8677 25.8231 85.3414 27.6343 85.329C29.4454 85.3167 31.2201 84.8189 32.7734 83.8873C33.0524 83.7173 33.3631 83.6057 33.6866 83.5592C34.01 83.5128 34.3395 83.5324 34.6552 83.617C34.9708 83.7015 35.266 83.8492 35.5229 84.0512C35.7798 84.2532 35.9931 84.5051 36.1498 84.7919C37.0272 86.3704 38.3107 87.6857 39.8674 88.6014C41.4241 89.5171 43.1973 90 45.0033 90C46.8094 90 48.5826 89.5171 50.1393 88.6014C51.6959 87.6857 52.9795 86.3704 53.8569 84.7919C54.0136 84.5051 54.2268 84.2532 54.4837 84.0512C54.7406 83.8492 55.0358 83.7015 55.3515 83.617C55.6671 83.5324 55.9966 83.5128 56.3201 83.5592C56.6435 83.6057 56.9542 83.7173 57.2333 83.8873C58.7862 84.817 60.5598 85.3134 62.3697 85.325C64.1795 85.3366 65.9594 84.8629 67.5241 83.9532C69.0887 83.0435 70.381 81.7311 71.2663 80.1526C72.1516 78.5741 72.5976 76.7871 72.558 74.9777C72.5531 74.6596 72.6121 74.3437 72.7316 74.0488C72.8511 73.7539 73.0286 73.4861 73.2535 73.2611C73.4785 73.0361 73.7464 72.8586 74.0413 72.7391C74.3362 72.6197 74.652 72.5606 74.9702 72.5656C76.7809 72.6066 78.5695 72.1612 80.1495 71.2758C81.7295 70.3904 83.0431 69.0975 83.9535 67.5317C84.8638 65.9659 85.3374 64.1847 85.3251 62.3736C85.3128 60.5625 84.8149 58.7878 83.8834 57.2346C83.7139 56.955 83.6028 56.6439 83.5568 56.3202C83.5107 55.9964 83.5308 55.6667 83.6156 55.3509C83.7004 55.0351 83.8483 54.7398 84.0504 54.4827C84.2524 54.2256 84.5045 54.0121 84.7913 53.855C86.3706 52.9785 87.6866 51.6952 88.6025 50.1384C89.5185 48.5815 90.001 46.8079 90 45.0017Z" fill="#4877AF"/>
<path d="M84 45.002V45.0011C84.0005 43.574 83.6192 42.1728 82.8955 40.9428C82.1724 39.7137 81.1338 38.7003 79.8873 38.0076C79.5149 37.8033 79.1877 37.5258 78.9252 37.1918C78.6622 36.8571 78.4696 36.4726 78.3592 36.0616C78.2488 35.6505 78.2227 35.2213 78.2826 34.7998C78.3424 34.3792 78.4866 33.9751 78.7065 33.6116M84 45.002L79.563 34.1277M84 45.002C84.0008 46.4291 83.6196 47.8303 82.8959 49.0603C82.1727 50.2896 81.1338 51.303 79.8871 51.9954C79.5148 52.1998 79.1876 52.4772 78.9252 52.8111C78.6622 53.1458 78.4696 53.5303 78.3592 53.9414C78.2488 54.3525 78.2227 54.7817 78.2826 55.2031C78.3424 55.6236 78.4865 56.0277 78.7064 56.3911C79.4418 57.618 79.8348 59.0196 79.8446 60.45C79.8543 61.881 79.48 63.2884 78.7608 64.5256C78.0415 65.7627 77.0036 66.7843 75.7552 67.4839C74.5067 68.1834 73.0935 68.5354 71.6628 68.5029L71.6556 68.5028C71.2389 68.4964 70.8252 68.5737 70.439 68.7302C70.0527 68.8867 69.7019 69.1192 69.4072 69.4138C69.1125 69.7085 68.88 70.0594 68.7235 70.4456C68.567 70.8319 68.4897 71.2456 68.4961 71.6623L68.4962 71.6687C68.5276 73.0984 68.1751 74.5103 67.4756 75.7576C66.7761 77.0048 65.7551 78.0418 64.5188 78.7606C63.2825 79.4793 61.8761 79.8536 60.4461 79.8445C59.0171 79.8353 57.6166 79.4436 56.3902 78.7101C56.0277 78.4899 55.6244 78.3454 55.2045 78.285C54.7831 78.2245 54.3538 78.2501 53.9425 78.3602C53.5313 78.4704 53.1467 78.6629 52.812 78.926C52.4782 79.1883 52.201 79.5155 51.9971 79.8877C51.3038 81.1337 50.2902 82.1719 49.0612 82.8949C47.8312 83.6184 46.43 84 45.003 84C43.5759 84 42.1747 83.6184 40.9447 82.8949C39.7157 82.1719 38.7021 81.1337 38.0089 79.8877C37.8049 79.5155 37.5277 79.1883 37.194 78.926C36.8593 78.6629 36.4746 78.4704 36.0634 78.3602C35.6521 78.2501 35.2228 78.2245 34.8014 78.285C34.3813 78.3454 33.9778 78.4901 33.6151 78.7104C32.3884 79.4455 30.9871 79.8383 29.557 79.8481C28.1259 79.8578 26.7185 79.4835 25.4813 78.7643C24.2441 78.0451 23.2225 77.0071 22.5229 75.7588C21.8233 74.5104 21.4714 73.0972 21.5038 71.6665L21.5039 71.6593C21.5104 71.2426 21.433 70.8289 21.2765 70.4427C21.12 70.0565 20.8876 69.7056 20.5929 69.4109C20.2982 69.1162 19.9473 68.8837 19.5611 68.7273C19.1748 68.5708 18.7611 68.4934 18.3444 68.4999L18.3372 68.5C16.9065 68.5324 15.4933 68.1805 14.2449 67.4809C12.9964 66.7814 11.9585 65.7598 11.2392 64.5226C10.52 63.2855 10.1457 61.878 10.1555 60.447C10.1652 59.0167 10.5582 57.6151 11.2937 56.3882C11.5135 56.0248 11.6576 55.6207 11.7174 55.2002C11.7773 54.7787 11.7513 54.3495 11.6408 53.9384C11.5304 53.5273 11.3379 53.1429 11.0748 52.8082C10.8125 52.4744 10.4854 52.197 10.1133 51.9926C8.86695 51.2998 7.82843 50.2865 7.10524 49.0575C6.3816 47.8277 6 46.4268 6 45C6 43.5731 6.3816 42.1723 7.10524 40.9425C7.82844 39.7135 8.86695 38.7002 10.1133 38.0073M84 45.002L9.63002 37.1319M78.7065 33.6116C78.7069 33.6109 78.7073 33.6102 78.7078 33.6094L79.563 34.1277M78.7065 33.6116C78.7061 33.6122 78.7058 33.6127 78.7055 33.6132L79.563 34.1277M78.7065 33.6116C79.4421 32.385 79.8353 30.9836 79.8451 29.5533C79.8549 28.1224 79.4807 26.7151 78.7613 25.4781C78.042 24.2411 77.004 23.2198 75.7555 22.5206C74.507 21.8214 73.0938 21.4699 71.6632 21.5029L71.6528 21.5031C71.2364 21.5083 70.8232 21.4301 70.4376 21.2731C70.0519 21.116 69.7017 20.8833 69.4074 20.5887C69.1132 20.2941 68.881 19.9435 68.7244 19.5576C68.5679 19.1718 68.4903 18.7585 68.4961 18.3421L68.4962 18.3339L68.4962 18.3339C68.528 16.904 68.176 15.4917 67.4766 14.2441C66.7773 12.9965 65.7563 11.9591 64.52 11.24C63.2836 10.521 61.877 10.1464 60.4468 10.1555C59.0176 10.1645 57.617 10.5562 56.3905 11.2898M79.563 34.1277C80.3913 32.7473 80.834 31.17 80.8451 29.5602C80.8561 27.9504 80.4351 26.3671 79.6258 24.9754C78.8165 23.5838 77.6487 22.4347 76.2441 21.6481C74.8395 20.8615 73.2496 20.4661 71.6402 20.5032C71.3573 20.5067 71.0767 20.4536 70.8147 20.3469C70.5528 20.2403 70.3149 20.0822 70.115 19.8821C69.9151 19.682 69.7574 19.4438 69.6511 19.1817C69.5448 18.9196 69.492 18.6389 69.496 18.3561C69.5318 16.7475 69.1357 15.1587 68.349 13.7551C67.5622 12.3516 66.4136 11.1846 65.0227 10.3756C63.6318 9.56665 62.0495 9.14533 60.4405 9.15551C58.8314 9.16568 57.2546 9.60699 55.874 10.4335C55.626 10.5846 55.3498 10.6838 55.0623 10.7251C54.7748 10.7664 54.4819 10.749 54.2013 10.6738C53.9207 10.5986 53.6583 10.4673 53.43 10.2878C53.2016 10.1083 53.0121 9.88433 52.8728 9.62944M56.3905 11.2898C56.3918 11.289 56.393 11.2883 56.3943 11.2875L55.8741 10.4337L56.3877 11.2915C56.3886 11.2909 56.3896 11.2903 56.3905 11.2898ZM56.3905 11.2898C56.0279 11.51 55.6245 11.6546 55.2045 11.715C54.7831 11.7755 54.3538 11.7499 53.9425 11.6397C53.5313 11.5296 53.1467 11.3371 52.812 11.074C52.4783 10.8117 52.2011 10.4846 51.9971 10.1124M51.9971 10.1124C51.9977 10.1134 51.9982 10.1143 51.9987 10.1153L52.8728 9.62944M51.9971 10.1124C51.9965 10.1113 51.9959 10.1101 51.9952 10.109L52.8728 9.62944M51.9971 10.1124C51.3039 8.86636 50.2903 7.82813 49.0612 7.10511C47.8312 6.38155 46.43 6 45.003 6C43.5759 6 42.1747 6.38155 40.9447 7.10511C39.7156 7.82813 38.7021 8.86636 38.0088 10.1124M52.8728 9.62944C52.0928 8.22628 50.9519 7.05716 49.5682 6.24319C48.1845 5.42921 46.6083 5 45.003 5C43.3976 5 41.8214 5.42921 40.4377 6.24319C39.054 7.05716 37.9131 8.22628 37.1331 9.62944M37.1331 9.62944L38.0107 10.109C38.01 10.1101 38.0094 10.1112 38.0088 10.1124M37.1331 9.62944C36.9939 9.88433 36.8043 10.1083 36.5759 10.2878C36.3476 10.4673 36.0852 10.5986 35.8046 10.6738C35.524 10.749 35.2311 10.7664 34.9436 10.7251C34.6561 10.6838 34.38 10.5846 34.1319 10.4335C32.7512 9.60547 31.1737 9.16292 29.5638 9.15196C27.9539 9.141 26.3705 9.56203 24.9787 10.3712C23.5869 11.1803 22.4375 12.348 21.6505 13.7524C20.8635 15.1568 20.4676 16.7466 20.504 18.3561C20.508 18.6389 20.4553 18.9196 20.3489 19.1817C20.2426 19.4438 20.0849 19.682 19.885 19.8821C19.6852 20.0822 19.4472 20.2403 19.1853 20.3469C18.9233 20.4536 18.6427 20.5067 18.3599 20.5032C16.7504 20.4661 15.1605 20.8615 13.7559 21.6481C12.3513 22.4347 11.1835 23.5838 10.3742 24.9754C9.56496 26.3671 9.1439 27.9504 9.15495 29.5602C9.166 31.17 9.60875 32.7473 10.437 34.1277M37.1331 9.62944L38.0072 10.1153C38.0077 10.1143 38.0083 10.1133 38.0088 10.1124M38.0088 10.1124C37.8048 10.4846 37.5276 10.8117 37.194 11.074C36.8593 11.3371 36.4746 11.5296 36.0634 11.6397C35.6522 11.7499 35.2228 11.7755 34.8014 11.715C34.3813 11.6546 33.9777 11.5099 33.615 11.2896M33.615 11.2896C33.6159 11.2901 33.6167 11.2906 33.6176 11.2911L34.1318 10.4336L33.6116 11.2875C33.6128 11.2882 33.6139 11.2889 33.615 11.2896ZM33.615 11.2896C32.3884 10.5545 30.9871 10.1617 29.557 10.1519C28.1259 10.1422 26.7185 10.5165 25.4813 11.2357C24.2441 11.9549 23.2225 12.9929 22.5229 14.2412C21.8233 15.4896 21.4714 16.9028 21.5038 18.3335L21.504 18.3421H21.5039C21.5098 18.7585 21.4321 19.1718 21.2756 19.5576C21.1191 19.9435 20.8868 20.2941 20.5926 20.5887C20.2984 20.8833 19.9481 21.116 19.5624 21.2731C19.1768 21.4301 18.7636 21.5083 18.3473 21.5031L18.3368 21.503L18.3368 21.5029C16.9062 21.4699 15.493 21.8214 14.2445 22.5206C12.996 23.2198 11.958 24.2411 11.2387 25.4781C10.5194 26.7151 10.1451 28.1224 10.1549 29.5533C10.1647 30.9836 10.5579 32.385 11.2936 33.6116M11.2936 33.6116C11.2931 33.6109 11.2927 33.6102 11.2922 33.6094L10.437 34.1277M11.2936 33.6116C11.2939 33.6122 11.2942 33.6127 11.2945 33.6132L10.437 34.1277M11.2936 33.6116C11.5134 33.9751 11.6576 34.3793 11.7174 34.7998C11.7773 35.2213 11.7513 35.6505 11.6408 36.0616C11.5304 36.4727 11.3379 36.8571 11.0748 37.1918C10.8125 37.5256 10.4854 37.803 10.1133 38.0073M10.437 34.1277C10.5877 34.3763 10.6864 34.6528 10.7273 34.9406C10.7683 35.2283 10.7505 35.5214 10.6751 35.8021C10.5997 36.0828 10.4682 36.3454 10.2886 36.5739C10.109 36.8024 9.88496 36.9922 9.63002 37.1319M9.63002 37.1319L10.1156 38.006C10.1148 38.0065 10.1141 38.0069 10.1133 38.0073M9.63002 37.1319L10.1104 38.0089C10.1114 38.0084 10.1123 38.0079 10.1133 38.0073" stroke="#FCFCFC" stroke-width="2"/>
</svg>
