<svg width="90" height="90" viewBox="0 0 90 90" fill="none" xmlns="http://www.w3.org/2000/svg">
<path d="M90 45.0017C90.0006 43.1955 89.518 41.422 88.6021 39.8652C87.6862 38.3085 86.3704 37.0251 84.7913 36.1483C84.5045 35.9913 84.2524 35.7777 84.0504 35.5206C83.8483 35.2635 83.7004 34.9682 83.6156 34.6524C83.5308 34.3366 83.5107 34.0069 83.5568 33.6832C83.6028 33.3594 83.7139 33.0483 83.8834 32.7687C84.8152 31.2157 85.3133 29.4412 85.3257 27.6302C85.3381 25.8192 84.8644 24.038 83.954 22.4724C83.0436 20.9068 81.7298 19.6141 80.1497 18.7291C78.5695 17.8442 76.7808 17.3994 74.9702 17.4411C74.652 17.4451 74.3363 17.3853 74.0416 17.2653C73.7469 17.1453 73.4792 16.9675 73.2544 16.7423C73.0295 16.5172 72.8521 16.2493 72.7325 15.9544C72.6129 15.6596 72.5535 15.3438 72.558 15.0256C72.5983 13.2159 72.1526 11.4285 71.2676 9.84953C70.3825 8.27052 69.0903 6.95763 67.5256 6.04756C65.9608 5.13748 64.1807 4.66349 62.3705 4.67494C60.5604 4.6864 58.7864 5.18287 57.2333 6.11267C56.9542 6.28268 56.6435 6.3943 56.3201 6.44077C55.9966 6.48724 55.6671 6.4676 55.3515 6.38304C55.0358 6.29848 54.7406 6.15075 54.4837 5.9488C54.2268 5.74685 54.0136 5.49487 53.8569 5.20812C52.9795 3.62956 51.6959 2.3143 50.1393 1.39858C48.5826 0.482867 46.8094 0 45.0033 0C43.1973 0 41.4241 0.482867 39.8674 1.39858C38.3107 2.3143 37.0272 3.62956 36.1498 5.20812C35.9931 5.49487 35.7798 5.74685 35.5229 5.9488C35.266 6.15075 34.9708 6.29848 34.6552 6.38304C34.3395 6.4676 34.01 6.48724 33.6866 6.44077C33.3631 6.3943 33.0524 6.28268 32.7734 6.11267C31.2201 5.18115 29.4454 4.68328 27.6343 4.67095C25.8231 4.65863 24.0418 5.13229 22.476 6.04258C20.9102 6.95286 19.6172 8.26646 18.7318 9.84644C17.8464 11.4264 17.401 13.2149 17.442 15.0256C17.4465 15.3438 17.3872 15.6596 17.2676 15.9544C17.1479 16.2493 16.9705 16.5172 16.7456 16.7423C16.5208 16.9675 16.2531 17.1453 15.9585 17.2653C15.6638 17.3853 15.348 17.4451 15.0299 17.4411C13.2192 17.3994 11.4305 17.8442 9.85038 18.7291C8.27021 19.6141 6.95642 20.9068 6.046 22.4724C5.13558 24.038 4.66188 25.8192 4.67431 27.6302C4.68674 29.4412 5.18484 31.2157 6.11667 32.7687C6.28615 33.0483 6.39724 33.3594 6.44326 33.6832C6.48928 34.0069 6.46927 34.3366 6.38444 34.6524C6.29961 34.9682 6.1517 35.2635 5.94965 35.5206C5.7476 35.7777 5.49558 35.9913 5.20878 36.1483C3.6301 37.0253 2.31467 38.3084 1.39881 39.8648C0.482955 41.4212 0 43.1941 0 45C0 46.8058 0.482955 48.5788 1.39881 50.1352C2.31467 51.6916 3.6301 52.9747 5.20878 53.8517C5.49558 54.0087 5.7476 54.2223 5.94965 54.4794C6.1517 54.7365 6.29961 55.0318 6.38444 55.3476C6.46927 55.6634 6.48928 55.9931 6.44326 56.3168C6.39724 56.6406 6.28615 56.9516 6.11667 57.2313C5.18513 58.7845 4.68724 60.5592 4.67491 62.3703C4.66258 64.1814 5.13626 65.9626 6.04657 67.5284C6.95688 69.0941 8.2705 70.3871 9.85052 71.2725C11.4305 72.1579 13.2191 72.6032 15.0299 72.5622C15.348 72.5573 15.6639 72.6164 15.9587 72.7358C16.2536 72.8553 16.5215 73.0328 16.7465 73.2578C16.9715 73.4827 17.149 73.7506 17.2684 74.0455C17.3879 74.3404 17.447 74.6562 17.442 74.9744C17.401 76.785 17.8464 78.5736 18.7318 80.1536C19.6172 81.7335 20.9102 83.0471 22.476 83.9574C24.0418 84.8677 25.8231 85.3414 27.6343 85.329C29.4454 85.3167 31.2201 84.8188 32.7734 83.8873C33.0524 83.7173 33.3631 83.6057 33.6866 83.5592C34.01 83.5128 34.3395 83.5324 34.6552 83.617C34.9708 83.7015 35.266 83.8493 35.5229 84.0512C35.7798 84.2532 35.9931 84.5051 36.1498 84.7919C37.0272 86.3704 38.3107 87.6857 39.8674 88.6014C41.4241 89.5171 43.1973 90 45.0033 90C46.8094 90 48.5826 89.5171 50.1393 88.6014C51.6959 87.6857 52.9795 86.3704 53.8569 84.7919C54.0136 84.5051 54.2268 84.2532 54.4837 84.0512C54.7406 83.8493 55.0358 83.7015 55.3515 83.617C55.6671 83.5324 55.9966 83.5128 56.3201 83.5592C56.6435 83.6057 56.9542 83.7173 57.2333 83.8873C58.7862 84.817 60.5598 85.3134 62.3697 85.325C64.1795 85.3366 65.9594 84.8629 67.5241 83.9532C69.0887 83.0435 70.381 81.7311 71.2663 80.1526C72.1516 78.5741 72.5976 76.7871 72.558 74.9777C72.5531 74.6596 72.6121 74.3437 72.7316 74.0488C72.8511 73.7539 73.0286 73.4861 73.2535 73.2611C73.4785 73.0361 73.7464 72.8586 74.0413 72.7392C74.3362 72.6197 74.652 72.5606 74.9702 72.5656C76.7809 72.6066 78.5695 72.1612 80.1495 71.2758C81.7295 70.3904 83.0431 69.0975 83.9535 67.5317C84.8638 65.9659 85.3374 64.1847 85.3251 62.3736C85.3128 60.5625 84.8149 58.7878 83.8834 57.2346C83.7139 56.955 83.6028 56.6439 83.5568 56.3202C83.5107 55.9964 83.5308 55.6667 83.6156 55.3509C83.7004 55.0351 83.8483 54.7398 84.0504 54.4827C84.2524 54.2256 84.5045 54.0121 84.7913 53.855C86.3706 52.9785 87.6866 51.6952 88.6025 50.1384C89.5185 48.5815 90.001 46.8079 90 45.0017Z" fill="#8040FF"/>
<path d="M84 45.0011V45.002C84.0008 46.4291 83.6196 47.8303 82.8959 49.0603C82.1726 50.2898 81.1335 51.3033 79.8865 51.9958C79.5144 52.2001 79.1875 52.4774 78.9252 52.8111C78.6622 53.1458 78.4696 53.5303 78.3592 53.9414C78.2488 54.3525 78.2227 54.7817 78.2826 55.2031C78.3424 55.6236 78.4865 56.0277 78.7064 56.3912C79.4418 57.618 79.8348 59.0196 79.8446 60.45C79.8543 61.881 79.48 63.2884 78.7608 64.5256C78.0415 65.7627 77.0036 66.7843 75.7552 67.4839C74.5067 68.1834 73.0935 68.5354 71.6628 68.5029L71.6556 68.5028C71.2389 68.4964 70.8252 68.5737 70.439 68.7302C70.0527 68.8867 69.7019 69.1192 69.4072 69.4138L70.1143 70.121L69.4072 69.4139C69.1125 69.7085 68.88 70.0594 68.7235 70.4456C68.567 70.8319 68.4897 71.2456 68.4961 71.6623L68.4962 71.6687C68.5276 73.0984 68.1751 74.5103 67.4756 75.7576C66.7761 77.0048 65.7551 78.0418 64.5188 78.7606C63.2825 79.4793 61.8761 79.8536 60.4461 79.8445C59.0171 79.8353 57.6166 79.4436 56.3903 78.7101C56.0277 78.49 55.6244 78.3454 55.2045 78.285C54.7831 78.2245 54.3538 78.2501 53.9425 78.3602L54.2013 79.3262L53.9425 78.3602C53.5313 78.4704 53.1467 78.6629 52.812 78.926C52.4782 79.1883 52.2011 79.5155 51.9971 79.8877C51.3038 81.1337 50.2903 82.1719 49.0612 82.8949C47.8312 83.6184 46.43 84 45.003 84C43.5759 84 42.1747 83.6184 40.9447 82.8949C39.7157 82.1719 38.7021 81.1337 38.0089 79.8877C37.8049 79.5155 37.5277 79.1883 37.194 78.926C36.8592 78.6629 36.4746 78.4704 36.0634 78.3602L35.8046 79.3262L36.0634 78.3602C35.6521 78.2501 35.2228 78.2245 34.8014 78.285C34.3812 78.3454 33.9775 78.4902 33.6147 78.7106C32.3881 79.4455 30.9869 79.8383 29.557 79.8481C28.1259 79.8578 26.7185 79.4835 25.4813 78.7643C24.2441 78.0451 23.2225 77.0071 22.5229 75.7588C21.8233 74.5104 21.4714 73.0972 21.5038 71.6665L21.5039 71.6593C21.5104 71.2426 21.433 70.8289 21.2765 70.4427C21.12 70.0565 20.8876 69.7056 20.5929 69.4109C20.2982 69.1162 19.9473 68.8837 19.5611 68.7273L19.1964 69.6273L19.5611 68.7273C19.1748 68.5708 18.7611 68.4934 18.3444 68.4999L18.3372 68.5C16.9065 68.5324 15.4933 68.1805 14.2449 67.4809C12.9964 66.7814 11.9585 65.7598 11.2392 64.5226C10.52 63.2855 10.1457 61.878 10.1555 60.447C10.1652 59.0168 10.5582 57.6152 11.2935 56.3884C11.5134 56.0249 11.6576 55.6208 11.7174 55.2002C11.7773 54.7787 11.7513 54.3495 11.6408 53.9384C11.5304 53.5273 11.3379 53.1429 11.0748 52.8082C10.8125 52.4745 10.4856 52.1971 10.1135 51.9928C8.8671 51.2999 7.82849 50.2865 7.10524 49.0575C6.3816 47.8277 6 46.4268 6 45C6 43.5731 6.3816 42.1723 7.10524 40.9425C7.82846 39.7135 8.86702 38.7001 10.1134 38.0073C10.4855 37.8029 10.8125 37.5256 11.0748 37.1918C11.3378 36.8571 11.5304 36.4727 11.6408 36.0616C11.7513 35.6505 11.7773 35.2213 11.7174 34.7998C11.6576 34.3793 11.5135 33.9751 11.2936 33.6117C10.558 32.385 10.1647 30.9836 10.1549 29.5533C10.1451 28.1224 10.5194 26.7151 11.2387 25.4781C11.958 24.2411 12.996 23.2198 14.2445 22.5206C15.493 21.8214 16.9062 21.4699 18.3368 21.5029L18.3368 21.503L18.3473 21.5031C18.7636 21.5083 19.1768 21.4301 19.5624 21.2731L19.1853 20.3469L19.5625 21.2731C19.9481 21.116 20.2984 20.8833 20.5926 20.5887C20.8868 20.2941 21.1191 19.9435 21.2756 19.5576C21.4321 19.1718 21.5098 18.7585 21.5039 18.3421H21.504L21.5038 18.3335C21.4714 16.9028 21.8233 15.4896 22.5229 14.2412C23.2225 12.9929 24.2441 11.9549 25.4813 11.2357C26.7185 10.5165 28.1259 10.1422 29.557 10.1519C30.987 10.1617 32.3883 10.5545 33.615 11.2895C33.9777 11.5099 34.3813 11.6546 34.8014 11.715C35.2228 11.7755 35.6522 11.7499 36.0634 11.6397C36.4746 11.5296 36.8593 11.3371 37.194 11.074C37.5276 10.8117 37.8048 10.4846 38.0088 10.1124C38.702 8.86637 39.7156 7.82813 40.9447 7.10511C42.1747 6.38155 43.5759 6 45.003 6C46.43 6 47.8312 6.38155 49.0612 7.10511C50.2903 7.82811 51.3038 8.86631 51.9971 10.1123C52.2011 10.4845 52.4782 10.8117 52.812 11.074C53.1467 11.3371 53.5313 11.5296 53.9425 11.6397C54.3538 11.7499 54.7831 11.7755 55.2045 11.715C55.6246 11.6546 56.0281 11.5099 56.3907 11.2897C57.6172 10.5562 59.0177 10.1645 60.4468 10.1555C61.877 10.1464 63.2836 10.521 64.52 11.24C65.7563 11.9591 66.7773 12.9965 67.4766 14.2441C68.176 15.4917 68.5281 16.904 68.4962 18.3339H68.4962L68.4961 18.3421C68.4903 18.7585 68.5679 19.1718 68.7244 19.5576C68.8809 19.9435 69.1132 20.2941 69.4074 20.5887C69.7017 20.8833 70.0519 21.116 70.4376 21.2731C70.8232 21.4301 71.2364 21.5083 71.6528 21.5031L71.6632 21.5029C73.0938 21.4699 74.507 21.8214 75.7555 22.5206C77.004 23.2198 78.042 24.2411 78.7613 25.4781C79.4807 26.7151 79.8549 28.1224 79.8451 29.5533C79.8353 30.9835 79.4421 32.3848 78.7066 33.6114C78.4866 33.9749 78.3424 34.3792 78.2826 34.7998C78.2227 35.2213 78.2488 35.6505 78.3592 36.0616C78.4696 36.4726 78.6622 36.8571 78.9252 37.1918C79.1877 37.5258 79.5149 37.8033 79.8872 38.0076C81.1337 38.7003 82.1724 39.7137 82.8955 40.9428C83.6192 42.1728 84.0005 43.574 84 45.0011ZM69.6511 19.1817C69.5448 18.9196 69.492 18.6389 69.496 18.3561L79.563 34.1277C80.3913 32.7473 80.834 31.17 80.8451 29.5602C80.8561 27.9504 80.4351 26.3671 79.6258 24.9754C78.8165 23.5838 77.6487 22.4347 76.2441 21.6481C74.8395 20.8615 73.2496 20.4661 71.6402 20.5032C71.3573 20.5067 71.0767 20.4536 70.8147 20.3469C70.5528 20.2403 70.3149 20.0822 70.115 19.8821C69.9151 19.682 69.7574 19.4438 69.6511 19.1817Z" stroke="#FCFCFC" stroke-width="2"/>
</svg>
