<svg width="30" height="22" viewBox="0 0 30 22" fill="none" xmlns="http://www.w3.org/2000/svg">
<mask id="path-1-outside-1_896_12517" maskUnits="userSpaceOnUse" x="0" y="0" width="30" height="22" fill="black">
<rect fill="white" width="30" height="22"/>
<path d="M27.4567 4.81073C27.1576 3.70438 26.2767 2.83308 25.158 2.53739C23.1304 2 14.9999 2 14.9999 2C14.9999 2 6.86956 2 4.84201 2.53739C3.72331 2.83308 2.84227 3.70438 2.54334 4.81073C2 6.81613 2 11.0001 2 11.0001C2 11.0001 2 15.184 2.54334 17.1894C2.84227 18.2957 3.72331 19.1669 4.84201 19.4627C6.86956 20 14.9999 20 14.9999 20C14.9999 20 23.1304 20 25.158 19.4627C26.2767 19.1669 27.1576 18.2956 27.4567 17.1895C28 15.1839 28 11.0001 28 11.0001C28 11.0001 28 6.81613 27.4567 4.81073Z"/>
</mask>
<path d="M25.158 2.53739L24.6456 4.47064L24.6469 4.47098L25.158 2.53739ZM4.84201 2.53739L5.3531 4.47098L5.3544 4.47064L4.84201 2.53739ZM2.54334 4.81073L4.47374 5.33375L4.47411 5.3324L2.54334 4.81073ZM2.54334 17.1894L4.47411 16.6677L4.47374 16.6664L2.54334 17.1894ZM4.84201 19.4627L5.35431 17.5294L5.35327 17.5292L4.84201 19.4627ZM14.9999 20V18V20ZM25.158 19.4627L24.6467 17.5292L24.6457 17.5294L25.158 19.4627ZM27.4567 17.1895L25.5262 16.6665L25.526 16.6675L27.4567 17.1895ZM28 11.0001H30H28ZM29.3874 4.28887C28.8995 2.48378 27.4712 1.08014 25.6691 0.603793L24.6469 4.47098C25.0821 4.58603 25.4158 4.92498 25.5259 5.33258L29.3874 4.28887ZM25.6704 0.604139C24.9576 0.415212 23.8914 0.306359 22.8594 0.231897C21.7716 0.153413 20.5335 0.102008 19.3774 0.0680363C18.2181 0.0339714 17.1252 0.0169911 16.3232 0.00850856C15.9218 0.00426304 15.5922 0.00213659 15.3625 0.0010711C15.2477 0.00053823 15.1577 0.000270486 15.0961 0.000136018C15.0653 6.86646e-05 15.0416 3.46899e-05 15.0255 1.75238e-05C15.0174 8.9407e-06 15.0112 4.52995e-06 15.0069 2.26498e-06C15.0048 1.19209e-06 15.0031 5.96046e-07 15.0019 3.57628e-07C15.0014 1.19209e-07 15.0009 1.19209e-07 15.0006 0C15.0004 0 15.0003 0 15.0002 0C15 0 14.9999 0 14.9999 2C14.9999 4 14.9999 4 14.9999 4C14.9999 4 15 4 15.0001 4C15.0002 4 15.0005 4 15.0009 4C15.0017 4 15.003 4 15.0048 4C15.0084 4 15.0138 4.00001 15.0212 4.00002C15.0359 4.00003 15.0581 4.00006 15.0874 4.00013C15.1459 4.00025 15.2326 4.00051 15.344 4.00103C15.5668 4.00206 15.8884 4.00413 16.2809 4.00828C17.0667 4.0166 18.1331 4.0332 19.2599 4.06631C20.3898 4.09951 21.5645 4.14887 22.5715 4.22152C23.6342 4.2982 24.3446 4.39087 24.6456 4.47064L25.6704 0.604139ZM14.9999 2C14.9999 0 14.9998 0 14.9997 0C14.9996 0 14.9995 0 14.9993 0C14.999 1.19209e-07 14.9985 1.19209e-07 14.9979 3.57628e-07C14.9968 5.96046e-07 14.9951 1.19209e-06 14.993 2.26498e-06C14.9887 4.52995e-06 14.9825 8.9407e-06 14.9744 1.75238e-05C14.9583 3.46899e-05 14.9346 6.86646e-05 14.9038 0.000136018C14.8422 0.000270486 14.7522 0.00053823 14.6374 0.0010711C14.4077 0.00213659 14.0782 0.00426304 13.6767 0.00850856C12.8747 0.0169911 11.7819 0.0339714 10.6226 0.0680364C9.46645 0.102008 8.22835 0.153413 7.14063 0.231897C6.10864 0.306359 5.04243 0.415212 4.32962 0.604139L5.3544 4.47064C5.65536 4.39087 6.36579 4.2982 7.42849 4.22152C8.43547 4.14887 9.61013 4.09951 10.7401 4.06631C11.8668 4.0332 12.9333 4.0166 13.719 4.00828C14.1115 4.00413 14.4331 4.00206 14.6559 4.00103C14.7673 4.00051 14.854 4.00025 14.9125 4.00013C14.9418 4.00006 14.964 4.00003 14.9787 4.00002C14.986 4.00001 14.9915 4 14.9951 4C14.9969 4 14.9982 4 14.999 4C14.9994 4 14.9997 4 14.9998 4C14.9999 4 14.9999 4 15 4C15 4 14.9999 4 14.9999 2ZM4.33092 0.603793C2.5289 1.0801 1.10037 2.48369 0.612575 4.28905L4.47411 5.3324C4.58416 4.92507 4.91772 4.58606 5.3531 4.47098L4.33092 0.603793ZM0.612938 4.28771C0.279097 5.51988 0.138215 7.26299 0.0706555 8.5528C0.0352921 9.22795 0.0176905 9.83588 0.00889122 10.2749C0.00448263 10.4949 0.00226152 10.6736 0.00114167 10.7984C0.000581503 10.8609 0.000296116 10.9099 0.0001508 10.9441C7.80821e-05 10.9611 4.04119e-05 10.9744 2.08616e-05 10.9838C1.10865e-05 10.9885 5.96046e-06 10.9922 3.09944e-06 10.995C1.78814e-06 10.9963 9.53674e-07 10.9974 4.76837e-07 10.9983C3.57628e-07 10.9987 1.19209e-07 10.9991 1.19209e-07 10.9994C1.19209e-07 10.9995 0 10.9997 0 10.9998C0 10.9999 0 11.0001 2 11.0001C4 11.0001 4 11.0002 4 11.0003C4 11.0003 4 11.0004 4 11.0004C4 11.0004 4 11.0004 4 11.0003C4 11.0001 4 10.9997 4 10.9991C4 10.9977 4.00001 10.9954 4.00001 10.9921C4.00003 10.9856 4.00005 10.9752 4.00011 10.9611C4.00023 10.9329 4.00048 10.8902 4.00098 10.8343C4.00198 10.7225 4.00401 10.5587 4.00809 10.3551C4.01627 9.94693 4.03263 9.38355 4.06518 8.76203C4.13346 7.45854 4.26424 6.10698 4.47374 5.33375L0.612938 4.28771ZM2 11.0001C0 11.0001 0 11.0002 0 11.0004C0 11.0004 1.19209e-07 11.0006 1.19209e-07 11.0008C1.19209e-07 11.0011 3.57628e-07 11.0014 4.76837e-07 11.0018C9.53674e-07 11.0027 1.78814e-06 11.0038 3.09944e-06 11.0051C5.96046e-06 11.0079 1.10865e-05 11.0116 2.08616e-05 11.0163C4.04119e-05 11.0257 7.80821e-05 11.039 0.0001508 11.0561C0.000296116 11.0902 0.000581503 11.1392 0.00114167 11.2017C0.00226152 11.3265 0.00448263 11.5052 0.00889122 11.7252C0.0176905 12.1642 0.0352921 12.7722 0.0706555 13.4473C0.138215 14.7371 0.279097 16.4802 0.612938 17.7124L4.47374 16.6664C4.26424 15.8931 4.13346 14.5416 4.06518 13.2381C4.03263 12.6166 4.01627 12.0532 4.00809 11.645C4.00401 11.4414 4.00198 11.2776 4.00098 11.1658C4.00048 11.1099 4.00023 11.0672 4.00011 11.039C4.00005 11.0249 4.00003 11.0145 4.00001 11.008C4.00001 11.0047 4 11.0024 4 11.001C4 11.0004 4 11 4 10.9998C4 10.9997 4 10.9997 4 10.9997C4 10.9998 4 10.9998 4 10.9998C4 10.9999 4 11.0001 2 11.0001ZM0.612575 17.7111C1.1004 19.5165 2.52899 20.9199 4.33075 21.3963L5.35327 17.5292C4.91763 17.414 4.58413 17.0749 4.47411 16.6677L0.612575 17.7111ZM4.32971 21.396C5.04249 21.5849 6.10866 21.6937 7.14066 21.7682C8.22837 21.8466 9.46646 21.898 10.6226 21.932C11.7819 21.966 12.8747 21.983 13.6767 21.9915C14.0782 21.9957 14.4077 21.9979 14.6374 21.9989C14.7522 21.9995 14.8422 21.9997 14.9038 21.9999C14.9346 21.9999 14.9583 22 14.9744 22C14.9825 22 14.9887 22 14.993 22C14.9951 22 14.9968 22 14.9979 22C14.9985 22 14.999 22 14.9993 22C14.9995 22 14.9996 22 14.9997 22C14.9998 22 14.9999 22 14.9999 20C14.9999 18 15 18 15 18C14.9999 18 14.9999 18 14.9998 18C14.9997 18 14.9994 18 14.999 18C14.9982 18 14.9969 18 14.9951 18C14.9915 18 14.986 18 14.9787 18C14.964 18 14.9418 17.9999 14.9125 17.9999C14.854 17.9997 14.7673 17.9995 14.6559 17.999C14.4331 17.9979 14.1115 17.9959 13.719 17.9917C12.9333 17.9834 11.8668 17.9668 10.74 17.9337C9.61012 17.9005 8.43545 17.8512 7.42847 17.7785C6.36576 17.7019 5.6553 17.6092 5.35431 17.5294L4.32971 21.396ZM14.9999 20C14.9999 22 15 22 15.0002 22C15.0003 22 15.0004 22 15.0006 22C15.0009 22 15.0014 22 15.0019 22C15.0031 22 15.0048 22 15.0069 22C15.0112 22 15.0174 22 15.0255 22C15.0416 22 15.0653 21.9999 15.0961 21.9999C15.1577 21.9997 15.2477 21.9995 15.3625 21.9989C15.5922 21.9979 15.9217 21.9957 16.3232 21.9915C17.1252 21.983 18.2181 21.966 19.3774 21.932C20.5335 21.898 21.7716 21.8466 22.8593 21.7682C23.8913 21.6937 24.9575 21.5849 25.6703 21.396L24.6457 17.5294C24.3447 17.6092 23.6342 17.7019 22.5715 17.7785C21.5645 17.8512 20.3898 17.9005 19.2599 17.9337C18.1331 17.9668 17.0667 17.9834 16.2809 17.9917C15.8884 17.9959 15.5668 17.9979 15.344 17.999C15.2326 17.9995 15.1459 17.9997 15.0874 17.9999C15.0581 17.9999 15.0359 18 15.0212 18C15.0138 18 15.0084 18 15.0048 18C15.003 18 15.0017 18 15.0009 18C15.0005 18 15.0002 18 15.0001 18C15 18 14.9999 18 14.9999 18C14.9999 18 14.9999 18 14.9999 20ZM25.6693 21.3963C27.4712 20.9198 28.8994 19.5163 29.3874 17.7114L25.526 16.6675C25.4158 17.0749 25.0822 17.414 24.6467 17.5292L25.6693 21.3963ZM29.3871 17.7125C29.7209 16.4802 29.8618 14.7371 29.9293 13.4473C29.9647 12.7721 29.9823 12.1642 29.9911 11.7252C29.9955 11.5052 29.9977 11.3265 29.9989 11.2017C29.9994 11.1392 29.9997 11.0902 29.9998 11.0561C29.9999 11.039 30 11.0257 30 11.0163C30 11.0116 30 11.0079 30 11.0051C30 11.0038 30 11.0027 30 11.0018C30 11.0014 30 11.0011 30 11.0008C30 11.0006 30 11.0004 30 11.0004C30 11.0002 30 11.0001 28 11.0001C26 11.0001 26 10.9999 26 10.9998C26 10.9998 26 10.9998 26 10.9997C26 10.9997 26 10.9997 26 10.9998C26 11 26 11.0004 26 11.001C26 11.0024 26 11.0047 26 11.008C26 11.0145 25.9999 11.0249 25.9999 11.039C25.9998 11.0672 25.9995 11.1099 25.999 11.1658C25.998 11.2776 25.996 11.4414 25.9919 11.645C25.9837 12.0532 25.9674 12.6165 25.9348 13.238C25.8665 14.5415 25.7358 15.8931 25.5262 16.6665L29.3871 17.7125ZM28 11.0001C30 11.0001 30 10.9999 30 10.9998C30 10.9997 30 10.9995 30 10.9994C30 10.9991 30 10.9987 30 10.9983C30 10.9974 30 10.9963 30 10.995C30 10.9922 30 10.9885 30 10.9838C30 10.9744 29.9999 10.9611 29.9998 10.9441C29.9997 10.9099 29.9994 10.8609 29.9989 10.7984C29.9977 10.6736 29.9955 10.4949 29.9911 10.2749C29.9823 9.83588 29.9647 9.22795 29.9293 8.5528C29.8618 7.26299 29.7209 5.51988 29.3871 4.28771L25.5263 5.33375C25.7358 6.10698 25.8665 7.45854 25.9348 8.76203C25.9674 9.38355 25.9837 9.94693 25.9919 10.3551C25.996 10.5587 25.998 10.7225 25.999 10.8343C25.9995 10.8902 25.9998 10.9329 25.9999 10.9611C25.9999 10.9752 26 10.9856 26 10.9921C26 10.9954 26 10.9977 26 10.9991C26 10.9997 26 11.0001 26 11.0003C26 11.0004 26 11.0004 26 11.0004C26 11.0004 26 11.0003 26 11.0003C26 11.0002 26 11.0001 28 11.0001Z" fill="#FCFCFC" mask="url(#path-1-outside-1_896_12517)"/>
<path d="M11.583 15L20.7639 10.5002L11.583 6V15Z" fill="#FCFCFC"/>
</svg>
