<svg width="50" height="50" viewBox="0 0 50 50" fill="none" xmlns="http://www.w3.org/2000/svg">
<rect width="50" height="50" rx="5" fill="#232323"/>
<path d="M40.8104 16.5915C40.4308 15.1778 39.3127 14.0645 37.8928 13.6867C35.3194 13 24.9999 13 24.9999 13C24.9999 13 14.6806 13 12.1072 13.6867C10.6873 14.0645 9.56903 15.1778 9.18962 16.5915C8.5 19.154 8.5 24.5001 8.5 24.5001C8.5 24.5001 8.5 29.8462 9.18962 32.4087C9.56903 33.8223 10.6873 34.9355 12.1072 35.3135C14.6806 36 24.9999 36 24.9999 36C24.9999 36 35.3194 36 37.8928 35.3135C39.3127 34.9355 40.4308 33.8222 40.8104 32.4088C41.5 29.8461 41.5 24.5001 41.5 24.5001C41.5 24.5001 41.5 19.154 40.8104 16.5915Z" fill="#FCFCFC"/>
<path d="M20.5 31.1111L31.6111 25.0003L20.5 18.8889V31.1111Z" fill="#2A2A2A"/>
</svg>
